<?xml version="1.0" encoding="UTF-8"?>
<!DOCTYPE svg PUBLIC "-//W3C//DTD SVG 1.1//EN" "http://www.w3.org/Graphics/SVG/1.1/DTD/svg11.dtd">
<!-- Creator: CorelDRAW Home & Student 2018 (Keine kommerzielle Nutzung) -->
<svg xmlns="http://www.w3.org/2000/svg" xml:space="preserve" width="50mm" height="50mm" version="1.1" style="shape-rendering:geometricPrecision; text-rendering:geometricPrecision; image-rendering:optimizeQuality; fill-rule:evenodd; clip-rule:evenodd"
viewBox="0 0 5000 5000"
 xmlns:xlink="http://www.w3.org/1999/xlink"
 xmlns:dc="http://purl.org/dc/elements/1.1/"
 xmlns:cc="http://creativecommons.org/ns#"
 xmlns:rdf="http://www.w3.org/1999/02/22-rdf-syntax-ns#"
 xmlns:svg="http://www.w3.org/2000/svg"
 enable-background="new 0 0 50 50">
 <defs>
  <style type="text/css">
   <![CDATA[
    .fil3 {fill:none}
    .fil0 {fill:#007B50}
    .fil2 {fill:white}
    .fil1 {fill:url(#id1)}
   ]]>
  </style>
   <clipPath id="id0">
    <path d="M342.93 2994.51l4314.14 0 0 -1148.31 -4314.14 0 0 1148.31z"/>
   </clipPath>
  <linearGradient id="id1" gradientUnits="userSpaceOnUse" x1="2505.79" y1="4346.03" x2="2505.79" y2="3019.45">
   <stop offset="0" style="stop-opacity:1; stop-color:#007B50"/>
   <stop offset="0.968627" style="stop-opacity:1; stop-color:#7FBDA7"/>
   <stop offset="1" style="stop-opacity:1; stop-color:white"/>
  </linearGradient>
 </defs>
 <g id="Ebene_x0020_1">
  <metadata id="CorelCorpID_0Corel-Layer"/>
  <rect class="fil0" x="-250" y="-250.05" width="5500" height="5500" rx="177.26" ry="206.8"/>
  <rect class="fil1" x="-243.17" y="3019.45" width="5497.94" height="1326.58"/>
  <g>
  </g>
  <g style="clip-path:url(#id0)">
   <g>
    <g>
     <path id="path32641" class="fil2" d="M4460.67 1874.31c108.3,0 196.37,88.01 196.37,196.34 0,109.47 -88.07,196.37 -196.37,196.37 -109.47,0 -197.52,-86.9 -197.52,-196.37 0,-108.33 88.04,-196.34 197.52,-196.34l0 0zm0 41.93c-84.63,0 -153.43,68.83 -153.43,153.5 0,84.59 68.8,153.43 153.43,153.43 83.52,0 152.32,-68.84 152.32,-153.43 0,-84.67 -68.8,-153.5 -152.32,-153.5z"/>
    </g>
    <path id="path32645" class="fil2" d="M4379.43 1960.76l94.79 0c44.02,0 79,12.46 77.85,63.2 0,24.81 -9.05,37.23 -30.42,49.65 46.29,19.21 11.21,82.41 34.98,103.84l-49.66 0c-15.8,-42.9 14.68,-85.77 -41.76,-85.77l-41.76 0 0 85.77 -44.02 0 0 -216.69zm44.02 38.38l42.91 0c21.37,0 40.61,1.15 40.61,28.23 0,25.92 -19.24,28.22 -40.61,28.22l-42.91 0 0 -56.45z"/>
    <g>
     <path id="path32649" class="fil2" d="M3877.24 2549.1c-62.25,242.11 -281.04,420.89 -541.35,420.89 -212.54,0 -394.19,-117.17 -488.75,-292.68l-2.06 -1.21c0,0 13.37,62.55 -53.43,176.82 -91.18,156 -555.49,219.6 -746.56,5.94l0 78.36 -994.68 0c0,0 -137.74,-261.16 -193.5,-350.17 -55.81,-89.02 -138.88,-119.88 -213.66,-112.76l0 466.47 -300.31 0 0 -1068.27 499.72 0c32.04,0 167.37,1.18 269.42,110.39 102.05,109.21 77.11,257.47 40.38,313.34 -27.34,41.56 -42.77,66.47 -113.97,100.9 0,0 80.72,30.89 128.21,136.49 45.71,101.71 92.57,167.37 131.73,255.21l0 -917.51 750.17 0 0 213.62 -430.82 0 0 208.93 405.9 0 0 210.11 -405.9 0 0 208.89 414.24 0 0 -107.99c0,0 116.3,66.44 195.83,86.62 79.54,20.19 153.53,11.28 179.8,-0.3 38.95,-17.15 54.51,-46.75 55.22,-64.98 0.88,-22.55 -15.46,-61.75 -48.68,-86.62 -33.21,-24.95 -117.51,-85.48 -192.28,-135.34 -74.77,-49.83 -121.09,-160.25 -121.09,-229.08 0,-68.84 20.22,-119.88 41.56,-153.13 21.36,-33.18 86.65,-116.33 199.44,-149.55 112.75,-33.21 251.63,-35.58 376.23,22.55 56.98,28.49 67.69,39.2 67.69,39.2l0 261.11c0,0 -46.29,-40.34 -106.85,-64.07 -60.53,-23.73 -111.57,-27.34 -132.94,-24.95 -21.37,2.37 -77.5,27.25 -86.62,70.02 -8.54,40.07 0,72.41 15.43,89.05 15.39,16.61 108.02,69.98 159.03,99.69 51.04,29.64 119.94,81.86 148.37,124.6l0.54 0.27c-3.89,-26.7 -5.91,-54.08 -5.91,-81.86 0,-310.3 250.35,-561.9 559.1,-561.9 261.32,0 480.71,180.13 542.05,423.59l3.34 8.88 0 -407.36 321.68 0 0 841.86 436.83 0 0 225.2 -758.44 0 0 -404.39 -4.11 15.12zm-537.13 -403.58c-126.55,0 -229.11,111.88 -229.11,249.85 0,138 102.56,249.84 229.11,249.84 126.49,0 229.05,-111.84 229.05,-249.84 0,-137.97 -102.56,-249.85 -229.05,-249.85l0 0zm-2696.05 166.26c0,0 38.18,0.68 80.96,-0.61 40.37,-1.28 136.92,-19.1 138.23,-138.24 1.56,-141.17 -98.06,-145.46 -130.98,-147.42 -32.91,-1.99 -88.21,-1.99 -88.21,-1.99l0 288.26 0 0z"/>
    </g>
   </g>
  </g>
  <polygon class="fil3" points="342.93,2994.51 4657.07,2994.51 4657.07,1846.2 342.93,1846.2 "/>
  <g id="_17989915901553239397.svg">
   <path class="fil2" d="M2862.13 3959.63c0,-199.69 -162.49,-362.13 -362.12,-362.13 -199.64,0 -362.13,162.44 -362.13,362.13 0,199.63 162.49,362.12 362.13,362.12 199.63,0 362.12,-162.49 362.12,-362.12zm-362.12 258.66c-142.63,0 -258.67,-116.04 -258.67,-258.66 0,-142.63 116.04,-258.67 258.67,-258.67 142.62,0 258.66,116.04 258.66,258.67 0,142.62 -116.04,258.66 -258.66,258.66z"/>
   <path class="fil2" d="M2448.27 4418.28l0 317.33c0,28.61 23.13,51.73 51.74,51.73 28.6,0 51.73,-23.12 51.73,-51.73l0 -317.33c0,-28.6 -23.13,-51.73 -51.73,-51.73 -28.61,0 -51.74,23.13 -51.74,51.73z"/>
   <path class="fil2" d="M2448.27 3183.64l0 317.33c0,28.55 23.13,51.73 51.74,51.73 28.6,0 51.73,-23.18 51.73,-51.73l0 -317.33c0,-28.56 -23.13,-51.73 -51.73,-51.73 -28.61,0 -51.74,23.12 -51.74,51.73z"/>
   <path class="fil2" d="M3012.16 4544.87c10.08,10.09 23.33,15.16 36.57,15.16 13.24,0 26.49,-5.07 36.58,-15.16 20.22,-20.22 20.22,-52.92 0,-73.15l-224.42 -224.36c-20.23,-20.23 -52.92,-20.23 -73.15,0 -20.23,20.23 -20.23,52.92 0,73.15l224.42 224.36z"/>
   <path class="fil2" d="M1914.76 3374.32c-20.23,20.23 -20.23,52.93 0,73.15l224.41 224.37c10.09,10.09 23.33,15.16 36.58,15.16 13.24,0 26.48,-5.07 36.57,-15.16 20.23,-20.23 20.23,-52.92 0,-73.15l-224.41 -224.37c-20.23,-20.17 -52.98,-20.17 -73.15,0z"/>
   <path class="fil2" d="M3275.99 3907.89l-317.33 0c-28.6,0 -51.73,23.18 -51.73,51.74 0,28.55 23.13,51.73 51.73,51.73l317.33 0c28.61,0 51.73,-23.18 51.73,-51.73 0,-28.56 -23.12,-51.74 -51.73,-51.74z"/>
   <path class="fil2" d="M1672.29 3959.63c0,28.55 23.12,51.73 51.73,51.73l317.33 0c28.6,0 51.73,-23.18 51.73,-51.73 0,-28.56 -23.13,-51.74 -51.73,-51.74l-317.33 0c-28.61,0 -51.73,23.13 -51.73,51.74z"/>
   <path class="fil2" d="M3012.16 3374.32l-224.42 224.42c-20.23,20.23 -20.23,52.92 0,73.15 10.09,10.09 23.33,15.16 36.58,15.16 13.24,0 26.48,-5.07 36.57,-15.16l224.42 -224.42c20.22,-20.22 20.22,-52.92 0,-73.15 -20.23,-20.22 -52.98,-20.17 -73.15,0z"/>
   <path class="fil2" d="M1951.33 4560.03c13.24,0 26.49,-5.07 36.58,-15.16l224.41 -224.36c20.23,-20.23 20.23,-52.92 0,-73.15 -20.23,-20.23 -52.92,-20.23 -73.15,0l-224.41 224.36c-20.23,20.23 -20.23,52.93 0,73.15 10.08,10.09 23.33,15.16 36.57,15.16z"/>
  </g>
 </g>
</svg>
