<?xml version="1.0" encoding="UTF-8" standalone="no"?>
<svg width="256" height="256" viewBox="0 0 256 256" version="1.1" id="svg14" xml:space="preserve" xmlns="http://www.w3.org/2000/svg" xmlns:svg="http://www.w3.org/2000/svg"><defs id="defs2"><linearGradient id="bg" x1="0" y1="0" x2="256" y2="256" gradientUnits="userSpaceOnUse"><stop offset="0%" stop-color="#2c3e50" id="stop1" /><stop offset="100%" stop-color="#4ca1af" id="stop2" /></linearGradient></defs><!-- Hintergrund --><rect x="0" y="0" width="256" height="256" rx="40" fill="url(#bg)" id="rect2" style="fill:url(#bg)" /><!-- Datenpunkte --><g id="g16" transform="translate(-5.6420517,-4)"><rect x="42.403702" y="21.998047" width="30" height="30" rx="6" id="rect3" style="opacity:0.9;fill:white" /><rect x="82.403702" y="21.998047" width="142.4767" height="30" id="rect7-9" style="opacity:0.9;fill:white;stroke-width:1.05371" rx="6.3222833" /><rect x="42.403702" y="58.233414" width="30" height="30" rx="6" id="rect3-8" style="opacity:0.9;fill:white" /><rect x="82.403702" y="58.233414" width="142.4767" height="30" rx="6.3222833" id="rect7-9-2" style="opacity:0.9;fill:white;fill-opacity:1;stroke-width:1.05371" /><rect x="42.403702" y="94.468781" width="30" height="30" rx="6" id="rect3-5" style="opacity:0.9;fill:white" /><rect x="82.403702" y="94.468781" width="142.4767" height="30" rx="6.3222833" id="rect7-9-1" style="opacity:0.9;fill:white;fill-opacity:0.5;stroke-width:1.05371" /></g><g id="g18" transform="matrix(1.1304153,0,0,1.1304153,-30.735776,-18.061617)"><path style="fill:#0d4049;stroke-width:0.227137" d="m 193.04979,217.21126 c 2.18052,2.18052 3.08907,4.72446 5.08788,2.54394 l 36.70541,-36.5237 c 2.18052,-2.18052 -0.36342,-2.90736 -2.54394,-5.08788 l -11.08431,-3.27078 c -2.18052,-2.18052 -5.63301,-2.18052 -7.63182,0 l -23.804,23.804 c -2.18052,2.18052 -2.18052,5.63301 0,7.63182 z" id="path1" /><path style="fill:#073135;stroke-width:0.227137" d="m 193.04979,217.21126 c 2.18052,2.18052 3.08907,4.72446 5.08788,2.54394 l 36.70541,-36.5237 c 2.18052,-2.18052 -0.36342,-2.90736 -2.54394,-5.08788" id="path2" /><g id="g4" transform="matrix(-0.22713746,0,0,0.22713746,235.67622,107.82186)">
	<path style="fill:#c19a6b" d="m 187.668,331.2 c -6.4,6.4 -16,6.4 -22.4,0 v 0 c -6.4,-6.4 -6.4,-16 0,-22.4 l 304,-304 c 6.4,-6.4 16,-6.4 22.4,0 v 0 c 6.4,6.4 6.4,16 0,22.4 z" id="path3" />
	<path style="fill:#c19a6b" d="m 212.468,400.8 c -2.4,2.4 -7.2,2.4 -9.6,0 L 95.668,293.6 c -2.4,-2.4 -2.4,-7.2 0,-9.6 l 16.8,-16.8 c 2.4,-2.4 7.2,-2.4 9.6,0 l 106.4,106.4 c 2.4,2.4 2.4,7.2 0,9.6 z" id="path4" />
</g><path style="fill:#af895f;stroke-width:0.227137" d="m 183.78258,192.86213 c -0.54513,0.54512 -0.54513,1.63538 0,2.18051 l 3.81591,3.81591 c 0.54513,0.54513 1.63539,0.54513 2.18052,0 l 24.16742,-24.34913 c 0.54513,-0.54513 0.54513,-1.63539 0,-2.18052" id="path5" /></g><!-- BESEN (realistischer) --><!-- Checkmark --><!-- Text --><path d="M 66.247429,136.91536 112.18185,182.84977 222.42446,63.42029" stroke="#2ecc71" stroke-width="18.3738" fill="none" stroke-linecap="round" stroke-linejoin="round" id="path14" /><text xml:space="preserve" style="font-size:84.0845px;line-height:1.25;font-family:sans-serif;fill:white;fill-opacity:0.8;stroke-width:2.10211" x="37.016853" y="235.58179" id="text16"><tspan id="tspan16" x="37.016853" y="235.58179" style="font-style:normal;font-variant:normal;font-weight:500;font-stretch:normal;font-family:'Samsung Sharp Sans';-inkscape-font-specification:'Samsung Sharp Sans Medium';stroke-width:2.10211">T</tspan></text><text xml:space="preserve" style="font-size:53.4011px;line-height:1.25;font-family:sans-serif;fill:white;fill-opacity:0.8;stroke-width:1.33502" x="70.553688" y="235.58179" id="text16-5"><tspan id="tspan16-1" x="70.553688" y="235.58179" style="font-style:normal;font-variant:normal;font-weight:bold;font-stretch:normal;font-family:'Samsung Sharp Sans';-inkscape-font-specification:'Samsung Sharp Sans Bold';stroke-width:1.33502">idy</tspan></text></svg>
