<svg width="100" height="100" version="1.1" viewBox="0 0 26.458 26.458" xmlns="http://www.w3.org/2000/svg">
 <g fill="#ffffff" stroke="#ffffff" stroke-linecap="round" stroke-width=".3">
  <path d="m5.6162 5.4125h9.9891c0.35652 0.11121 0.14576 0.59069 0.20276 0.87689-0.01035 0.485 0.02087 0.97413-0.01588 1.4565-0.21946 0.23741-0.60948 0.076434-0.90595 0.12369h-9.27c-0.35652-0.11121-0.14577-0.59069-0.20276-0.87689 0.010353-0.485-0.020872-0.97413 0.015885-1.4565 0.030072-0.073761 0.10708-0.12497 0.18687-0.12369z"/>
  <path d="m10.813 9.8261h9.9891c0.35652 0.11121 0.14576 0.59069 0.20276 0.87689-0.01035 0.485 0.02087 0.97413-0.01589 1.4565-0.21946 0.23741-0.60948 0.07644-0.90595 0.12369h-9.27c-0.35652-0.11121-0.14576-0.59069-0.20276-0.87689 0.01035-0.485-0.02087-0.97413 0.01589-1.4565 0.03007-0.073761 0.10708-0.12497 0.18688-0.12369z"/>
  <path d="m5.6193 14.195h9.9891c0.35652 0.11121 0.14576 0.59069 0.20276 0.87689-0.01035 0.485 0.02087 0.97413-0.01588 1.4565-0.21946 0.23741-0.60948 0.07643-0.90595 0.12369h-9.27c-0.35652-0.11121-0.14576-0.59069-0.20276-0.87689 0.010353-0.485-0.020872-0.97413 0.015885-1.4565 0.030072-0.07376 0.10708-0.12497 0.18687-0.12369z"/>
  <path d="m10.845 18.582h9.9891c0.35652 0.11121 0.14576 0.59069 0.20276 0.87689-0.01035 0.485 0.02087 0.97413-0.01589 1.4565-0.21946 0.23741-0.60948 0.07644-0.90595 0.12369h-9.27c-0.35652-0.11121-0.14576-0.59069-0.20276-0.87689 0.01035-0.485-0.02087-0.97413 0.01589-1.4565 0.03007-0.07376 0.10708-0.12497 0.18688-0.12369z"/>
 </g>
</svg>
