<svg xmlns="http://www.w3.org/2000/svg" viewBox="0 0 500 500"
     style="shape-rendering:geometricPrecision;text-rendering:geometricPrecision;image-rendering:optimizeQuality;fill-rule:evenodd;clip-rule:evenodd">
    <path style="opacity:.968" fill="#00488a"
          d="M225.5 73.5a1991.638 1991.638 0 0 0 36.5 39A2586.412 2586.412 0 0 0 319.5 52c1.135-.75 2.135-.583 3 .5a3196.588 3196.588 0 0 0 19 20 1991.638 1991.638 0 0 0 36.5 39c19.355-20.021 38.689-40.021 58-60a5554.918 5554.918 0 0 1 61.5 64 437.788 437.788 0 0 0-24 26c-.667 0-1 .333-1 1-.667 0-1 .333-1 1-.667 0-1 .333-1 1-.667 0-1 .333-1 1-.667 0-1 .333-1 1a895.415 895.415 0 0 1-25 25.5c-1 .667-2 .667-3 0L389 118.5 257.5 254A13254.996 13254.996 0 0 0 393 392.5a1793.722 1793.722 0 0 0 50-51 4448.817 4448.817 0 0 0 56.5 56v3a2.428 2.428 0 0 0-2 .5L438 458.5a4485.637 4485.637 0 0 0-56.5-56 4634.59 4634.59 0 0 0-58.5 56 1729.434 1729.434 0 0 1-57.5-57 4797.512 4797.512 0 0 0-59.5 57 939.716 939.716 0 0 1-37-36L8 257.5c-.667-.667-.667-1.333 0-2A27930.616 27930.616 0 0 0 202.5 52c.667-.667 1.333-.667 2 0a213.319 213.319 0 0 0 21 21.5zm-34 112c.065-.438-.101-.772-.5-1l-3.5 3.5c.228.399.562.565 1 .5a1133.402 1133.402 0 0 1-39 41c.065-.438-.101-.772-.5-1l-4.5 4.5c.228.399.562.565 1 .5a338.954 338.954 0 0 1-21 23 5111.046 5111.046 0 0 1 84 86 179.371 179.371 0 0 1-22 23 940.756 940.756 0 0 0-25 26.5c-.667.667-1.333.667-2 0A31008.382 31008.382 0 0 1 26 255.5c-.667-.667-.667-1.333 0-2a1081.654 1081.654 0 0 0 27.5-28c-.065.438.101.772.5 1l7.5-7.5c-.228-.399-.562-.565-1-.5 10.36-10.693 20.694-21.36 31-32-.065.438.101.772.5 1l3.5-3.5c-.228-.399-.562-.565-1-.5a5706.544 5706.544 0 0 1 62.5-65 899.792 899.792 0 0 0 49.5 51.5 110.008 110.008 0 0 1-15 15.5zm50 73a624936.66 624936.66 0 0 0 39 40c13.306 13.64 26.639 27.307 40 41-.438-.065-.772.101-1 .5l2.5 2.5c.399-.228.565-.562.5-1a10.515 10.515 0 0 1 3 2.5 3159.898 3159.898 0 0 0-47 47.5c-.333-1.333-.667-1.333-1 0a26012.254 26012.254 0 0 1-134.5-136c-.667-.667-.667-1.333 0-2a1328.752 1328.752 0 0 0 30.5-31c-.065.438.101.772.5 1l4.5-4.5c-.228-.399-.562-.565-1-.5a13680.53 13680.53 0 0 0 96.5-100 3493.628 3493.628 0 0 1 48.5 51 3258.375 3258.375 0 0 1-81.5 85c-.579 1.428-.412 2.762.5 4z"/>
</svg>