<svg width="32" height="32" viewBox="0 0 32 32" fill="none" xmlns="http://www.w3.org/2000/svg">
    <path d="M3.93597 31.8125C3.93597 31.8341 3.91848 31.8516 3.89691 31.8516V31.8516C1.8738 31.8516 0.232941 30.2116 0.232845 28.1885V28.0429C0.232845 27.79 0.437858 27.585 0.690753 27.585H3.47806C3.73096 27.585 3.93597 27.79 3.93597 28.0429V31.8125ZM8.17132 27.585C8.42414 27.585 8.62932 27.7901 8.62933 28.043V31.3936C8.62933 31.6464 8.42415 31.8515 8.17132 31.8516H4.93792C4.68503 31.8516 4.47992 31.6465 4.47992 31.3936V28.043C4.47993 27.7901 4.68503 27.585 4.93792 27.585H8.17132ZM13.2944 27.6562C13.5472 27.6563 13.7524 27.8614 13.7524 28.1143V31.3936C13.7524 31.6464 13.5472 31.8515 13.2944 31.8516H9.9887C9.73581 31.8516 9.5307 31.6465 9.5307 31.3936V28.1143C9.5307 27.8614 9.73581 27.6562 9.9887 27.6562H13.2944ZM18.0512 27.585C18.304 27.585 18.5092 27.7901 18.5092 28.043V31.3936C18.5092 31.6464 18.304 31.8515 18.0512 31.8516H14.77C14.5172 31.8514 14.3129 31.6463 14.3129 31.3936V28.043C14.3129 27.7902 14.5172 27.5852 14.77 27.585H18.0512ZM22.9916 27.585C23.2443 27.5852 23.4496 27.7902 23.4496 28.043V31.3936C23.4496 31.6463 23.2444 31.8514 22.9916 31.8516H19.7192C19.4663 31.8516 19.2612 31.6465 19.2612 31.3936V28.043C19.2612 27.7901 19.4663 27.585 19.7192 27.585H22.9916ZM27.5991 25.498C27.8519 25.4981 28.0571 25.7032 28.0571 25.9561V28.7979C28.057 29.0506 27.8519 29.2558 27.5991 29.2559H24.8129C24.5601 29.2559 24.355 29.0507 24.3549 28.7979V25.9561C24.3549 25.7032 24.56 25.498 24.8129 25.498H27.5991ZM31.7748 23.7578C32.0277 23.7578 32.2328 23.9629 32.2328 24.2158V26.8711C32.2328 27.124 32.0277 27.3291 31.7748 27.3291H28.9887C28.7358 27.3291 28.5307 27.124 28.5307 26.8711V24.2158C28.5307 23.9629 28.7358 23.7578 28.9887 23.7578H31.7748ZM13.5688 26.004C13.5688 26.2569 13.3638 26.4619 13.1109 26.4619H10.3245C10.0716 26.4619 9.86663 26.2569 9.86663 26.004V22.6532C9.86663 22.4003 10.0716 22.1953 10.3245 22.1953H13.1109C13.3638 22.1953 13.5688 22.4003 13.5688 22.6532V26.004ZM18.5092 26.004C18.5092 26.2569 18.3042 26.4619 18.0513 26.4619H15.265C15.0121 26.4619 14.8071 26.2569 14.8071 26.004V22.6532C14.8071 22.4003 15.0121 22.1953 15.265 22.1953H18.0513C18.3042 22.1953 18.5092 22.4003 18.5092 22.6532V26.004ZM22.9907 22.1953C23.2436 22.1953 23.4487 22.4004 23.4487 22.6533V26.0039C23.4487 26.2568 23.2435 26.4619 22.9907 26.4619H20.2045C19.9517 26.4618 19.7465 26.2567 19.7465 26.0039V22.6533C19.7465 22.4005 19.9517 22.1954 20.2045 22.1953H22.9907ZM8.17132 22.0781C8.42419 22.0782 8.62933 22.2833 8.62933 22.5361V25.8867C8.62932 26.1396 8.42419 26.3447 8.17132 26.3447H5.38519C5.1323 26.3447 4.92719 26.1396 4.92718 25.8867V22.5361C4.92718 22.2832 5.13229 22.0781 5.38519 22.0781H8.17132ZM3.93499 25.8478C3.93499 26.1007 3.72998 26.3057 3.47709 26.3057H0.690753C0.437858 26.3057 0.232845 26.1007 0.232845 25.8478V22.497C0.232845 22.2441 0.437858 22.0391 0.690753 22.0391H3.47709C3.72998 22.0391 3.93499 22.2441 3.93499 22.497V25.8478ZM27.4389 19.8672C27.6918 19.8672 27.8969 20.0723 27.8969 20.3252V23.1357C27.8969 23.3886 27.6918 23.5937 27.4389 23.5938H24.6528C24.3999 23.5938 24.1948 23.3886 24.1948 23.1357V20.3252C24.1948 20.0723 24.3999 19.8672 24.6528 19.8672H27.4389ZM13.5688 20.504C13.5688 20.7569 13.3638 20.9619 13.1109 20.9619H10.3245C10.0716 20.9619 9.86663 20.7569 9.86663 20.504V17.1532C9.86663 16.9003 10.0716 16.6953 10.3245 16.6953H13.1109C13.3638 16.6953 13.5688 16.9003 13.5688 17.1532V20.504ZM18.5092 20.504C18.5092 20.7569 18.3042 20.9619 18.0513 20.9619H15.265C15.0121 20.9619 14.8071 20.7569 14.8071 20.504V17.1532C14.8071 16.9003 15.0121 16.6953 15.265 16.6953H18.0513C18.3042 16.6953 18.5092 16.9003 18.5092 17.1532V20.504ZM23.4487 20.504C23.4487 20.7569 23.2437 20.9619 22.9908 20.9619H20.2044C19.9515 20.9619 19.7465 20.7569 19.7465 20.504V17.1532C19.7465 16.9003 19.9515 16.6953 20.2044 16.6953H22.9908C23.2437 16.6953 23.4487 16.9003 23.4487 17.1532V20.504ZM8.62933 20.4024C8.62933 20.6553 8.42432 20.8604 8.17142 20.8604H5.38509C5.13219 20.8604 4.92718 20.6553 4.92718 20.4024V17.0517C4.92718 16.7988 5.13219 16.5938 5.38509 16.5938H8.17142C8.42432 16.5938 8.62933 16.7988 8.62933 17.0517V20.4024ZM3.93499 20.2931C3.93499 20.546 3.72998 20.751 3.47709 20.751H0.690753C0.437858 20.751 0.232845 20.546 0.232845 20.2931V16.9423C0.232845 16.6894 0.437858 16.4844 0.690753 16.4844H3.47709C3.72998 16.4844 3.93499 16.6894 3.93499 16.9423V20.2931ZM27.4389 13.4609C27.6918 13.461 27.8969 13.6661 27.8969 13.9189V17.2695C27.8969 17.5224 27.6918 17.7275 27.4389 17.7275H24.0073C23.7545 17.7273 23.5502 17.5223 23.5502 17.2695V13.9189C23.5502 13.6662 23.7545 13.4611 24.0073 13.4609H27.4389ZM31.7748 11.9766C32.0277 11.9766 32.2328 12.1817 32.2328 12.4346V15.2061C32.2328 15.459 32.0277 15.6641 31.7748 15.6641H28.9887C28.7358 15.6641 28.5307 15.459 28.5307 15.2061V12.4346C28.5307 12.1817 28.7358 11.9766 28.9887 11.9766H31.7748ZM13.5688 15.0196C13.5688 15.2725 13.3638 15.4775 13.1109 15.4775H10.3245C10.0716 15.4775 9.86663 15.2725 9.86663 15.0196V11.6688C9.86663 11.4159 10.0716 11.2109 10.3245 11.2109H13.1109C13.3638 11.2109 13.5688 11.4159 13.5688 11.6688V15.0196ZM18.5092 15.0196C18.5092 15.2725 18.3042 15.4775 18.0513 15.4775H15.265C15.0121 15.4775 14.8071 15.2725 14.8071 15.0196V11.6688C14.8071 11.4159 15.0121 11.2109 15.265 11.2109H18.0513C18.3042 11.2109 18.5092 11.4159 18.5092 11.6688V15.0196ZM23.4487 15.0196C23.4487 15.2725 23.2437 15.4775 22.9908 15.4775H20.2044C19.9515 15.4775 19.7465 15.2725 19.7465 15.0196V11.6688C19.7465 11.4159 19.9515 11.2109 20.2044 11.2109H22.9908C23.2437 11.2109 23.4487 11.4159 23.4487 11.6688V15.0196ZM8.62933 14.8946C8.62933 15.1475 8.42432 15.3525 8.17142 15.3525H5.38509C5.13219 15.3525 4.92718 15.1475 4.92718 14.8946V11.5438C4.92718 11.2909 5.13219 11.0859 5.38509 11.0859H8.17142C8.42432 11.0859 8.62933 11.2909 8.62933 11.5438V14.8946ZM3.93499 14.7462C3.93499 14.9991 3.72998 15.2041 3.47709 15.2041H0.690753C0.437858 15.2041 0.232845 14.9991 0.232845 14.7462V11.3954C0.232845 11.1425 0.437858 10.9375 0.690753 10.9375H3.47709C3.72998 10.9375 3.93499 11.1425 3.93499 11.3954V14.7462ZM27.4389 7.96875C27.6918 7.96878 27.8969 8.17388 27.8969 8.42676V11.2373C27.8969 11.4902 27.6918 11.6953 27.4389 11.6953H24.6528C24.3999 11.6953 24.1948 11.4902 24.1948 11.2373V8.42676C24.1948 8.17386 24.3999 7.96875 24.6528 7.96875H27.4389ZM31.7748 6.32812C32.0277 6.32812 32.2328 6.53324 32.2328 6.78613V9.64453C32.2328 9.89742 32.0277 10.1025 31.7748 10.1025H28.975C28.7221 10.1025 28.517 9.89742 28.517 9.64453V6.78613C28.517 6.53324 28.7221 6.32812 28.975 6.32812H31.7748ZM13.5688 9.51182C13.5688 9.76471 13.3638 9.96973 13.1109 9.96973H10.3245C10.0716 9.96973 9.86663 9.76471 9.86663 9.51182V6.16103C9.86663 5.90814 10.0716 5.70312 10.3245 5.70312H13.1109C13.3638 5.70312 13.5688 5.90814 13.5688 6.16103V9.51182ZM18.5092 9.51182C18.5092 9.76471 18.3042 9.96973 18.0513 9.96973H15.265C15.0121 9.96973 14.8071 9.76471 14.8071 9.51182V6.16103C14.8071 5.90814 15.0121 5.70312 15.265 5.70312H18.0513C18.3042 5.70312 18.5092 5.90814 18.5092 6.16103V9.51182ZM22.9907 5.70312C23.2436 5.70312 23.4487 5.90824 23.4487 6.16113V9.51172C23.4487 9.7646 23.2435 9.96973 22.9907 9.96973H20.2045C19.9517 9.96965 19.7465 9.76456 19.7465 9.51172V6.16113C19.7465 5.90829 19.9517 5.7032 20.2045 5.70312H22.9907ZM8.17132 5.59375C8.42419 5.59378 8.62933 5.79888 8.62933 6.05176V9.40234C8.62932 9.65521 8.42419 9.86032 8.17132 9.86035H5.38519C5.1323 9.86035 4.92719 9.65523 4.92718 9.40234V6.05176C4.92718 5.79886 5.13229 5.59375 5.38519 5.59375H8.17132ZM3.93499 9.20713C3.93499 9.46003 3.72998 9.66504 3.47709 9.66504H0.690753C0.437858 9.66504 0.232845 9.46003 0.232845 9.20713V5.85635C0.232845 5.60345 0.437858 5.39844 0.690753 5.39844H3.47709C3.72998 5.39844 3.93499 5.60345 3.93499 5.85635V9.20713ZM27.7319 2.10938C27.9848 2.10938 28.1899 2.31449 28.1899 2.56738V5.91797C28.1899 6.17085 27.9848 6.37598 27.7319 6.37598H24.4067C24.1539 6.3759 23.9487 6.17081 23.9487 5.91797V2.56738C23.9487 2.31454 24.1538 2.10945 24.4067 2.10938H27.7319ZM22.8373 0.3125C23.0901 0.31271 23.2953 0.517742 23.2953 0.770508V4.12109C23.2953 4.37385 23.09 4.57889 22.8373 4.5791H19.4897C19.2368 4.5791 19.0317 4.37398 19.0317 4.12109V0.770508C19.0317 0.517612 19.2368 0.3125 19.4897 0.3125H22.8373ZM13.1108 0.203125C13.3637 0.203125 13.5688 0.408237 13.5688 0.661133V4.01172C13.5688 4.2646 13.3637 4.46973 13.1108 4.46973H9.86859C9.6157 4.46973 9.41059 4.2646 9.41058 4.01172V0.661133C9.41058 0.408237 9.61569 0.203125 9.86859 0.203125H13.1108ZM18.0512 0.203125C18.3041 0.203153 18.5092 0.408254 18.5092 0.661133V4.01172C18.5092 4.26459 18.3041 4.4697 18.0512 4.46973H14.8354C14.5825 4.46973 14.3774 4.2646 14.3774 4.01172V0.661133C14.3774 0.408237 14.5825 0.203125 14.8354 0.203125H18.0512ZM8.17132 0.09375C8.42419 0.0937776 8.62933 0.298879 8.62933 0.551758V3.90234C8.62932 4.15521 8.42419 4.36032 8.17132 4.36035H4.90081C4.6481 4.36014 4.44379 4.1551 4.44378 3.90234V0.551758C4.44378 0.298992 4.6481 0.0939597 4.90081 0.09375H8.17132ZM4.24359 3.65147C4.24359 3.90436 4.03858 4.10938 3.78568 4.10938H0.460384C0.334718 4.10938 0.232845 4.0075 0.232845 3.88184V3.88184C0.232925 1.85888 1.87301 0.218977 3.89593 0.21875V0.21875C4.08794 0.21875 4.24359 0.374401 4.24359 0.566406V3.65147Z"
          fill="url(#paint0_linear_904_3035)"/>
    <rect width="31.864" height="32.1053" rx="3.66326"
          transform="matrix(-0.0033619 -0.999994 0.999994 -0.00338204 0.233089 31.9609)"
          fill="url(#paint1_linear_904_3035)"/>
    <ellipse cx="10.131" cy="10.1008" rx="10.131" ry="10.1008"
             transform="matrix(-0.0033619 -0.999994 0.999994 -0.00338204 6.30096 26.2891)" fill="white"/>
    <circle cx="11.7609" cy="15.8359" r="1.5" fill="#0C4D94"/>
    <path d="M22.2609 15.8359C22.2609 16.6644 21.5893 17.3359 20.7609 17.3359C19.9325 17.3359 19.2609 16.6644 19.2609 15.8359C19.2609 15.0075 19.9325 14.3359 20.7609 14.3359C21.5893 14.3359 22.2609 15.0075 22.2609 15.8359Z"
          fill="#0C4D94"/>
    <defs>
        <linearGradient id="paint0_linear_904_3035" x1="35.8342" y1="14.8821" x2="0.23233" y2="14.646"
                        gradientUnits="userSpaceOnUse">
            <stop offset="0.192308" stop-color="#0C4D94"/>
            <stop offset="1" stop-color="#0C4D94" stop-opacity="0"/>
        </linearGradient>
        <linearGradient id="paint1_linear_904_3035" x1="15.9833" y1="0.716273" x2="15.8825" y2="30.4018"
                        gradientUnits="userSpaceOnUse">
            <stop offset="0.105769" stop-color="#0C4D94"/>
            <stop offset="0.350962" stop-color="#0C4D94" stop-opacity="0.7"/>
            <stop offset="0.701923" stop-color="#0C4D94" stop-opacity="0"/>
            <stop offset="1" stop-color="#0C4D94" stop-opacity="0"/>
        </linearGradient>
    </defs>
</svg>
