<svg width="51" height="54" viewBox="0 0 51 54" fill="none" xmlns="http://www.w3.org/2000/svg">
<path d="M10.32 34.994C10.32 33.2193 10.7307 31.7747 11.552 30.66C12.3733 29.5307 13.444 28.6947 14.764 28.152C16.0987 27.6093 17.5213 27.338 19.032 27.338C19.692 27.338 20.5207 27.3527 21.518 27.382C22.53 27.4113 23.4393 27.5067 24.246 27.668V32.024C23.6153 31.8773 22.8527 31.7967 21.958 31.782C21.078 31.7527 20.3447 31.738 19.758 31.738C18.7753 31.738 18.0713 32.002 17.646 32.53C17.2207 33.0433 17.008 33.7107 17.008 34.532C17.008 35.1187 17.184 35.61 17.536 36.006C17.9027 36.3873 18.4013 36.578 19.032 36.578C19.912 36.578 20.8067 36.2627 21.716 35.632C22.6253 35.0013 23.3953 34.136 24.026 33.036L24.994 37.392C24.422 38.0667 23.7693 38.734 23.036 39.394C22.3027 40.0393 21.4447 40.5747 20.462 41C19.4793 41.4253 18.328 41.638 17.008 41.638C15.4973 41.638 14.2433 41.308 13.246 40.648C12.2633 39.9733 11.53 39.13 11.046 38.118C10.562 37.0913 10.32 36.05 10.32 34.994ZM30.274 37.81C30.1567 38.426 29.8853 39.086 29.46 39.79C29.0347 40.494 28.6093 41.0147 28.184 41.352C26.8933 41.3227 25.8227 41.0293 24.972 40.472C24.136 39.9147 23.4907 39.2327 23.036 38.426C22.596 37.6047 22.31 36.8053 22.178 36.028V26.612C22.178 25.7027 21.9433 25.0133 21.474 24.544C21.0193 24.06 20.2933 23.818 19.296 23.818C18.3573 23.818 17.3307 23.972 16.216 24.28C15.1013 24.5733 13.9647 24.8887 12.806 25.226C12.322 24.6687 11.9407 23.95 11.662 23.07C11.398 22.1753 11.2293 21.3027 11.156 20.452C12.1533 20.0413 13.2533 19.6967 14.456 19.418C15.6587 19.1247 16.854 18.9047 18.042 18.758C19.23 18.5967 20.2933 18.516 21.232 18.516C22.5227 18.516 23.762 18.758 24.95 19.242C26.138 19.7113 27.1133 20.496 27.876 21.596C28.6533 22.6813 29.042 24.1553 29.042 26.018V34.972C29.042 35.6027 29.1447 36.16 29.35 36.644C29.5553 37.128 29.8633 37.5167 30.274 37.81Z" fill="#005894"/>
<path fill-rule="evenodd" clip-rule="evenodd" d="M42.483 45.1774C37.3534 49.3116 29.8923 51.5139 23.457 51.5139C14.4415 51.5139 6.35861 47.8882 0.203157 41.8568C-0.263158 41.3825 0.141012 40.7386 0.731615 41.1113C7.35338 45.313 15.5296 47.8205 23.9855 47.8205C29.6746 47.8205 35.9544 46.5329 41.7368 43.8559C42.607 43.4832 43.3223 44.4998 42.483 45.1774Z" fill="#1D90CA"/>
<path fill-rule="evenodd" clip-rule="evenodd" d="M46.4209 41.2544C45.3628 40.0655 39.3651 40.6819 36.6941 40.9902C35.8877 41.0782 35.7365 40.4618 36.4925 40.0214C41.2803 37.0709 49.092 37.9516 49.9992 38.9204C50.9063 39.8893 49.7472 46.7585 45.261 50.0177C44.5556 50.502 43.9003 50.2378 44.203 49.5773C45.2113 47.3754 47.4792 42.4871 46.4209 41.2544Z" fill="#1D90CA"/>
</svg>
