<svg width="163" height="176" viewBox="0 0 163 176" fill="none" xmlns="http://www.w3.org/2000/svg">
<path d="M33.4521 114.532C33.4521 108.779 34.7833 104.096 37.4456 100.483C40.1079 96.8224 43.5785 94.1125 47.8572 92.3535C52.1835 90.5945 56.7951 89.7149 61.6918 89.7149C63.8312 89.7149 66.5173 89.7625 69.7502 89.8576C73.0305 89.9526 75.9781 90.2617 78.5929 90.7846V104.904C76.5486 104.429 74.0765 104.168 71.1764 104.12C68.3239 104.025 65.9468 103.977 64.0452 103.977C60.8599 103.977 58.5779 104.833 57.1992 106.545C55.8204 108.209 55.1311 110.372 55.1311 113.034C55.1311 114.936 55.7016 116.528 56.8426 117.812C58.0311 119.048 59.6476 119.666 61.6918 119.666C64.5443 119.666 67.4444 118.644 70.392 116.6C73.3396 114.555 75.8355 111.75 77.8798 108.185L81.0175 122.305C79.1634 124.492 77.0478 126.655 74.6707 128.794C72.2936 130.886 69.5124 132.621 66.3272 134C63.1419 135.379 59.4098 136.068 55.1311 136.068C50.2343 136.068 46.1695 134.998 42.9367 132.859C39.7514 130.672 37.3743 127.938 35.8054 124.658C34.2365 121.33 33.4521 117.955 33.4521 114.532ZM98.1325 123.66C97.7522 125.656 96.8727 127.796 95.494 130.078C94.1153 132.36 92.7366 134.048 91.3578 135.141C87.1742 135.046 83.7036 134.095 80.9462 132.288C78.2363 130.482 76.1445 128.271 74.6707 125.656C73.2445 122.994 72.3174 120.403 71.8895 117.883V87.3616C71.8895 84.414 71.1289 82.1796 69.6075 80.6582C68.1337 79.0894 65.7804 78.3049 62.5476 78.3049C59.5049 78.3049 56.177 78.8041 52.5638 79.8025C48.9507 80.7533 45.2662 81.7755 41.5104 82.8689C39.9415 81.0623 38.7054 78.7328 37.8022 75.8803C36.9464 72.9803 36.3997 70.1515 36.162 67.3941C39.3948 66.0629 42.9604 64.9457 46.8588 64.0424C50.7573 63.0916 54.6319 62.3785 58.4828 61.9031C62.3337 61.3801 65.7804 61.1186 68.8231 61.1186C73.0068 61.1186 77.024 61.9031 80.8749 63.4719C84.7258 64.9933 87.8873 67.5367 90.3595 71.1024C92.8792 74.6204 94.139 79.3984 94.139 85.4362V114.46C94.139 116.505 94.4718 118.311 95.1374 119.88C95.803 121.449 96.8014 122.709 98.1325 123.66Z" fill="white"/>
<path fill-rule="evenodd" clip-rule="evenodd" d="M137.708 146.443C121.08 159.844 96.8952 166.983 76.0355 166.983C46.8117 166.983 20.6113 155.23 0.658529 135.68C-0.85302 134.142 0.457088 132.055 2.37151 133.263C23.8358 146.883 50.3388 155.011 77.7485 155.011C96.1897 155.011 116.545 150.837 135.289 142.16C138.11 140.952 140.428 144.247 137.708 146.443Z" fill="white"/>
<path fill-rule="evenodd" clip-rule="evenodd" d="M150.472 133.725C147.042 129.871 127.601 131.869 118.943 132.869C116.329 133.154 115.839 131.156 118.29 129.728C133.809 120.164 159.131 123.019 162.071 126.159C165.012 129.3 161.254 151.566 146.712 162.131C144.426 163.701 142.302 162.844 143.283 160.703C146.551 153.566 153.903 137.721 150.472 133.725Z" fill="white"/>
</svg>
