<?xml version="1.0" encoding="utf-8"?>
<!-- Generator: Adobe Illustrator 24.0.0, SVG Export Plug-In . SVG Version: 6.00 Build 0)  -->
<svg version="1.1" id="Layer_1" xmlns="http://www.w3.org/2000/svg" xmlns:xlink="http://www.w3.org/1999/xlink" x="0px" y="0px"
	 viewBox="0 0 512 512" style="enable-background:new 0 0 512 512;" xml:space="preserve">
<path d="M393,385.3h-12.1c-4.1,0-7.3-3.3-7.3-7.3V215.3c0-4.1,3.3-7.3,7.3-7.3H393c4.1,0,7.3,3.3,7.3,7.3V378
	C400.4,382,397.1,385.3,393,385.3z"/>
<path d="M391.2,200h-8.4c-5.1,0-9.2-4.1-9.2-9.2v-5.2c0-5.1,4.1-9.2,9.2-9.2h8.4c5.1,0,9.2,4.1,9.2,9.2v5.2
	C400.4,195.9,396.3,200,391.2,200z"/>
<path d="M410,177v23.4c50.7,11.7,87,61.2,77.6,117.2c-7,41.7-39.6,74.9-81.2,82.5c-64.9,11.9-121.5-37.6-121.5-100.3
	c0-48.5,33.8-89,79.1-99.5V177c-59,11-103.4,63.4-102,125.9c1.6,67.2,56.8,121.5,124.1,122c69.5,0.5,125.9-55.7,125.9-125
	C512,238.7,468.1,187.8,410,177z"/>
<g>
	<path d="M290.6,72.4c-6.3,0-11.3,5.1-11.3,11.3c0,6.3,5.1,11.3,11.3,11.3c17.2,0,31.2,14,31.2,31.2c0,6.3,5.1,11.3,11.3,11.3
		s11.3-5.1,11.3-11.3C344.5,96.5,320.3,72.4,290.6,72.4z"/>
	<path d="M290.6,29.9c-6.3,0-11.3,5.1-11.3,11.3s5.1,11.3,11.3,11.3c40.6,0,73.7,33,73.7,73.7c0,6.3,5.1,11.3,11.3,11.3
		s11.3-5.1,11.3-11.3C387,73.1,343.8,29.9,290.6,29.9z"/>
	<circle cx="290.6" cy="126.2" r="11.3"/>
	<path d="M199.6,29.9H41.7C18.6,29.9,0,48.5,0,71.6v303.6c0,23.1,18.7,41.7,41.7,41.7h157.9c23.1,0,41.7-18.7,41.7-41.7V71.6
		C241.3,48.5,222.6,29.9,199.6,29.9L199.6,29.9z M162.4,52.6c-3,5.8-4.6,12.3-4.6,19c0,3.8-3.1,6.9-6.9,6.9H90.3
		c-3.8,0-6.9-3.1-6.9-6.9c0-6.7-1.6-13.2-4.6-19L162.4,52.6L162.4,52.6z M199.6,394.2H41.7c-10.5,0-19-8.5-19-19V71.6
		c0-10.5,8.5-19,19-19s19,8.5,19,19c0,16.3,13.3,29.6,29.6,29.6H151c16.3,0,29.6-13.2,29.6-29.6c0-10.5,8.5-19,19-19
		c10.5,0,19,8.5,19,19l0,303.6C218.6,385.7,210.1,394.2,199.6,394.2z"/>
</g>
</svg>
