<svg width="470" height="119" viewBox="0 0 470 119" fill="none" xmlns="http://www.w3.org/2000/svg">
<path d="M18.8477 17.377H6.15234V5.90234H18.8477V17.377ZM18.8477 81H6.15234V28.2168H18.8477V81ZM85.4766 63.1777C85.4766 65.3587 85.1999 67.3281 84.6465 69.0859C84.0931 70.8112 83.3607 72.3411 82.4492 73.6758C81.5378 74.9779 80.4798 76.1009 79.2754 77.0449C78.071 77.9564 76.8014 78.7051 75.4668 79.291C74.1647 79.877 72.8301 80.3164 71.4629 80.6094C70.1283 80.8698 68.8587 81 67.6543 81H44.7539C42.9961 81 41.0755 80.6908 38.9922 80.0723C36.9089 79.4538 34.972 78.4447 33.1816 77.0449C31.4238 75.6126 29.9427 73.7734 28.7383 71.5273C27.5664 69.2487 26.9805 66.4655 26.9805 63.1777V45.9902C26.9805 42.735 27.5664 39.9844 28.7383 37.7383C29.9427 35.4596 31.4238 33.6204 33.1816 32.2207C34.972 30.7884 36.9089 29.763 38.9922 29.1445C41.0755 28.526 42.9961 28.2168 44.7539 28.2168H67.6543C70.9095 28.2168 73.6764 28.8027 75.9551 29.9746C78.2337 31.1465 80.0729 32.6276 81.4727 34.418C82.8724 36.1758 83.8815 38.0964 84.5 40.1797C85.151 42.263 85.4766 44.1999 85.4766 45.9902V63.1777ZM72.7812 46.0879C72.7812 44.3301 72.3418 43.028 71.4629 42.1816C70.584 41.3353 69.3145 40.9121 67.6543 40.9121H44.8516C43.1589 40.9121 41.873 41.3516 40.9941 42.2305C40.1152 43.0768 39.6758 44.3301 39.6758 45.9902V63.1777C39.6758 64.8379 40.1152 66.1074 40.9941 66.9863C41.873 67.8652 43.1589 68.3047 44.8516 68.3047H67.6543C69.3796 68.3047 70.6654 67.8652 71.5117 66.9863C72.3581 66.1074 72.7812 64.8379 72.7812 63.1777V46.0879ZM164.605 65.6191C164.605 67.1816 164.329 68.8581 163.775 70.6484C163.255 72.4388 162.376 74.099 161.139 75.6289C159.934 77.1589 158.355 78.4447 156.402 79.4863C154.449 80.4954 152.057 81 149.225 81H101.031C100.12 81 99.2734 80.8372 98.4922 80.5117C97.7109 80.1862 97.0273 79.7467 96.4414 79.1934C95.888 78.6074 95.4486 77.9238 95.123 77.1426C94.7975 76.3613 94.6348 75.515 94.6348 74.6035V17.377C94.6348 16.498 94.7975 15.668 95.123 14.8867C95.4486 14.1055 95.888 13.4219 96.4414 12.8359C97.0273 12.25 97.7109 11.7943 98.4922 11.4688C99.2734 11.1432 100.12 10.9805 101.031 10.9805H143.512C145.074 10.9805 146.751 11.2572 148.541 11.8105C150.331 12.3639 151.992 13.2591 153.521 14.4961C155.084 15.7005 156.37 17.2793 157.379 19.2324C158.421 21.1855 158.941 23.5781 158.941 26.4102V28.8027C158.941 31.0488 158.567 33.474 157.818 36.0781C157.07 38.6497 155.865 41.0911 154.205 43.4023C155.637 44.2812 156.972 45.3392 158.209 46.5762C159.479 47.8132 160.585 49.2454 161.529 50.873C162.473 52.5007 163.222 54.3398 163.775 56.3906C164.329 58.4414 164.605 60.7038 164.605 63.1777V65.6191ZM151.91 63.1777C151.91 61.5176 151.65 60.0365 151.129 58.7344C150.608 57.3997 149.876 56.2604 148.932 55.3164C147.988 54.3724 146.848 53.6562 145.514 53.168C144.179 52.6471 142.682 52.3867 141.021 52.3867H112.408V39.5938H135.309C136.969 39.5938 138.466 39.3496 139.801 38.8613C141.135 38.3405 142.275 37.6081 143.219 36.6641C144.163 35.7201 144.879 34.597 145.367 33.2949C145.888 31.9603 146.148 30.4629 146.148 28.8027V26.4102C146.148 24.5872 145.27 23.6758 143.512 23.6758H107.33V68.3047H149.225C149.452 68.3047 149.729 68.2884 150.055 68.2559C150.38 68.2233 150.673 68.1257 150.934 67.9629C151.194 67.8001 151.422 67.5234 151.617 67.1328C151.812 66.7422 151.91 66.2051 151.91 65.5215V63.1777ZM217.465 40.9121H188.9C187.175 40.9121 185.873 41.3516 184.994 42.2305C184.115 43.0768 183.676 44.3301 183.676 45.9902V81H170.98V45.9902C170.98 43.8092 171.257 41.8561 171.811 40.1309C172.364 38.4056 173.096 36.8919 174.008 35.5898C174.952 34.2552 176.026 33.1322 177.23 32.2207C178.435 31.2767 179.688 30.5117 180.99 29.9258C182.325 29.3398 183.66 28.9167 184.994 28.6562C186.361 28.3633 187.631 28.2168 188.803 28.2168H217.465V40.9121ZM280.09 63.1777C280.09 65.3587 279.813 67.3281 279.26 69.0859C278.706 70.8112 277.974 72.3411 277.062 73.6758C276.151 74.9779 275.093 76.1009 273.889 77.0449C272.684 77.9564 271.415 78.7051 270.08 79.291C268.778 79.877 267.443 80.3164 266.076 80.6094C264.742 80.8698 263.472 81 262.268 81H239.367C237.609 81 235.689 80.6908 233.605 80.0723C231.522 79.4538 229.585 78.4447 227.795 77.0449C226.037 75.6126 224.556 73.7734 223.352 71.5273C222.18 69.2487 221.594 66.4655 221.594 63.1777V45.9902C221.594 42.735 222.18 39.9844 223.352 37.7383C224.556 35.4596 226.037 33.6204 227.795 32.2207C229.585 30.7884 231.522 29.763 233.605 29.1445C235.689 28.526 237.609 28.2168 239.367 28.2168H262.268C265.523 28.2168 268.29 28.8027 270.568 29.9746C272.847 31.1465 274.686 32.6276 276.086 34.418C277.486 36.1758 278.495 38.0964 279.113 40.1797C279.764 42.263 280.09 44.1999 280.09 45.9902V63.1777ZM267.395 46.0879C267.395 44.3301 266.955 43.028 266.076 42.1816C265.197 41.3353 263.928 40.9121 262.268 40.9121H239.465C237.772 40.9121 236.486 41.3516 235.607 42.2305C234.729 43.0768 234.289 44.3301 234.289 45.9902V63.1777C234.289 64.8379 234.729 66.1074 235.607 66.9863C236.486 67.8652 237.772 68.3047 239.465 68.3047H262.268C263.993 68.3047 265.279 67.8652 266.125 66.9863C266.971 66.1074 267.395 64.8379 267.395 63.1777V46.0879ZM349.941 81H331.631L306.045 56.293C304.613 54.9909 303.945 53.3633 304.043 51.4102C304.108 50.4987 304.336 49.6523 304.727 48.8711C305.15 48.0573 305.719 47.3737 306.436 46.8203L329.629 28.1191H349.941L320.059 52.1914L349.941 81ZM300.82 81H288.125V5.90234H300.82V81ZM409.1 45.6973C409.1 47.4551 408.79 49.3594 408.172 51.4102C407.553 53.4284 406.544 55.3164 405.145 57.0742C403.777 58.7995 401.971 60.248 399.725 61.4199C397.511 62.5918 394.809 63.1777 391.619 63.1777H368.719V51.1172H391.619C393.344 51.1172 394.679 50.5964 395.623 49.5547C396.567 48.4805 397.039 47.1621 397.039 45.5996C397.039 43.9395 396.502 42.6374 395.428 41.6934C394.386 40.7493 393.117 40.2773 391.619 40.2773H368.719C366.993 40.2773 365.659 40.8145 364.715 41.8887C363.771 42.9303 363.299 44.2324 363.299 45.7949V63.5195C363.299 65.2122 363.82 66.5306 364.861 67.4746C365.936 68.4186 367.254 68.8906 368.816 68.8906H391.619V81H368.719C366.961 81 365.057 80.6908 363.006 80.0723C360.988 79.4538 359.1 78.4609 357.342 77.0938C355.617 75.694 354.168 73.8874 352.996 71.6738C351.824 69.4277 351.238 66.7096 351.238 63.5195V45.6973C351.238 43.9395 351.548 42.0514 352.166 40.0332C352.785 37.9824 353.777 36.0944 355.145 34.3691C356.544 32.6113 358.351 31.1465 360.564 29.9746C362.811 28.8027 365.529 28.2168 368.719 28.2168H391.619C393.377 28.2168 395.265 28.526 397.283 29.1445C399.334 29.763 401.222 30.7721 402.947 32.1719C404.705 33.5391 406.17 35.3457 407.342 37.5918C408.514 39.8053 409.1 42.5072 409.1 45.6973ZM460.836 40.9121H432.271C430.546 40.9121 429.244 41.3516 428.365 42.2305C427.486 43.0768 427.047 44.3301 427.047 45.9902V81H414.352V45.9902C414.352 43.8092 414.628 41.8561 415.182 40.1309C415.735 38.4056 416.467 36.8919 417.379 35.5898C418.323 34.2552 419.397 33.1322 420.602 32.2207C421.806 31.2767 423.059 30.5117 424.361 29.9258C425.696 29.3398 427.031 28.9167 428.365 28.6562C429.732 28.3633 431.002 28.2168 432.174 28.2168H460.836V40.9121Z" fill="#1D90CA"/>
<path d="M241.258 112H238.211V107.875H227.5V112H224.453V103.598C224.453 102.371 224.664 101.242 225.086 100.211C225.508 99.1797 226.094 98.293 226.844 97.5508C227.594 96.8086 228.48 96.2305 229.504 95.8164C230.527 95.4023 231.645 95.1953 232.855 95.1953H239.723C239.934 95.1953 240.133 95.2344 240.32 95.3125C240.508 95.3906 240.672 95.5 240.812 95.6406C240.953 95.7812 241.062 95.9453 241.141 96.1328C241.219 96.3203 241.258 96.5195 241.258 96.7305V112ZM227.5 104.828H238.211V98.2422H232.855C232.762 98.2422 232.562 98.2578 232.258 98.2891C231.961 98.3125 231.613 98.3789 231.215 98.4883C230.824 98.5977 230.41 98.7656 229.973 98.9922C229.535 99.2188 229.133 99.5312 228.766 99.9297C228.398 100.328 228.094 100.828 227.852 101.43C227.617 102.023 227.5 102.746 227.5 103.598V104.828ZM257.53 110.465C257.53 110.684 257.491 110.887 257.413 111.074C257.335 111.262 257.225 111.426 257.085 111.566C256.952 111.699 256.792 111.805 256.604 111.883C256.425 111.961 256.229 112 256.018 112H249.128C248.753 112 248.35 111.957 247.921 111.871C247.499 111.785 247.081 111.648 246.667 111.461C246.253 111.266 245.85 111.023 245.46 110.734C245.077 110.438 244.741 110.082 244.452 109.668C244.163 109.246 243.928 108.762 243.749 108.215C243.577 107.668 243.491 107.051 243.491 106.363V99.332H246.538V106.363C246.538 106.762 246.604 107.121 246.737 107.441C246.878 107.754 247.065 108.023 247.3 108.25C247.534 108.477 247.807 108.652 248.12 108.777C248.44 108.895 248.784 108.953 249.151 108.953H254.483V99.332H257.53V110.465ZM271.189 102.379H265.869V112H262.787V102.379H258.826V99.332H262.787V95.1953H265.869V99.332H271.189V102.379ZM286.207 107.723C286.207 108.246 286.141 108.719 286.008 109.141C285.875 109.555 285.699 109.922 285.481 110.242C285.262 110.555 285.008 110.824 284.719 111.051C284.43 111.27 284.125 111.449 283.805 111.59C283.492 111.73 283.172 111.836 282.844 111.906C282.524 111.969 282.219 112 281.93 112H276.434C276.012 112 275.551 111.926 275.051 111.777C274.551 111.629 274.086 111.387 273.656 111.051C273.235 110.707 272.879 110.266 272.59 109.727C272.309 109.18 272.168 108.512 272.168 107.723V103.598C272.168 102.816 272.309 102.156 272.59 101.617C272.879 101.07 273.235 100.629 273.656 100.293C274.086 99.9492 274.551 99.7031 275.051 99.5547C275.551 99.4062 276.012 99.332 276.434 99.332H281.93C282.711 99.332 283.375 99.4727 283.922 99.7539C284.469 100.035 284.91 100.391 285.246 100.82C285.582 101.242 285.824 101.703 285.973 102.203C286.129 102.703 286.207 103.168 286.207 103.598V107.723ZM283.16 103.621C283.16 103.199 283.055 102.887 282.844 102.684C282.633 102.48 282.328 102.379 281.93 102.379H276.457C276.051 102.379 275.742 102.484 275.531 102.695C275.32 102.898 275.215 103.199 275.215 103.598V107.723C275.215 108.121 275.32 108.426 275.531 108.637C275.742 108.848 276.051 108.953 276.457 108.953H281.93C282.344 108.953 282.653 108.848 282.856 108.637C283.059 108.426 283.16 108.121 283.16 107.723V103.621ZM299.397 112H296.35V103.598C296.35 103.199 296.245 102.898 296.034 102.695C295.823 102.484 295.511 102.379 295.097 102.379H291.136V112H288.089V100.844C288.089 100.633 288.128 100.438 288.206 100.258C288.284 100.07 288.393 99.9102 288.534 99.7773C288.675 99.6367 288.839 99.5273 289.026 99.4492C289.214 99.3711 289.413 99.332 289.624 99.332H295.12C295.542 99.332 295.995 99.4062 296.479 99.5547C296.964 99.7031 297.425 99.9414 297.862 100.27V99.332H301.987C302.276 99.332 302.581 99.3672 302.901 99.4375C303.222 99.5 303.538 99.6016 303.85 99.7422C304.171 99.8828 304.475 100.066 304.765 100.293C305.054 100.512 305.307 100.781 305.526 101.102C305.745 101.414 305.921 101.777 306.054 102.191C306.186 102.605 306.253 103.074 306.253 103.598V112H303.206V103.598C303.206 103.199 303.104 102.898 302.901 102.695C302.706 102.484 302.401 102.379 301.987 102.379H299.245C299.347 102.754 299.397 103.16 299.397 103.598V112ZM321.423 107.805C321.423 108.227 321.349 108.684 321.201 109.176C321.052 109.66 320.81 110.113 320.474 110.535C320.146 110.949 319.713 111.297 319.173 111.578C318.642 111.859 317.994 112 317.228 112H311.732C311.31 112 310.853 111.926 310.361 111.777C309.877 111.629 309.423 111.391 309.002 111.062C308.588 110.727 308.24 110.293 307.959 109.762C307.677 109.223 307.537 108.57 307.537 107.805C307.537 107.383 307.611 106.926 307.759 106.434C307.908 105.941 308.146 105.488 308.474 105.074C308.81 104.652 309.244 104.301 309.775 104.02C310.314 103.738 310.966 103.598 311.732 103.598H317.228V106.504H311.732C311.318 106.504 310.998 106.633 310.771 106.891C310.545 107.141 310.431 107.453 310.431 107.828C310.431 108.227 310.56 108.539 310.818 108.766C311.084 108.984 311.396 109.094 311.755 109.094H317.228C317.642 109.094 317.963 108.969 318.189 108.719C318.416 108.469 318.529 108.156 318.529 107.781V103.527C318.529 103.129 318.404 102.812 318.154 102.578C317.912 102.344 317.603 102.227 317.228 102.227H310.537V99.332H317.228C317.65 99.332 318.103 99.4062 318.588 99.5547C319.08 99.7031 319.533 99.9453 319.947 100.281C320.369 100.609 320.72 101.043 321.002 101.582C321.283 102.113 321.423 102.762 321.423 103.527V107.805ZM334.778 102.379H329.457V112H326.375V102.379H322.414V99.332H326.375V95.1953H329.457V99.332H334.778V102.379ZM349.644 103.527C349.644 103.949 349.569 104.406 349.421 104.898C349.272 105.383 349.03 105.836 348.694 106.258C348.366 106.672 347.933 107.02 347.394 107.301C346.862 107.582 346.214 107.723 345.448 107.723H339.952V104.828H345.448C345.862 104.828 346.183 104.703 346.409 104.453C346.636 104.195 346.749 103.879 346.749 103.504C346.749 103.105 346.62 102.793 346.362 102.566C346.112 102.34 345.808 102.227 345.448 102.227H339.952C339.538 102.227 339.218 102.355 338.991 102.613C338.765 102.863 338.651 103.176 338.651 103.551V107.805C338.651 108.211 338.776 108.527 339.026 108.754C339.284 108.98 339.601 109.094 339.976 109.094H345.448V112H339.952C339.53 112 339.073 111.926 338.581 111.777C338.097 111.629 337.644 111.391 337.222 111.062C336.808 110.727 336.46 110.293 336.179 109.762C335.897 109.223 335.757 108.57 335.757 107.805V103.527C335.757 103.105 335.831 102.652 335.98 102.168C336.128 101.676 336.366 101.223 336.694 100.809C337.03 100.387 337.464 100.035 337.995 99.7539C338.534 99.4727 339.187 99.332 339.952 99.332H345.448C345.87 99.332 346.323 99.4062 346.808 99.5547C347.3 99.7031 347.753 99.9453 348.167 100.281C348.589 100.609 348.94 101.043 349.222 101.582C349.503 102.113 349.644 102.762 349.644 103.527ZM372.028 113.219C372.028 113.742 371.961 114.211 371.829 114.625C371.696 115.047 371.52 115.414 371.301 115.727C371.083 116.047 370.829 116.316 370.54 116.535C370.25 116.762 369.946 116.945 369.625 117.086C369.313 117.227 368.997 117.328 368.676 117.391C368.356 117.461 368.051 117.496 367.762 117.496H362.266V114.449H367.762C368.168 114.449 368.473 114.344 368.676 114.133C368.879 113.922 368.981 113.617 368.981 113.219V99.332H372.028V113.219ZM367.762 112H362.266C361.829 112 361.36 111.926 360.86 111.777C360.368 111.629 359.907 111.387 359.477 111.051C359.047 110.707 358.692 110.266 358.411 109.727C358.129 109.18 357.989 108.512 357.989 107.723V99.332H361.036V107.723C361.036 108.121 361.141 108.426 361.352 108.637C361.563 108.848 361.875 108.953 362.29 108.953H367.762V112ZM387.995 107.723C387.995 108.246 387.929 108.719 387.796 109.141C387.663 109.555 387.488 109.922 387.269 110.242C387.05 110.555 386.796 110.824 386.507 111.051C386.218 111.27 385.913 111.449 385.593 111.59C385.28 111.73 384.96 111.836 384.632 111.906C384.312 111.969 384.007 112 383.718 112H378.222C377.8 112 377.339 111.926 376.839 111.777C376.339 111.629 375.874 111.387 375.445 111.051C375.023 110.707 374.667 110.266 374.378 109.727C374.097 109.18 373.956 108.512 373.956 107.723V103.598C373.956 102.816 374.097 102.156 374.378 101.617C374.667 101.07 375.023 100.629 375.445 100.293C375.874 99.9492 376.339 99.7031 376.839 99.5547C377.339 99.4062 377.8 99.332 378.222 99.332H383.718C384.499 99.332 385.163 99.4727 385.71 99.7539C386.257 100.035 386.698 100.391 387.034 100.82C387.37 101.242 387.613 101.703 387.761 102.203C387.917 102.703 387.995 103.168 387.995 103.598V107.723ZM384.948 103.621C384.948 103.199 384.843 102.887 384.632 102.684C384.421 102.48 384.116 102.379 383.718 102.379H378.245C377.839 102.379 377.53 102.484 377.32 102.695C377.109 102.898 377.003 103.199 377.003 103.598V107.723C377.003 108.121 377.109 108.426 377.32 108.637C377.53 108.848 377.839 108.953 378.245 108.953H383.718C384.132 108.953 384.441 108.848 384.644 108.637C384.847 108.426 384.948 108.121 384.948 107.723V103.621ZM403.728 110.465C403.728 110.684 403.689 110.887 403.611 111.074C403.533 111.262 403.424 111.426 403.283 111.566C403.15 111.699 402.99 111.805 402.803 111.883C402.623 111.961 402.428 112 402.217 112H395.326C394.951 112 394.549 111.957 394.119 111.871C393.697 111.785 393.279 111.648 392.865 111.461C392.451 111.266 392.049 111.023 391.658 110.734C391.275 110.438 390.939 110.082 390.65 109.668C390.361 109.246 390.127 108.762 389.947 108.215C389.775 107.668 389.689 107.051 389.689 106.363V99.332H392.736V106.363C392.736 106.762 392.803 107.121 392.935 107.441C393.076 107.754 393.264 108.023 393.498 108.25C393.732 108.477 394.006 108.652 394.318 108.777C394.639 108.895 394.982 108.953 395.35 108.953H400.682V99.332H403.728V110.465ZM416.954 102.379H410.098C409.684 102.379 409.372 102.484 409.161 102.695C408.95 102.898 408.844 103.199 408.844 103.598V112H405.798V103.598C405.798 103.074 405.864 102.605 405.997 102.191C406.13 101.777 406.305 101.414 406.524 101.102C406.751 100.781 407.008 100.512 407.298 100.293C407.587 100.066 407.887 99.8828 408.2 99.7422C408.52 99.6016 408.84 99.5 409.161 99.4375C409.489 99.3672 409.794 99.332 410.075 99.332H416.954V102.379ZM430.713 112H429.354C428.916 112 428.447 111.926 427.947 111.777C427.455 111.629 426.994 111.387 426.565 111.051C426.135 110.707 425.779 110.266 425.498 109.727C425.217 109.18 425.076 108.512 425.076 107.723V93.9766H428.123V107.723C428.123 108.098 428.24 108.398 428.475 108.625C428.709 108.844 429.002 108.953 429.354 108.953H430.713V112ZM435.044 96.7305H431.997V93.9766H435.044V96.7305ZM435.044 112H431.997V99.332H435.044V112ZM448.468 102.379H441.578V99.332H448.468V102.379ZM448.468 96.8828H441.601C441.187 96.8828 440.875 96.9883 440.664 97.1992C440.453 97.4023 440.347 97.7031 440.347 98.1016V112H437.3V98.1016C437.3 97.5781 437.367 97.1094 437.5 96.6953C437.632 96.2812 437.808 95.918 438.027 95.6055C438.253 95.2852 438.511 95.0156 438.8 94.7969C439.089 94.5703 439.39 94.3867 439.703 94.2461C440.023 94.1055 440.343 94.0039 440.664 93.9414C440.984 93.8711 441.289 93.8359 441.578 93.8359H448.468V96.8828ZM463.334 103.527C463.334 103.949 463.26 104.406 463.112 104.898C462.963 105.383 462.721 105.836 462.385 106.258C462.057 106.672 461.623 107.02 461.084 107.301C460.553 107.582 459.905 107.723 459.139 107.723H453.643V104.828H459.139C459.553 104.828 459.873 104.703 460.1 104.453C460.326 104.195 460.44 103.879 460.44 103.504C460.44 103.105 460.311 102.793 460.053 102.566C459.803 102.34 459.498 102.227 459.139 102.227H453.643C453.229 102.227 452.908 102.355 452.682 102.613C452.455 102.863 452.342 103.176 452.342 103.551V107.805C452.342 108.211 452.467 108.527 452.717 108.754C452.975 108.98 453.291 109.094 453.666 109.094H459.139V112H453.643C453.221 112 452.764 111.926 452.272 111.777C451.787 111.629 451.334 111.391 450.912 111.062C450.498 110.727 450.151 110.293 449.869 109.762C449.588 109.223 449.447 108.57 449.447 107.805V103.527C449.447 103.105 449.522 102.652 449.67 102.168C449.819 101.676 450.057 101.223 450.385 100.809C450.721 100.387 451.155 100.035 451.686 99.7539C452.225 99.4727 452.877 99.332 453.643 99.332H459.139C459.561 99.332 460.014 99.4062 460.498 99.5547C460.99 99.7031 461.444 99.9453 461.858 100.281C462.28 100.609 462.631 101.043 462.912 101.582C463.194 102.113 463.334 102.762 463.334 103.527ZM467.407 107.875H465.31L464.595 95.1953H468.122L467.407 107.875ZM467.888 110.465C467.888 110.676 467.845 110.875 467.759 111.062C467.681 111.242 467.571 111.402 467.431 111.543C467.298 111.676 467.138 111.781 466.95 111.859C466.77 111.938 466.579 111.977 466.376 111.977C466.165 111.977 465.966 111.938 465.778 111.859C465.599 111.781 465.438 111.676 465.298 111.543C465.165 111.402 465.06 111.242 464.981 111.062C464.903 110.875 464.864 110.676 464.864 110.465C464.864 110.262 464.903 110.07 464.981 109.891C465.06 109.703 465.165 109.543 465.298 109.41C465.438 109.27 465.599 109.16 465.778 109.082C465.966 108.996 466.165 108.953 466.376 108.953C466.579 108.953 466.77 108.996 466.95 109.082C467.138 109.16 467.298 109.27 467.431 109.41C467.571 109.543 467.681 109.703 467.759 109.891C467.845 110.07 467.888 110.262 467.888 110.465Z" fill="#005894"/>
</svg>
