<svg width="643" height="158" viewBox="0 0 643 158" fill="none" xmlns="http://www.w3.org/2000/svg">
    <path d="M25.6328 23.4727H8.36719V7.86719H25.6328V23.4727ZM25.6328 110H8.36719V38.2148H25.6328V110ZM116.248 85.7617C116.248 88.7279 115.872 91.4062 115.119 93.7969C114.367 96.1432 113.371 98.224 112.131 100.039C110.891 101.81 109.453 103.337 107.815 104.621C106.177 105.861 104.45 106.879 102.635 107.676C100.864 108.473 99.0489 109.07 97.1895 109.469C95.3744 109.823 93.6479 110 92.0098 110H60.8653C58.4747 110 55.8627 109.579 53.0294 108.738C50.196 107.897 47.5619 106.525 45.127 104.621C42.7364 102.673 40.7221 100.172 39.0841 97.1172C37.4903 94.0182 36.6934 90.2331 36.6934 85.7617V62.3867C36.6934 57.9596 37.4903 54.2188 39.0841 51.1641C40.7221 48.0651 42.7364 45.5638 45.127 43.6602C47.5619 41.7122 50.196 40.3177 53.0294 39.4766C55.8627 38.6354 58.4747 38.2148 60.8653 38.2148H92.0098C96.4369 38.2148 100.2 39.0117 103.299 40.6055C106.398 42.1992 108.899 44.2135 110.803 46.6484C112.706 49.0391 114.079 51.651 114.92 54.4844C115.805 57.3177 116.248 59.9518 116.248 62.3867V85.7617ZM98.9825 62.5195C98.9825 60.1289 98.3848 58.3581 97.1895 57.207C95.9942 56.056 94.2677 55.4805 92.0098 55.4805H60.9981C58.696 55.4805 56.9473 56.0781 55.752 57.2734C54.5567 58.4245 53.9591 60.1289 53.9591 62.3867V85.7617C53.9591 88.0195 54.5567 89.7461 55.752 90.9414C56.9473 92.1367 58.696 92.7344 60.9981 92.7344H92.0098C94.3562 92.7344 96.1049 92.1367 97.2559 90.9414C98.407 89.7461 98.9825 88.0195 98.9825 85.7617V62.5195ZM223.863 89.082C223.863 91.207 223.487 93.487 222.735 95.9219C222.026 98.3568 220.831 100.615 219.149 102.695C217.511 104.776 215.363 106.525 212.707 107.941C210.051 109.314 206.797 110 202.945 110H137.402C136.163 110 135.012 109.779 133.949 109.336C132.887 108.893 131.957 108.296 131.16 107.543C130.408 106.746 129.81 105.816 129.367 104.754C128.925 103.691 128.703 102.54 128.703 101.301V23.4727C128.703 22.2773 128.925 21.1484 129.367 20.0859C129.81 19.0234 130.408 18.0938 131.16 17.2969C131.957 16.5 132.887 15.8802 133.949 15.4375C135.012 14.9948 136.163 14.7734 137.402 14.7734H195.176C197.301 14.7734 199.581 15.1497 202.016 15.9023C204.451 16.6549 206.708 17.8724 208.789 19.5547C210.914 21.1927 212.663 23.3398 214.035 25.9961C215.452 28.6523 216.16 31.9062 216.16 35.7578V39.0117C216.16 42.0664 215.651 45.3646 214.633 48.9062C213.615 52.4036 211.977 55.724 209.719 58.8672C211.667 60.0625 213.482 61.5013 215.164 63.1836C216.891 64.8659 218.396 66.8138 219.68 69.0273C220.964 71.2409 221.982 73.7422 222.735 76.5312C223.487 79.3203 223.863 82.3971 223.863 85.7617V89.082ZM206.598 85.7617C206.598 83.5039 206.244 81.4896 205.535 79.7188C204.827 77.9036 203.831 76.3542 202.547 75.0703C201.263 73.7865 199.714 72.8125 197.899 72.1484C196.083 71.4401 194.047 71.0859 191.789 71.0859H152.875V53.6875H184.02C186.277 53.6875 188.314 53.3555 190.129 52.6914C191.944 51.9831 193.494 50.987 194.777 49.7031C196.061 48.4193 197.035 46.8919 197.699 45.1211C198.408 43.306 198.762 41.2695 198.762 39.0117V35.7578C198.762 33.2786 197.567 32.0391 195.176 32.0391H145.969V92.7344H202.945C203.255 92.7344 203.632 92.7122 204.074 92.668C204.517 92.6237 204.916 92.4909 205.27 92.2695C205.624 92.0482 205.934 91.6719 206.199 91.1406C206.465 90.6094 206.598 89.8789 206.598 88.9492V85.7617ZM295.752 55.4805H256.905C254.558 55.4805 252.787 56.0781 251.592 57.2734C250.397 58.4245 249.799 60.1289 249.799 62.3867V110H232.533V62.3867C232.533 59.4206 232.91 56.7643 233.662 54.418C234.415 52.0716 235.411 50.013 236.651 48.2422C237.934 46.4271 239.395 44.8997 241.033 43.6602C242.671 42.3763 244.376 41.3359 246.147 40.5391C247.962 39.7422 249.777 39.1667 251.592 38.8125C253.451 38.4141 255.178 38.2148 256.772 38.2148H295.752V55.4805ZM380.922 85.7617C380.922 88.7279 380.546 91.4062 379.793 93.7969C379.041 96.1432 378.045 98.224 376.805 100.039C375.565 101.81 374.127 103.337 372.489 104.621C370.851 105.861 369.124 106.879 367.309 107.676C365.538 108.473 363.723 109.07 361.864 109.469C360.048 109.823 358.322 110 356.684 110H325.539C323.149 110 320.537 109.579 317.703 108.738C314.87 107.897 312.236 106.525 309.801 104.621C307.41 102.673 305.396 100.172 303.758 97.1172C302.164 94.0182 301.367 90.2331 301.367 85.7617V62.3867C301.367 57.9596 302.164 54.2188 303.758 51.1641C305.396 48.0651 307.41 45.5638 309.801 43.6602C312.236 41.7122 314.87 40.3177 317.703 39.4766C320.537 38.6354 323.149 38.2148 325.539 38.2148H356.684C361.111 38.2148 364.874 39.0117 367.973 40.6055C371.072 42.1992 373.573 44.2135 375.477 46.6484C377.381 49.0391 378.753 51.651 379.594 54.4844C380.479 57.3177 380.922 59.9518 380.922 62.3867V85.7617ZM363.657 62.5195C363.657 60.1289 363.059 58.3581 361.864 57.207C360.668 56.056 358.942 55.4805 356.684 55.4805H325.672C323.37 55.4805 321.621 56.0781 320.426 57.2734C319.231 58.4245 318.633 60.1289 318.633 62.3867V85.7617C318.633 88.0195 319.231 89.7461 320.426 90.9414C321.621 92.1367 323.37 92.7344 325.672 92.7344H356.684C359.03 92.7344 360.779 92.1367 361.93 90.9414C363.081 89.7461 363.657 88.0195 363.657 85.7617V62.5195ZM475.92 110H451.018L416.221 76.3984C414.273 74.6276 413.366 72.4141 413.498 69.7578C413.587 68.5182 413.897 67.3672 414.428 66.3047C415.004 65.1979 415.778 64.2682 416.752 63.5156L448.295 38.082H475.92L435.28 70.8203L475.92 110ZM409.116 110H391.85V7.86719H409.116V110ZM556.375 61.9883C556.375 64.3789 555.955 66.9688 555.114 69.7578C554.273 72.5026 552.9 75.0703 550.997 77.4609C549.137 79.8073 546.68 81.7773 543.625 83.3711C540.615 84.9648 536.941 85.7617 532.602 85.7617H501.457V69.3594H532.602C534.948 69.3594 536.763 68.651 538.047 67.2344C539.331 65.7734 539.973 63.9805 539.973 61.8555C539.973 59.5977 539.243 57.8268 537.782 56.543C536.365 55.2591 534.638 54.6172 532.602 54.6172H501.457C499.111 54.6172 497.296 55.3477 496.012 56.8086C494.728 58.2253 494.086 59.9961 494.086 62.1211V86.2266C494.086 88.5286 494.795 90.3216 496.211 91.6055C497.672 92.8893 499.465 93.5312 501.59 93.5312H532.602V110H501.457C499.067 110 496.477 109.579 493.688 108.738C490.943 107.897 488.375 106.547 485.985 104.688C483.638 102.784 481.668 100.327 480.075 97.3164C478.481 94.2617 477.684 90.5651 477.684 86.2266V61.9883C477.684 59.5977 478.105 57.0299 478.946 54.2852C479.787 51.4961 481.137 48.9284 482.997 46.582C484.9 44.1914 487.357 42.1992 490.368 40.6055C493.422 39.0117 497.119 38.2148 501.457 38.2148H532.602C534.993 38.2148 537.56 38.6354 540.305 39.4766C543.094 40.3177 545.662 41.6901 548.008 43.5938C550.399 45.4531 552.391 47.9102 553.985 50.9648C555.579 53.9753 556.375 57.6497 556.375 61.9883ZM626.737 55.4805H587.889C585.543 55.4805 583.772 56.0781 582.577 57.2734C581.381 58.4245 580.784 60.1289 580.784 62.3867V110H563.518V62.3867C563.518 59.4206 563.894 56.7643 564.647 54.418C565.4 52.0716 566.396 50.013 567.635 48.2422C568.919 46.4271 570.38 44.8997 572.018 43.6602C573.656 42.3763 575.361 41.3359 577.131 40.5391C578.947 39.7422 580.762 39.1667 582.577 38.8125C584.436 38.4141 586.163 38.2148 587.756 38.2148H626.737V55.4805Z"
          fill="#1D90CA"/>
    <path d="M338.344 149H334.281V143.5H320V149H315.938V137.797C315.938 136.161 316.219 134.656 316.781 133.281C317.344 131.906 318.125 130.724 319.125 129.734C320.125 128.745 321.307 127.974 322.672 127.422C324.036 126.87 325.526 126.594 327.141 126.594H336.297C336.578 126.594 336.844 126.646 337.094 126.75C337.344 126.854 337.562 127 337.75 127.188C337.938 127.375 338.083 127.594 338.188 127.844C338.292 128.094 338.344 128.359 338.344 128.641V149ZM320 139.438H334.281V130.656H327.141C327.016 130.656 326.75 130.677 326.344 130.719C325.948 130.75 325.484 130.839 324.953 130.984C324.432 131.13 323.88 131.354 323.297 131.656C322.714 131.958 322.177 132.375 321.688 132.906C321.198 133.438 320.792 134.104 320.469 134.906C320.156 135.698 320 136.661 320 137.797V139.438ZM360.04 146.953C360.04 147.245 359.988 147.516 359.884 147.766C359.78 148.016 359.634 148.234 359.446 148.422C359.269 148.599 359.056 148.74 358.806 148.844C358.566 148.948 358.306 149 358.024 149H348.837C348.337 149 347.8 148.943 347.228 148.828C346.665 148.714 346.108 148.531 345.556 148.281C345.004 148.021 344.467 147.698 343.946 147.312C343.436 146.917 342.988 146.443 342.603 145.891C342.217 145.328 341.905 144.682 341.665 143.953C341.436 143.224 341.321 142.401 341.321 141.484V132.109H345.384V141.484C345.384 142.016 345.472 142.495 345.649 142.922C345.837 143.339 346.087 143.698 346.399 144C346.712 144.302 347.076 144.536 347.493 144.703C347.92 144.859 348.379 144.938 348.868 144.938H355.978V132.109H360.04V146.953ZM378.252 136.172H371.158V149H367.049V136.172H361.768V132.109H367.049V126.594H371.158V132.109H378.252V136.172ZM398.276 143.297C398.276 143.995 398.188 144.625 398.011 145.188C397.834 145.74 397.599 146.229 397.307 146.656C397.016 147.073 396.677 147.432 396.292 147.734C395.906 148.026 395.5 148.266 395.073 148.453C394.656 148.641 394.229 148.781 393.792 148.875C393.365 148.958 392.959 149 392.573 149H385.245C384.682 149 384.068 148.901 383.401 148.703C382.735 148.505 382.115 148.182 381.542 147.734C380.979 147.276 380.505 146.688 380.12 145.969C379.745 145.24 379.557 144.349 379.557 143.297V137.797C379.557 136.755 379.745 135.875 380.12 135.156C380.505 134.427 380.979 133.839 381.542 133.391C382.115 132.932 382.735 132.604 383.401 132.406C384.068 132.208 384.682 132.109 385.245 132.109H392.573C393.615 132.109 394.5 132.297 395.229 132.672C395.959 133.047 396.547 133.521 396.995 134.094C397.443 134.656 397.766 135.271 397.964 135.938C398.172 136.604 398.276 137.224 398.276 137.797V143.297ZM394.214 137.828C394.214 137.266 394.073 136.849 393.792 136.578C393.511 136.307 393.104 136.172 392.573 136.172H385.276C384.735 136.172 384.323 136.312 384.042 136.594C383.761 136.865 383.62 137.266 383.62 137.797V143.297C383.62 143.828 383.761 144.234 384.042 144.516C384.323 144.797 384.735 144.938 385.276 144.938H392.573C393.125 144.938 393.537 144.797 393.807 144.516C394.078 144.234 394.214 143.828 394.214 143.297V137.828ZM415.863 149H411.801V137.797C411.801 137.266 411.66 136.865 411.379 136.594C411.098 136.312 410.681 136.172 410.129 136.172H404.848V149H400.785V134.125C400.785 133.844 400.837 133.583 400.941 133.344C401.045 133.094 401.191 132.88 401.379 132.703C401.566 132.516 401.785 132.37 402.035 132.266C402.285 132.161 402.551 132.109 402.832 132.109H410.16C410.723 132.109 411.327 132.208 411.973 132.406C412.618 132.604 413.233 132.922 413.816 133.359V132.109H419.316C419.702 132.109 420.108 132.156 420.535 132.25C420.962 132.333 421.384 132.469 421.801 132.656C422.228 132.844 422.634 133.089 423.019 133.391C423.405 133.682 423.743 134.042 424.035 134.469C424.327 134.885 424.561 135.37 424.738 135.922C424.915 136.474 425.004 137.099 425.004 137.797V149H420.941V137.797C420.941 137.266 420.806 136.865 420.535 136.594C420.275 136.312 419.868 136.172 419.316 136.172H415.66C415.795 136.672 415.863 137.214 415.863 137.797V149ZM445.231 143.406C445.231 143.969 445.132 144.578 444.934 145.234C444.736 145.88 444.414 146.484 443.966 147.047C443.528 147.599 442.95 148.062 442.231 148.438C441.523 148.812 440.658 149 439.637 149H432.309C431.747 149 431.137 148.901 430.481 148.703C429.835 148.505 429.231 148.188 428.669 147.75C428.117 147.302 427.653 146.724 427.278 146.016C426.903 145.297 426.716 144.427 426.716 143.406C426.716 142.844 426.815 142.234 427.012 141.578C427.21 140.922 427.528 140.318 427.966 139.766C428.414 139.203 428.992 138.734 429.7 138.359C430.419 137.984 431.289 137.797 432.309 137.797H439.637V141.672H432.309C431.757 141.672 431.33 141.844 431.028 142.188C430.726 142.521 430.575 142.938 430.575 143.438C430.575 143.969 430.747 144.385 431.091 144.688C431.445 144.979 431.861 145.125 432.341 145.125H439.637C440.19 145.125 440.617 144.958 440.919 144.625C441.221 144.292 441.372 143.875 441.372 143.375V137.703C441.372 137.172 441.205 136.75 440.872 136.438C440.549 136.125 440.137 135.969 439.637 135.969H430.716V132.109H439.637C440.2 132.109 440.804 132.208 441.45 132.406C442.106 132.604 442.71 132.927 443.262 133.375C443.825 133.812 444.294 134.391 444.669 135.109C445.044 135.818 445.231 136.682 445.231 137.703V143.406ZM463.037 136.172H455.943V149H451.834V136.172H446.553V132.109H451.834V126.594H455.943V132.109H463.037V136.172ZM482.858 137.703C482.858 138.266 482.759 138.875 482.561 139.531C482.363 140.177 482.04 140.781 481.592 141.344C481.155 141.896 480.577 142.359 479.858 142.734C479.15 143.109 478.285 143.297 477.264 143.297H469.936V139.438H477.264C477.816 139.438 478.244 139.271 478.546 138.938C478.848 138.594 478.999 138.172 478.999 137.672C478.999 137.141 478.827 136.724 478.483 136.422C478.15 136.12 477.744 135.969 477.264 135.969H469.936C469.384 135.969 468.957 136.141 468.655 136.484C468.353 136.818 468.202 137.234 468.202 137.734V143.406C468.202 143.948 468.369 144.37 468.702 144.672C469.046 144.974 469.467 145.125 469.967 145.125H477.264V149H469.936C469.374 149 468.764 148.901 468.108 148.703C467.462 148.505 466.858 148.188 466.296 147.75C465.744 147.302 465.28 146.724 464.905 146.016C464.53 145.297 464.342 144.427 464.342 143.406V137.703C464.342 137.141 464.441 136.536 464.639 135.891C464.837 135.234 465.155 134.63 465.592 134.078C466.04 133.516 466.619 133.047 467.327 132.672C468.046 132.297 468.915 132.109 469.936 132.109H477.264C477.827 132.109 478.431 132.208 479.077 132.406C479.733 132.604 480.337 132.927 480.889 133.375C481.452 133.812 481.921 134.391 482.296 135.109C482.671 135.818 482.858 136.682 482.858 137.703ZM512.704 150.625C512.704 151.323 512.615 151.948 512.438 152.5C512.261 153.062 512.027 153.552 511.735 153.969C511.443 154.396 511.105 154.755 510.719 155.047C510.334 155.349 509.928 155.594 509.501 155.781C509.084 155.969 508.662 156.104 508.235 156.188C507.808 156.281 507.402 156.328 507.016 156.328H499.688V152.266H507.016C507.558 152.266 507.964 152.125 508.235 151.844C508.506 151.562 508.641 151.156 508.641 150.625V132.109H512.704V150.625ZM507.016 149H499.688C499.105 149 498.48 148.901 497.813 148.703C497.157 148.505 496.542 148.182 495.969 147.734C495.396 147.276 494.923 146.688 494.548 145.969C494.173 145.24 493.985 144.349 493.985 143.297V132.109H498.048V143.297C498.048 143.828 498.188 144.234 498.469 144.516C498.751 144.797 499.167 144.938 499.719 144.938H507.016V149ZM533.994 143.297C533.994 143.995 533.905 144.625 533.728 145.188C533.551 145.74 533.317 146.229 533.025 146.656C532.733 147.073 532.395 147.432 532.009 147.734C531.624 148.026 531.218 148.266 530.791 148.453C530.374 148.641 529.947 148.781 529.509 148.875C529.082 148.958 528.676 149 528.291 149H520.962C520.4 149 519.785 148.901 519.119 148.703C518.452 148.505 517.832 148.182 517.259 147.734C516.697 147.276 516.223 146.688 515.837 145.969C515.462 145.24 515.275 144.349 515.275 143.297V137.797C515.275 136.755 515.462 135.875 515.837 135.156C516.223 134.427 516.697 133.839 517.259 133.391C517.832 132.932 518.452 132.604 519.119 132.406C519.785 132.208 520.4 132.109 520.962 132.109H528.291C529.332 132.109 530.218 132.297 530.947 132.672C531.676 133.047 532.265 133.521 532.712 134.094C533.16 134.656 533.483 135.271 533.681 135.938C533.89 136.604 533.994 137.224 533.994 137.797V143.297ZM529.931 137.828C529.931 137.266 529.791 136.849 529.509 136.578C529.228 136.307 528.822 136.172 528.291 136.172H520.994C520.452 136.172 520.041 136.312 519.759 136.594C519.478 136.865 519.337 137.266 519.337 137.797V143.297C519.337 143.828 519.478 144.234 519.759 144.516C520.041 144.797 520.452 144.938 520.994 144.938H528.291C528.843 144.938 529.254 144.797 529.525 144.516C529.796 144.234 529.931 143.828 529.931 143.297V137.828ZM554.971 146.953C554.971 147.245 554.919 147.516 554.815 147.766C554.711 148.016 554.565 148.234 554.378 148.422C554.2 148.599 553.987 148.74 553.737 148.844C553.497 148.948 553.237 149 552.956 149H543.768C543.268 149 542.732 148.943 542.159 148.828C541.596 148.714 541.039 148.531 540.487 148.281C539.935 148.021 539.398 147.698 538.878 147.312C538.367 146.917 537.919 146.443 537.534 145.891C537.148 145.328 536.836 144.682 536.596 143.953C536.367 143.224 536.253 142.401 536.253 141.484V132.109H540.315V141.484C540.315 142.016 540.404 142.495 540.581 142.922C540.768 143.339 541.018 143.698 541.331 144C541.643 144.302 542.008 144.536 542.424 144.703C542.851 144.859 543.31 144.938 543.799 144.938H550.909V132.109H554.971V146.953ZM572.605 136.172H563.464C562.912 136.172 562.496 136.312 562.214 136.594C561.933 136.865 561.792 137.266 561.792 137.797V149H557.73V137.797C557.73 137.099 557.819 136.474 557.996 135.922C558.173 135.37 558.407 134.885 558.699 134.469C559.001 134.042 559.345 133.682 559.73 133.391C560.115 133.089 560.516 132.844 560.933 132.656C561.36 132.469 561.787 132.333 562.214 132.25C562.652 132.156 563.058 132.109 563.433 132.109H572.605V136.172ZM590.951 149H589.138C588.555 149 587.93 148.901 587.263 148.703C586.607 148.505 585.992 148.182 585.419 147.734C584.846 147.276 584.372 146.688 583.997 145.969C583.622 145.24 583.435 144.349 583.435 143.297V124.969H587.497V143.297C587.497 143.797 587.654 144.198 587.966 144.5C588.279 144.792 588.669 144.938 589.138 144.938H590.951V149ZM596.725 128.641H592.663V124.969H596.725V128.641ZM596.725 149H592.663V132.109H596.725V149ZM614.624 136.172H605.437V132.109H614.624V136.172ZM614.624 128.844H605.468C604.916 128.844 604.499 128.984 604.218 129.266C603.937 129.536 603.796 129.938 603.796 130.469V149H599.734V130.469C599.734 129.771 599.822 129.146 599.999 128.594C600.176 128.042 600.411 127.557 600.703 127.141C601.005 126.714 601.348 126.354 601.734 126.062C602.119 125.76 602.52 125.516 602.937 125.328C603.364 125.141 603.791 125.005 604.218 124.922C604.645 124.828 605.051 124.781 605.437 124.781H614.624V128.844ZM634.446 137.703C634.446 138.266 634.347 138.875 634.149 139.531C633.951 140.177 633.628 140.781 633.18 141.344C632.742 141.896 632.164 142.359 631.446 142.734C630.737 143.109 629.873 143.297 628.852 143.297H621.524V139.438H628.852C629.404 139.438 629.831 139.271 630.133 138.938C630.435 138.594 630.586 138.172 630.586 137.672C630.586 137.141 630.414 136.724 630.071 136.422C629.737 136.12 629.331 135.969 628.852 135.969H621.524C620.972 135.969 620.545 136.141 620.242 136.484C619.94 136.818 619.789 137.234 619.789 137.734V143.406C619.789 143.948 619.956 144.37 620.289 144.672C620.633 144.974 621.055 145.125 621.555 145.125H628.852V149H621.524C620.961 149 620.352 148.901 619.696 148.703C619.05 148.505 618.446 148.188 617.883 147.75C617.331 147.302 616.867 146.724 616.492 146.016C616.117 145.297 615.93 144.427 615.93 143.406V137.703C615.93 137.141 616.029 136.536 616.227 135.891C616.425 135.234 616.742 134.63 617.18 134.078C617.628 133.516 618.206 133.047 618.914 132.672C619.633 132.297 620.503 132.109 621.524 132.109H628.852C629.414 132.109 630.019 132.208 630.664 132.406C631.321 132.604 631.925 132.927 632.477 133.375C633.039 133.812 633.508 134.391 633.883 135.109C634.258 135.818 634.446 136.682 634.446 137.703ZM639.876 143.5H637.079L636.126 126.594H640.829L639.876 143.5ZM640.517 146.953C640.517 147.234 640.46 147.5 640.345 147.75C640.241 147.99 640.095 148.203 639.908 148.391C639.73 148.568 639.517 148.708 639.267 148.812C639.027 148.917 638.772 148.969 638.501 148.969C638.22 148.969 637.954 148.917 637.704 148.812C637.465 148.708 637.251 148.568 637.064 148.391C636.887 148.203 636.746 147.99 636.642 147.75C636.538 147.5 636.486 147.234 636.486 146.953C636.486 146.682 636.538 146.427 636.642 146.188C636.746 145.938 636.887 145.724 637.064 145.547C637.251 145.359 637.465 145.214 637.704 145.109C637.954 144.995 638.22 144.938 638.501 144.938C638.772 144.938 639.027 144.995 639.267 145.109C639.517 145.214 639.73 145.359 639.908 145.547C640.095 145.724 640.241 145.938 640.345 146.188C640.46 146.427 640.517 146.682 640.517 146.953Z"
          fill="#1D90CA"/>
</svg>
