<svg viewBox="0 0 653 653" xmlns="http://www.w3.org/2000/svg">
	<path d="m408.13421,11.70448l0,91.50461c90.97106,33.48055 156.06472,120.71673 156.06472,222.75904c0,130.85426 -106.97769,237.2984 -238.36551,237.2984s-238.36551,-106.44414 -238.36551,-237.2984c0,-102.04231 65.09366,-189.27849 156.06472,-222.75904l0,-91.50461c-137.92386,36.68188 -239.43262,163.40109 -239.43262,314.13026c0,179.54112 143.92635,325.06813 321.60003,325.06813s321.60003,-145.52701 321.60003,-325.06813c0,-150.72917 -101.50876,-277.44839 -239.16584,-314.13026l-0.00002,0z"
		  fill="#164477"/>
	<path d="m323.70003,91.65945c16.54019,0 32.68022,1.73405 48.42008,4.93538l0,-88.97023c-15.73986,-2.401 -31.87989,-3.60149 -48.42008,-3.60149s-32.54683,1.2005 -48.42008,3.60149l0,88.97023c15.73986,-3.20133 31.87989,-4.93538 48.42008,-4.93538z"
		  fill="#3399CC"/>
	<path d="m323.70003,127.27422c-16.67358,0 -32.81361,2.00083 -48.28669,5.8691l0,388.16096c15.47308,3.86827 31.7465,5.8691 48.28669,5.8691c16.67358,0 32.81361,-2.00083 48.42008,-5.8691l0,-388.16096c-15.47308,-3.73488 -31.7465,-5.8691 -48.42008,-5.8691z"
		  fill="#3399CC"/>
</svg>