<svg width="30" height="37" viewBox="0 0 30 37" fill="none" xmlns="http://www.w3.org/2000/svg">
    <g clip-path="url(#clip0_4475_3791)">
        <path d="M25.3609 3.21404C23.7333 1.31441 20.7914 0.5 17.0278 0.5H6.10479C5.33479 0.5 4.68047 1.07347 4.55992 1.85105L0.0118068 31.3899C-0.0786109 31.9723 0.361811 32.5 0.938345 32.5H7.68176L9.37539 21.4995L9.32289 21.844C9.44345 21.0664 10.0929 20.4929 10.8619 20.4929H14.0664C20.3616 20.4929 25.2909 17.8744 26.7307 10.2998C26.7735 10.0758 26.8105 9.85777 26.8425 9.64471C26.6607 9.54614 26.6607 9.54614 26.8425 9.64471C27.2713 6.84504 26.8396 4.93944 25.3609 3.21404Z"
              fill="#005894"/>
        <path d="M11.9557 8.6364C12.1356 8.54879 12.3358 8.5 12.5458 8.5H21.1093C22.1233 8.5 23.0693 8.5677 23.9336 8.71008C24.1815 8.7509 24.4217 8.7977 24.655 8.85146C24.8883 8.90423 25.1149 8.96397 25.3346 9.02968C25.4445 9.06254 25.5524 9.09639 25.6584 9.13224C26.0832 9.2776 26.4789 9.44686 26.8425 9.64499C27.2713 6.84424 26.8396 4.93958 25.3609 3.21413C23.7324 1.31444 20.7914 0.5 17.0278 0.5H6.10382C5.33479 0.5 4.68047 1.07349 4.55992 1.85109L0.0118075 31.3899C-0.0786102 31.9733 0.361812 32.5 0.937374 32.5H7.68176L11.1954 9.68183C11.2674 9.21388 11.561 8.83055 11.9557 8.6364Z"
              fill="#005894"/>
        <path d="M26.8879 10.1588C25.4212 17.7751 20.4004 20.4093 13.9881 20.4093H10.7231C9.93977 20.4093 9.27824 20.986 9.15643 21.768L7.01044 35.5228C6.93023 36.0354 7.32239 36.5 7.83537 36.5H13.6257C14.311 36.5 14.8943 35.9954 15.0012 35.3115L15.0577 35.0132L16.149 28.0206L16.2193 27.6342C16.3262 26.9503 16.9095 26.4457 17.5948 26.4457H18.4613C24.0704 26.4457 28.4624 24.1419 29.7459 17.4788C30.2816 14.6943 30.0044 12.3695 28.5872 10.7365C28.1574 10.2419 27.6237 9.83341 27.0017 9.5C26.9681 9.71526 26.9314 9.93353 26.8879 10.1588Z"
              fill="#1D90CA"/>
        <path d="M25.4507 9.016C25.225 8.95199 24.9922 8.89379 24.7525 8.84239C24.5128 8.79098 24.265 8.74539 24.0113 8.70563C23.1223 8.56596 22.1514 8.5 21.1085 8.5H12.3113C12.0946 8.5 11.8888 8.54753 11.705 8.63385C11.2984 8.82299 10.9978 9.19544 10.9239 9.65228L9.05394 21.1644L9 21.5C9.12286 20.7425 9.79012 20.1838 10.5802 20.1838H13.8736C20.3414 20.1838 25.4058 17.6329 26.8851 10.2536C26.9291 10.0354 26.966 9.82396 27 9.61542C26.6254 9.42338 26.2199 9.25752 25.7834 9.11688C25.6745 9.08196 25.5636 9.04801 25.4507 9.016Z"
              fill="#005894"/>
    </g>
    <defs>
        <clipPath id="clip0_4475_3791">
            <rect width="30" height="36" fill="white" transform="translate(0 0.5)"/>
        </clipPath>
    </defs>
</svg>
