<svg width="258" height="100" viewBox="0 0 258 100" fill="none" xmlns="http://www.w3.org/2000/svg">
<g clip-path="url(#clip0_4062_2327)">
<path d="M70.4468 7.539C65.9259 2.26225 57.7538 0 47.2996 0H16.9578C14.8188 0 13.0013 1.59298 12.6664 3.75291L0.0327967 85.8052C-0.218364 87.4231 1.00503 88.8889 2.60652 88.8889H21.3382L26.0427 58.3319L25.8969 59.2888C26.2318 57.1288 28.0358 55.5359 30.172 55.5359H39.0734C56.5601 55.5359 70.2524 48.2623 74.252 27.2217C74.3709 26.5995 74.4735 25.9938 74.5626 25.402C74.0576 25.1282 74.0576 25.1282 74.5626 25.402C75.7536 17.6251 74.5545 12.3318 70.4468 7.539Z" fill="white"/>
<path d="M33.2103 22.6011C33.7099 22.3577 34.2662 22.2222 34.8496 22.2222H58.6369C61.4537 22.2222 64.0814 22.4103 66.4823 22.8058C67.1709 22.9192 67.838 23.0492 68.4861 23.1985C69.1343 23.3451 69.7635 23.511 70.3739 23.6936C70.6791 23.7848 70.9788 23.8789 71.2732 23.9784C72.4534 24.3822 73.5526 24.8524 74.5626 25.4028C75.7536 17.6229 74.5545 12.3322 70.4468 7.53924C65.9232 2.26232 57.7538 0 47.2996 0H16.9551C14.8188 0 13.0013 1.59303 12.6664 3.75303L0.0327985 85.8052C-0.218362 87.4258 1.00503 88.8889 2.60382 88.8889H21.3382L31.0984 25.5051C31.2982 24.2052 32.1138 23.1404 33.2103 22.6011Z" fill="white"/>
<path d="M74.6885 26.83C70.6145 47.9864 56.6677 55.3037 38.8559 55.3037H29.7864C27.6105 55.3037 25.7729 56.9057 25.4346 59.0778L19.4735 97.2856C19.2506 98.7095 20.34 100 21.7649 100H37.8491C39.7527 100 41.373 98.5983 41.6701 96.6987L41.8269 95.8699L44.8583 76.4462L45.0536 75.3727C45.3507 73.4731 46.971 72.0714 48.8745 72.0714H51.2815C66.8623 72.0714 79.0624 65.6719 82.6275 47.1632C84.1157 39.4287 83.3454 32.9709 79.409 28.4348C78.2151 27.0609 76.7324 25.9261 75.0049 25C74.9113 25.598 74.8095 26.2043 74.6885 26.83Z" fill="#1D90CA"/>
<path d="M70.6965 23.656C70.0694 23.4782 69.4229 23.3165 68.7569 23.1737C68.091 23.0309 67.4029 22.9043 66.6981 22.7938C64.2286 22.4059 61.5316 22.2227 58.6348 22.2227H34.1981C33.596 22.2227 33.0244 22.3547 32.5139 22.5945C31.3846 23.1198 30.5494 24.1544 30.3441 25.4234L25.1498 57.4016L25 58.3338C25.3413 56.2296 27.1948 54.6777 29.3896 54.6777H38.5377C56.5039 54.6777 70.5716 47.5918 74.6809 27.0939C74.803 26.4877 74.9057 25.9003 75 25.3211C73.9595 24.7876 72.833 24.3269 71.6204 23.9362C71.318 23.8392 71.01 23.7449 70.6965 23.656Z" fill="white"/>
</g>
<path d="M146.588 66.0001C145.258 66.0001 144.179 67.0783 144.179 68.4086V96.0988C144.179 97.4289 145.258 98.5074 146.588 98.5074H193.534C194.864 98.5074 195.943 97.4292 195.943 96.0988V68.4086C195.943 67.0784 194.864 66 193.534 66H146.588L146.588 66.0001ZM161.153 69.913C164.107 69.913 166.821 70.941 168.951 72.6581C167.159 74.2617 165.822 76.3685 165.163 78.7565H166.196C166.805 76.7865 167.911 75.0325 169.369 73.6416C170.826 75.0325 171.932 76.7865 172.541 78.7565H173.59C172.922 76.3811 171.583 74.2868 169.792 72.6937C171.927 70.9548 174.651 69.913 177.618 69.913C184.466 69.913 190.017 75.4647 190.017 82.3136C190.017 89.1624 184.466 94.7141 177.618 94.7141C174.602 94.7141 171.835 93.6373 169.686 91.8461C171.609 90.1731 173.026 87.9303 173.675 85.3789H172.663C172.088 87.5204 170.929 89.425 169.368 90.9144C167.808 89.425 166.651 87.5204 166.075 85.3789H165.113C165.765 87.8934 167.164 90.1048 169.058 91.762C166.912 93.5311 164.157 94.5944 161.153 94.5944C154.305 94.5944 148.754 89.0694 148.754 82.2537C148.754 75.438 154.305 69.913 161.153 69.913ZM176.688 78.6303C175.198 78.6303 173.749 79.9328 173.749 82.3783C173.749 83.9999 174.532 85.07 176.072 85.07C176.507 85.0701 177.201 84.892 177.201 84.892L177.431 83.475C177.431 83.475 176.798 83.7953 176.363 83.7953C175.448 83.7953 175.08 83.0912 175.08 82.3346C175.08 80.7997 175.868 79.9551 176.745 79.9551C177.402 79.9551 177.93 80.3271 177.93 80.3271L178.141 78.9489C178.141 78.9489 177.359 78.6303 176.688 78.6303ZM189.213 78.75L187.918 78.7532L187.639 80.4582C187.639 80.4582 187.152 79.7966 186.391 79.7966C185.206 79.7966 184.22 81.2035 184.22 82.8215C184.22 83.8659 184.745 84.8904 185.821 84.8904C186.595 84.8904 187.025 84.3583 187.025 84.3583L186.968 84.8127H188.227L189.213 78.75ZM152.102 78.7678L151.07 84.8451H152.314L153.1 80.2625L153.217 84.8451H154.106L155.766 80.2625L155.03 84.8451H156.352L157.371 78.7678H155.326L154.053 82.4963L153.987 78.7678H152.102L152.102 78.7678ZM165.098 79.1625C165.07 79.1907 164.346 83.366 164.346 83.8745C164.346 84.6275 164.768 84.9638 165.362 84.9583C165.787 84.9547 166.117 84.8478 166.269 84.8031C166.285 84.7988 166.316 84.7901 166.316 84.7901L166.476 83.7031C166.389 83.7031 166.261 83.7403 166.148 83.7403C165.704 83.7403 165.655 83.5044 165.684 83.3294L166.041 81.1117H166.716L166.879 79.9098H166.243L166.373 79.1625H165.098ZM180.134 79.7739C179.265 79.7739 178.6 80.0603 178.6 80.0603L178.416 81.1764C178.416 81.1764 178.965 80.9483 179.796 80.9483C180.267 80.9483 180.612 81.0022 180.612 81.3948C180.612 81.6332 180.57 81.7215 180.57 81.7215C180.57 81.7215 180.198 81.6892 180.025 81.6892C178.93 81.6892 177.78 82.169 177.78 83.6125C177.78 84.7498 178.535 85.0101 179.003 85.0101C179.896 85.0101 180.281 84.4166 180.302 84.4148L180.26 84.9098H181.374L181.873 81.3382C181.873 79.8227 180.582 79.7739 180.134 79.7739V79.7739ZM159.226 79.7804C158.355 79.7804 157.686 80.0667 157.686 80.0667L157.502 81.1829C157.502 81.1829 158.053 80.9548 158.886 80.9548C159.36 80.9548 159.707 81.0089 159.707 81.4012C159.707 81.6395 159.664 81.728 159.664 81.728C159.664 81.728 159.291 81.6957 159.118 81.6957C158.019 81.6957 156.864 82.1747 156.864 83.6174C156.864 84.7541 157.621 85.015 158.091 85.015C158.987 85.015 159.374 84.4215 159.394 84.4197L159.352 84.9147H160.472L160.972 81.3447C160.972 79.83 159.676 79.7804 159.226 79.7804V79.7804ZM163.18 79.7804C162.244 79.7804 161.293 80.1581 161.293 81.4482C161.293 82.9099 162.877 82.7622 162.877 83.3779C162.877 83.7889 162.435 83.8228 162.094 83.8228C161.504 83.8228 160.973 83.6189 160.972 83.6287L160.802 84.7448C160.832 84.7543 161.161 84.9017 162.222 84.9017C162.507 84.9017 164.136 84.9741 164.136 83.2776C164.136 81.6917 162.628 82.006 162.628 81.3689C162.628 81.0517 162.873 80.9516 163.322 80.9516C163.5 80.9516 164.187 81.0082 164.187 81.0082L164.346 79.8807C164.346 79.8808 163.902 79.7804 163.18 79.7804ZM169.029 79.7804C167.728 79.7807 166.766 81.1789 166.766 82.7584C166.766 84.5815 167.972 85.015 169 85.015C169.948 85.015 170.367 84.8031 170.367 84.8031L170.593 83.5591C170.593 83.5591 169.871 83.8762 169.22 83.8762C167.831 83.8762 168.074 82.8425 168.074 82.8425H170.703C170.703 82.8425 170.873 82.0072 170.873 81.6665C170.873 80.8166 170.449 79.7804 169.029 79.7804ZM173.738 79.8338C173.152 79.8338 172.717 80.6216 172.717 80.6216L172.833 79.8985H171.617L170.8 84.8904H172.144C172.525 82.7587 172.595 81.0278 173.503 81.3447C173.662 80.5195 173.816 80.2008 173.99 79.8516C173.99 79.8516 173.909 79.8338 173.738 79.8338ZM184.629 79.8338C184.043 79.8338 183.608 80.6216 183.608 80.6216L183.725 79.8985H182.508L181.691 84.8904H183.034C183.415 82.7587 183.486 81.0278 184.394 81.3447C184.554 80.5195 184.708 80.2008 184.881 79.8516C184.881 79.8516 184.8 79.8338 184.629 79.8338ZM169.022 80.9063C169.761 80.9063 169.626 81.7399 169.626 81.8073H168.171C168.171 81.7212 168.309 80.9063 169.022 80.9063ZM186.594 81.0033C187.064 81.0032 187.306 81.3207 187.306 82.0677C187.306 82.7455 186.964 83.6513 186.256 83.6513C185.786 83.6513 185.566 83.2633 185.566 82.6549C185.566 81.6601 186.021 81.0033 186.594 81.0033ZM180.135 82.7018C180.327 82.702 180.367 82.7207 180.399 82.7293C180.394 82.7285 180.393 82.7294 180.412 82.7325C180.436 82.9549 180.278 83.9975 179.511 83.9975C179.116 83.9975 179.014 83.6832 179.014 83.4976C179.014 83.1359 179.203 82.7018 180.135 82.7018ZM159.228 82.7066C159.446 82.7069 159.469 82.7312 159.506 82.7374C159.53 82.9596 159.371 84.0007 158.602 84.0007C158.205 84.0007 158.102 83.6879 158.102 83.5025C158.102 83.141 158.291 82.7066 159.228 82.7066Z" fill="white"/>
<path d="M254.528 98.9986H211.626C210.751 98.9986 209.912 98.6509 209.293 98.032C208.674 97.4131 208.326 96.5737 208.326 95.6985V81.8159H210.704L211.24 80.5179H212.44L212.975 81.8104H217.653V80.8272L218.071 81.8173H220.5L220.918 80.8107V81.8145H232.541V79.6914H232.761C232.918 79.6969 232.963 79.7107 232.963 79.972V81.8173H238.976V81.3236C239.591 81.6358 240.316 81.8187 241.084 81.8187L241.215 81.8173H241.208H243.738L244.28 80.5247H245.48L246.01 81.8173H250.886V80.588L251.623 81.8173H255.522V73.6989H251.662V74.6574L251.122 73.6989H247.154V74.6574L246.657 73.6989H241.299C240.487 73.6597 239.678 73.8267 238.949 74.1843L238.978 74.172V73.6989H235.281V74.172C234.834 73.8197 234.269 73.6511 233.701 73.7003H233.71H220.203L219.296 75.7973L218.365 73.7003H214.111V74.6587L213.642 73.7003H210.012L208.33 77.5505V69.3001C208.33 68.4249 208.678 67.5855 209.297 66.9666C209.916 66.3477 210.755 66 211.63 66H254.532C255.407 66 256.247 66.3477 256.866 66.9666C257.485 67.5855 257.832 68.4249 257.832 69.3001V83.7107H255.257C255.214 83.7089 255.167 83.708 255.118 83.708C254.521 83.708 253.967 83.8867 253.505 84.1934L253.516 84.1865V83.7107H249.707C249.112 83.6775 248.523 83.8467 248.036 84.1906L248.045 84.1851V83.7094H241.244V84.1851C240.687 83.8721 240.058 83.7083 239.419 83.7094H239.365H239.368H234.881V84.1851C234.295 83.8093 233.6 83.6422 232.907 83.7107L232.919 83.7094H227.899L226.749 84.9524L225.674 83.7094H218.174V91.8332H225.534L226.718 90.5709L227.833 91.8332H232.369V89.9315H233.002C233.61 89.9564 234.217 89.8548 234.784 89.6331L234.753 89.6441V91.836H238.494V89.7197H238.674C238.902 89.7197 238.925 89.728 238.925 89.959V91.8373H250.292L250.43 91.8401C251.082 91.8401 251.69 91.6448 252.196 91.3107L252.184 91.3176V91.8373H255.789L255.961 91.8401C256.636 91.8401 257.278 91.7012 257.861 91.4496L257.83 91.4619V95.6999C257.83 96.5751 257.482 97.4145 256.863 98.0334C256.244 98.6523 255.405 99 254.529 99L254.528 98.9986ZM237.347 90.6947H235.947V84.8713H239.159C239.739 84.8175 240.323 84.9151 240.855 85.1545L240.833 85.1463C241.263 85.3828 241.55 85.8338 241.55 86.3508L241.548 86.443V86.4389L241.549 86.4911C241.549 87.1594 241.146 87.7342 240.569 87.9844L240.558 87.9885C240.834 88.0875 241.065 88.2567 241.237 88.4753L241.24 88.4781C241.433 88.7996 241.515 89.1764 241.471 89.5492L241.472 89.541V90.6933H240.075V89.9645C240.143 89.5677 240.063 89.1598 239.851 88.8177L239.855 88.8246C239.71 88.7144 239.544 88.6348 239.367 88.5906C239.19 88.5464 239.006 88.5385 238.826 88.5674L238.835 88.5661H237.347V90.6933V90.6947ZM237.347 86.0745V87.3821H239.038C239.277 87.4042 239.517 87.3614 239.734 87.2584L239.726 87.2625C239.814 87.2053 239.887 87.1269 239.937 87.0344C239.988 86.942 240.014 86.8384 240.014 86.7331L240.013 86.7015C240.021 86.5963 239.998 86.4924 239.947 86.3998C239.897 86.3071 239.821 86.231 239.728 86.1803L239.726 86.179C239.516 86.0876 239.288 86.0498 239.06 86.069H239.066L237.347 86.0745ZM224.937 90.6933H219.427V84.8713H225.023L226.735 86.7799L228.505 84.8713H232.951C234.529 84.8713 235.297 85.4997 235.297 86.7895C235.297 88.1027 234.503 88.7407 232.876 88.7407H231.137V90.6919H228.432L226.719 88.7682L224.937 90.6933ZM229.751 85.4956L227.614 87.7919L229.751 90.1625V85.4956ZM220.814 88.3213V89.4791H224.236L225.817 87.7713L224.296 86.0745H220.813V87.1333H223.868V88.3199L220.814 88.3213ZM231.137 86.0758V87.5581H232.934C233.484 87.5581 233.8 87.2776 233.8 86.7881C233.8 86.3206 233.506 86.0745 232.949 86.0745L231.137 86.0758ZM255.94 90.696H253.253V89.4447H255.929C256.129 89.4722 256.332 89.4198 256.494 89.299L256.493 89.3003C256.545 89.2525 256.586 89.1945 256.614 89.1298C256.642 89.0652 256.657 88.9954 256.657 88.925V88.903C256.657 88.8334 256.641 88.7647 256.612 88.7015C256.583 88.6384 256.541 88.5823 256.488 88.5372C256.346 88.4327 256.17 88.3865 255.995 88.4079H255.998L255.741 88.3997C254.484 88.3667 253.061 88.3282 253.061 86.6052C253.061 85.7665 253.586 84.8713 255.056 84.8713H257.83V86.1116H255.293C255.097 86.0903 254.899 86.1296 254.726 86.2243L254.732 86.2216C254.664 86.2664 254.609 86.3285 254.574 86.4016C254.538 86.4746 254.523 86.5559 254.529 86.6369V86.6355V86.6506C254.529 86.7433 254.559 86.8336 254.613 86.9086C254.667 86.9837 254.744 87.0397 254.832 87.0686L254.835 87.07C255.009 87.1243 255.192 87.1467 255.374 87.136H255.37L256.125 87.1553C256.694 87.098 257.262 87.2675 257.707 87.6269L257.703 87.6242C257.744 87.6572 257.781 87.6934 257.812 87.7328L257.813 87.7342L257.83 89.9507C257.598 90.2207 257.304 90.4297 256.973 90.5594C256.642 90.6891 256.284 90.7355 255.931 90.6947L255.94 90.696ZM250.51 90.696H247.799V89.4447H250.496C250.698 89.4707 250.902 89.4186 251.067 89.299L251.064 89.3003C251.116 89.2524 251.157 89.1943 251.185 89.1297C251.213 89.0651 251.227 88.9953 251.227 88.925V88.9112C251.227 88.8404 251.212 88.7704 251.183 88.7058C251.153 88.6413 251.111 88.5838 251.057 88.5372C250.912 88.4347 250.735 88.3888 250.558 88.4079H250.561L250.305 88.3997C249.053 88.3667 247.631 88.3282 247.631 86.6052C247.631 85.7665 248.153 84.8713 249.621 84.8713H252.409V86.1116H249.857C249.662 86.0911 249.466 86.1305 249.295 86.2243L249.3 86.2216C249.228 86.2713 249.17 86.3396 249.134 86.4193C249.097 86.4989 249.083 86.587 249.092 86.6742C249.101 86.7614 249.134 86.8444 249.187 86.9146C249.239 86.9848 249.31 87.0394 249.391 87.0728L249.394 87.0741C249.57 87.1293 249.755 87.1517 249.94 87.1401H249.935L250.685 87.1594C251.257 87.1029 251.829 87.2727 252.277 87.6324L252.273 87.6283C252.424 87.7947 252.539 87.9908 252.611 88.2041C252.682 88.4174 252.709 88.6432 252.688 88.8672V88.8603C252.692 90.0745 251.957 90.6933 250.506 90.6933L250.51 90.696ZM246.965 90.696H242.318V84.8699H246.961V86.0731H243.706V87.1319H246.886V88.3186H243.706V89.4764L246.965 89.4819V90.6919V90.696ZM249.674 80.6774H246.84L246.298 79.3793H243.408L242.883 80.6774H241.255C240.524 80.7159 239.804 80.4855 239.231 80.0297L239.237 80.0338C238.965 79.7335 238.758 79.3797 238.631 78.9949C238.503 78.6102 238.457 78.203 238.495 77.7994L238.494 77.8104C238.457 77.3993 238.505 76.9851 238.635 76.5932C238.764 76.2014 238.973 75.8402 239.247 75.5319L239.244 75.5346C239.533 75.282 239.871 75.0915 240.236 74.9751C240.602 74.8587 240.987 74.8189 241.369 74.8581L241.358 74.8567H242.705V76.0984H241.385C241.192 76.0732 240.996 76.0911 240.81 76.1508C240.625 76.2105 240.455 76.3105 240.313 76.4436L240.314 76.4422C240.021 76.8191 239.878 77.2916 239.914 77.7677V77.7609C239.871 78.2502 240.008 78.7384 240.3 79.1332L240.296 79.1277C240.569 79.3515 240.919 79.4591 241.271 79.4274H241.266H241.89L243.858 74.8485H245.948L248.303 80.3487V74.8485H250.422L252.867 78.9022V74.8485H254.297V80.6677H252.312L249.671 76.2978V80.6677L249.674 80.6774ZM244.863 75.8399L243.904 78.161H245.825L244.863 75.8399ZM231.389 80.6746H229.997V74.8526H233.198C233.783 74.7922 234.372 74.8915 234.905 75.14L234.884 75.1318C235.098 75.2506 235.276 75.4241 235.4 75.6347C235.524 75.8452 235.59 76.085 235.591 76.3294L235.588 76.4257V76.4216V76.4642C235.588 76.7818 235.497 77.0926 235.324 77.3595C235.152 77.6263 234.907 77.8378 234.617 77.9685L234.606 77.9726C234.883 78.0771 235.115 78.2449 235.292 78.4594L235.295 78.4621C235.493 78.7842 235.574 79.1642 235.525 79.5388L235.526 79.5306V80.6732H234.122L234.117 79.939V79.829C234.168 79.4699 234.088 79.1044 233.893 78.799L233.897 78.8059C233.751 78.6993 233.586 78.6224 233.41 78.5797C233.234 78.537 233.052 78.5293 232.874 78.557L232.882 78.5556H231.39V80.6732L231.389 80.6746ZM231.389 76.064V77.3566H233.077C233.316 77.3836 233.557 77.3406 233.772 77.2328L233.765 77.2356C233.853 77.1818 233.925 77.1064 233.976 77.0166C234.026 76.9269 234.053 76.8257 234.053 76.7227L234.052 76.6842C234.059 76.5797 234.035 76.4768 233.984 76.3857C233.932 76.2946 233.855 76.2205 233.762 76.1727L233.759 76.1713C233.55 76.0802 233.322 76.0424 233.095 76.0613H233.099L231.389 76.064ZM216.654 80.6746H213.826L213.292 79.3766H210.393L209.854 80.6746H208.341L210.834 74.8526H212.901L215.267 80.3625V74.8526H217.538L219.358 78.8004L221.032 74.8526H223.349V80.6719H221.919L221.916 76.1177L219.899 80.6732H218.678L216.655 76.1108V80.6732L216.654 80.6746ZM211.835 75.8399L210.888 78.161H212.788L211.835 75.8399ZM237.807 80.6732H236.388V74.8526H237.809V80.6719L237.807 80.6732ZM229.026 80.6732H224.387V74.8526H229.035V76.0627H225.778V77.1118H228.956V78.3068H225.776V79.4701H229.032V80.6719L229.026 80.6732Z" fill="white"/>
<path d="M124.111 80.4614C124.111 80.4614 124.662 83.1607 124.786 83.7267H122.362C122.602 83.0809 123.523 80.5703 123.523 80.5703C123.509 80.592 123.763 79.91 123.908 79.4891L124.111 80.4614ZM131.795 69.4829V95.0245C131.795 96.9473 130.235 98.5074 128.312 98.5074H93.4829C91.5601 98.5074 90 96.9473 90 95.0245V69.4829C90 67.5601 91.5601 66 93.4829 66H128.312C130.235 66 131.795 67.5601 131.795 69.4829ZM101.066 87.7103L105.651 76.4488H102.568L99.7159 84.1403L99.4039 82.5802L98.3881 77.3994C98.2212 76.681 97.706 76.4778 97.0675 76.4488H92.3727L92.322 76.6737C93.4684 76.964 94.4915 77.3848 95.384 77.9145L97.9817 87.7103H101.066ZM107.915 87.7248L109.744 76.4488H106.827L105.006 87.7248H107.915ZM118.067 84.0387C118.081 82.7544 117.297 81.7748 115.621 80.9694C114.598 80.4542 113.974 80.1059 113.974 79.5762C113.989 79.0973 114.504 78.6039 115.65 78.6039C116.601 78.5821 117.297 78.807 117.82 79.032L118.081 79.1553L118.48 76.7173C117.907 76.4923 116.993 76.2384 115.868 76.2384C112.987 76.2384 110.963 77.7767 110.948 79.968C110.927 81.5861 112.4 82.4859 113.503 83.0301C114.627 83.5816 115.012 83.9444 115.012 84.4305C114.997 85.1852 114.098 85.5335 113.263 85.5335C112.102 85.5335 111.478 85.3521 110.528 84.9312L110.143 84.7498L109.737 87.2822C110.419 87.5942 111.681 87.8699 112.987 87.8844C116.049 87.8917 118.045 86.3752 118.067 84.0387ZM128.312 87.7248L125.961 76.4488H123.705C123.008 76.4488 122.478 76.652 122.181 77.3848L117.849 87.7248H120.911C120.911 87.7248 121.412 86.3316 121.521 86.0341H125.265C125.352 86.4332 125.613 87.7248 125.613 87.7248H128.312Z" fill="white"/>
<defs>
<clipPath id="clip0_4062_2327">
<rect width="83.3333" height="100" fill="white"/>
</clipPath>
</defs>
</svg>
