<svg id="Layer_1" enable-background="new 0 0 512 512" height="512" viewBox="0 0 512 512" width="512" xmlns="http://www.w3.org/2000/svg"><g><path d="m384.533 56.233c-8.284 0-15 6.716-15 15s6.716 15 15 15c22.736 0 41.233 18.497 41.233 41.233 0 8.284 6.716 15 15 15s15-6.716 15-15c.001-39.278-31.954-71.233-71.233-71.233z"/><path d="m384.533 0c-8.284 0-15 6.716-15 15s6.716 15 15 15c53.743 0 97.467 43.724 97.467 97.467 0 8.284 6.716 15 15 15s15-6.716 15-15c0-70.286-57.181-127.467-127.467-127.467z"/><circle cx="384.533" cy="127.467" r="15"/><circle cx="199.767" cy="183.7" r="15"/><circle cx="273.609" cy="214.291" r="15"/><path d="m199.767 112.467c-110.152 0-199.767 89.615-199.767 199.766s89.615 199.767 199.767 199.767 199.767-89.615 199.767-199.767-89.616-199.766-199.767-199.766zm169.766 199.766c0 93.609-76.157 169.767-169.767 169.767s-169.766-76.157-169.766-169.767c0-3.053.085-6.086.245-9.1h108.135c6.753 27.629 31.706 48.2 61.386 48.2s54.634-20.571 61.387-48.2h108.135c.16 3.014.245 6.047.245 9.1zm-202.966-24.1c0-18.307 14.893-33.2 33.2-33.2s33.2 14.894 33.2 33.2-14.894 33.2-33.2 33.2-33.2-14.893-33.2-33.2zm94.586-15c-6.753-27.629-31.706-48.2-61.387-48.2s-54.633 20.571-61.386 48.2h-103.828c17.706-74.823 85.058-130.667 165.214-130.667s147.509 55.844 165.214 130.667z"/><circle cx="125.924" cy="214.291" r="15"/></g></svg>