<svg width="24" height="24" viewBox="0 0 24 24" fill="none" xmlns="http://www.w3.org/2000/svg">
<path d="M7.02399 2.3064C7.7753 2.55993 8.48982 2.91164 9.14899 3.3524C10.0805 3.11397 11.0384 2.99436 12 2.9964C12.993 2.9964 13.951 3.1204 14.849 3.3514C15.5079 2.91107 16.2221 2.5597 16.973 2.3064C17.67 2.0694 18.663 1.6854 19.253 2.3384C19.653 2.7824 19.753 3.5264 19.824 4.0944C19.904 4.7284 19.923 5.5544 19.713 6.3744C20.516 7.4114 21 8.6484 21 9.9964C21 12.0384 19.894 13.8114 18.257 15.0394C17.4688 15.6223 16.5951 16.0797 15.667 16.3954C15.881 16.8854 16 17.4274 16 17.9964V20.9964C16 21.2616 15.8946 21.516 15.7071 21.7035C15.5196 21.891 15.2652 21.9964 15 21.9964H8.99999C8.73477 21.9964 8.48041 21.891 8.29288 21.7035C8.10534 21.516 7.99999 21.2616 7.99999 20.9964V20.0054C7.04499 20.1224 6.24399 20.0184 5.56299 19.7294C4.85099 19.4274 4.35499 18.9594 3.98199 18.5114C3.62799 18.0874 3.24199 17.1314 2.68399 16.9454C2.55936 16.9039 2.44413 16.8383 2.34487 16.7522C2.24562 16.6662 2.16427 16.5615 2.1055 16.444C1.98678 16.2068 1.96718 15.9321 2.05099 15.6804C2.13479 15.4287 2.31515 15.2206 2.55239 15.1019C2.78962 14.9832 3.06429 14.9636 3.31599 15.0474C3.98199 15.2694 4.41599 15.7494 4.71299 16.1354C5.19299 16.7554 5.58299 17.5654 6.34299 17.8884C6.65599 18.0214 7.11499 18.1084 7.83299 18.0104L7.99999 17.9764C8.00229 17.4322 8.1156 16.8943 8.33299 16.3954C7.40486 16.0797 6.53118 15.6223 5.74299 15.0394C4.10599 13.8114 2.99999 12.0394 2.99999 9.9964C2.99999 8.6504 3.48299 7.4144 4.28399 6.3784C4.07399 5.5584 4.09199 4.7304 4.17199 4.0954L4.17699 4.0574C4.24999 3.4754 4.33499 2.7904 4.74299 2.3384C5.33299 1.6854 6.32698 2.0704 7.02298 2.3074L7.02399 2.3064Z" fill="white"/>
</svg>
