<svg width="20" height="18" viewBox="0 0 20 18" fill="none" xmlns="http://www.w3.org/2000/svg">
<path d="M10.421 15.1765V14.1471C10.421 13.9275 10.4668 13.718 10.5583 13.5187C10.6498 13.3194 10.7725 13.1445 10.9263 12.9941L15.0737 8.93824C15.2 8.81471 15.3403 8.72549 15.4947 8.67059C15.6491 8.61569 15.8035 8.58824 15.9579 8.58824C16.1263 8.58824 16.2877 8.61925 16.4421 8.68129C16.5965 8.74333 16.7368 8.83584 16.8632 8.95882L17.6421 9.72059C17.7544 9.84412 17.8422 9.98137 17.9057 10.1324C17.9691 10.2833 18.0006 10.4343 18 10.5853C17.9994 10.7363 17.9714 10.8908 17.9158 11.0489C17.8602 11.2071 17.769 11.3476 17.6421 11.4706L13.4947 15.5265C13.3403 15.6775 13.1615 15.7941 12.9583 15.8765C12.7551 15.9588 12.5409 16 12.3158 16H11.2632C11.0246 16 10.8247 15.9209 10.6636 15.7628C10.5025 15.6047 10.4216 15.4093 10.421 15.1765ZM2 14.3529V12.8706C2 12.4039 2.12295 11.9751 2.36884 11.5842C2.61474 11.1933 2.94091 10.8947 3.34737 10.6882C4.21754 10.2627 5.10175 9.94376 6 9.73129C6.89824 9.51882 7.81052 9.41231 8.73684 9.41176C9.25614 9.41176 9.76842 9.44278 10.2737 9.50482C10.7789 9.56686 11.2842 9.66624 11.7895 9.80294L9.47368 12.0676C9.23508 12.301 9.05263 12.5686 8.92631 12.8706C8.8 13.1726 8.73684 13.4882 8.73684 13.8176V15.1765H2.8421C2.60351 15.1765 2.40365 15.0974 2.24253 14.9393C2.0814 14.7812 2.00056 14.5857 2 14.3529ZM15.9579 11.3882L16.7368 10.5853L15.9579 9.82353L15.1579 10.6059L15.9579 11.3882ZM8.73684 8.58824C7.81052 8.58824 7.01754 8.26569 6.35789 7.62059C5.69824 6.97549 5.36842 6.2 5.36842 5.29412C5.36842 4.38824 5.69824 3.61275 6.35789 2.96765C7.01754 2.32255 7.81052 2 8.73684 2C9.66315 2 10.4561 2.32255 11.1158 2.96765C11.7754 3.61275 12.1053 4.38824 12.1053 5.29412C12.1053 6.2 11.7754 6.97549 11.1158 7.62059C10.4561 8.26569 9.66315 8.58824 8.73684 8.58824Z" fill="white"/>
</svg>
