<svg width="12" height="15" viewBox="0 0 12 15" fill="none" xmlns="http://www.w3.org/2000/svg">
<path d="M4.00468 5.55469C3.74861 5.86901 3.60039 6.23261 3.60039 6.62207C3.6005 7.80087 4.9436 8.75684 6.60039 8.75684C8.25699 8.75669 9.60028 7.80077 9.60039 6.62207C9.60039 6.23257 9.45123 5.86903 9.19511 5.55469H10.2684C10.4125 5.55475 10.5537 5.59508 10.6697 5.66895C10.7855 5.74276 10.8714 5.84622 10.9139 5.96484L11.9695 8.89355C11.9896 8.94917 11.9997 9.00719 11.9998 9.06543V11.377C11.9997 11.5312 11.929 11.679 11.8025 11.7881C11.6759 11.8973 11.504 11.959 11.325 11.959H1.8748C1.69585 11.9589 1.5238 11.8972 1.39726 11.7881C1.27099 11.679 1.20008 11.5311 1.2 11.377V9.06836C1.20011 9.01012 1.21024 8.9521 1.23027 8.89648L2.28691 5.96484C2.32948 5.84616 2.41518 5.74274 2.53105 5.66895C2.64705 5.59508 2.78725 5.55475 2.93144 5.55469H4.00468ZM2.92851 9.9209V10.7949H3.53593V9.9209H2.92851ZM4.61601 9.9209V10.7949H5.22343V9.9209H4.61601ZM6.30351 9.9209V10.7949H6.91093V9.9209H6.30351ZM7.98418 9.9209V10.7949H8.59843L8.5916 9.9209H7.98418ZM9.67168 9.9209V10.7949H10.2859L10.2791 9.9209H9.67168ZM2.21269 8.75684V9.16406H10.9881V8.75684H2.21269Z" fill="white"/>
<path d="M6.6 1H7.66666V4.04938H9L6.6 6.33642M6.6 1H5.53333V4.04938H4.2L6.6 6.33642" fill="white"/>
<path d="M6.6 1H7.66666V4.04938H9L6.6 6.33642L4.2 4.04938H5.53333V1H6.6Z" stroke="white" stroke-width="2" stroke-linecap="round" stroke-linejoin="round"/>
</svg>
