<svg width="24" height="24" viewBox="0 0 24 24" fill="none" xmlns="http://www.w3.org/2000/svg">
<path d="M11.25 2.74393C11.25 2.62793 11.15 2.53593 11.034 2.54793C8.69384 2.78713 6.52565 3.88604 4.94914 5.63195C3.37263 7.37786 2.49994 9.64658 2.5 11.9989C2.49999 13.8809 3.05897 15.7205 4.10603 17.2844C5.15309 18.8482 6.64106 20.0658 8.38116 20.7827C10.1213 21.4996 12.0351 21.6836 13.8799 21.3111C15.7247 20.9387 17.4173 20.0268 18.743 18.6909C18.7624 18.6713 18.7774 18.6478 18.7871 18.622C18.7968 18.5962 18.801 18.5687 18.7994 18.5412C18.7978 18.5136 18.7904 18.4867 18.7778 18.4622C18.7652 18.4377 18.7475 18.4162 18.726 18.3989L11.529 12.5819C11.442 12.5117 11.3718 12.4229 11.3235 12.322C11.2752 12.2212 11.2501 12.1108 11.25 11.9989V2.74393Z" fill="white"/>
<path d="M19.67 17.2338C19.76 17.3068 19.894 17.2878 19.958 17.1898C20.7876 15.9216 21.3 14.4725 21.452 12.9648C21.4545 12.9375 21.4513 12.9099 21.4425 12.8839C21.4337 12.8578 21.4196 12.834 21.4011 12.8137C21.3825 12.7935 21.3599 12.7773 21.3348 12.7663C21.3096 12.7553 21.2825 12.7497 21.255 12.7498H14.687C14.6458 12.7499 14.6055 12.7627 14.5719 12.7865C14.5382 12.8104 14.5127 12.844 14.4989 12.8829C14.4851 12.9218 14.4837 12.964 14.4948 13.0037C14.5059 13.0434 14.529 13.0787 14.561 13.1048L19.67 17.2338ZM21.255 11.2498C21.371 11.2498 21.463 11.1498 21.452 11.0338C21.23 8.85886 20.2646 6.82706 18.7186 5.28115C17.1727 3.73525 15.1409 2.76984 12.966 2.54779C12.9386 2.54514 12.9109 2.54826 12.8848 2.55696C12.8586 2.56567 12.8346 2.57976 12.8142 2.59832C12.7939 2.61689 12.7777 2.63951 12.7666 2.66474C12.7555 2.68997 12.7499 2.71724 12.75 2.74479V10.9498C12.75 11.0294 12.7816 11.1057 12.8379 11.1619C12.8941 11.2182 12.9704 11.2498 13.05 11.2498H21.255Z" fill="white"/>
</svg>
