<svg width="16" height="16" viewBox="0 0 16 16" fill="none" xmlns="http://www.w3.org/2000/svg">
<path fill-rule="evenodd" clip-rule="evenodd" d="M11.4601 10.3188L15.7639 14.6227C15.9151 14.7741 16.0001 14.9793 16 15.1933C15.9999 15.4074 15.9148 15.6126 15.7635 15.7639C15.6121 15.9151 15.4068 16.0001 15.1928 16C14.9788 15.9999 14.7736 15.9148 14.6223 15.7635L10.3185 11.4595C9.03194 12.4561 7.41407 12.925 5.79403 12.771C4.17398 12.617 2.67346 11.8516 1.59771 10.6305C0.521957 9.40935 -0.0482098 7.82428 0.00319691 6.1977C0.0546036 4.57112 0.723722 3.02522 1.87443 1.87448C3.02514 0.72374 4.57101 0.054605 6.19754 0.00319699C7.82408 -0.048211 9.40911 0.52197 10.6302 1.59775C11.8513 2.67352 12.6167 4.17409 12.7707 5.79417C12.9247 7.41426 12.4558 9.03217 11.4593 10.3188M6.4003 11.1996C7.67328 11.1996 8.89412 10.6939 9.79425 9.7937C10.6944 8.89354 11.2001 7.67267 11.2001 6.39966C11.2001 5.12665 10.6944 3.90577 9.79425 3.00562C8.89412 2.10546 7.67328 1.59976 6.4003 1.59976C5.12732 1.59976 3.90648 2.10546 3.00634 3.00562C2.10621 3.90577 1.60052 5.12665 1.60052 6.39966C1.60052 7.67267 2.10621 8.89354 3.00634 9.7937C3.90648 10.6939 5.12732 11.1996 6.4003 11.1996Z" fill="white"/>
</svg>
