<svg width="17" height="17" viewBox="0 0 17 17" fill="none" xmlns="http://www.w3.org/2000/svg">
<g clip-path="url(#clip0_6774_9102)">
<path d="M14.5104 10.4109C15.192 10.8376 15.1607 11.8264 14.4163 12.201L9.18124 14.8388C8.9712 14.9447 8.7372 15 8.4996 15C8.262 15 8.028 14.9447 7.81796 14.8388L2.58285 12.201C1.83925 11.8257 1.80717 10.8376 2.48881 10.4109L2.53474 10.4387L7.81796 13.1016C8.028 13.2074 8.262 13.2628 8.4996 13.2628C8.7372 13.2628 8.9712 13.2074 9.18124 13.1016L14.4163 10.4638C14.4486 10.4473 14.4795 10.4297 14.5104 10.4109ZM14.5104 7.63139C14.6609 7.72644 14.7844 7.85554 14.8699 8.00717C14.9553 8.1588 15 8.32824 15 8.50035C15 8.67246 14.9553 8.84189 14.8699 8.99352C14.7844 9.14515 14.6609 9.27425 14.5104 9.36931L14.4163 9.42142L9.18124 12.0592C8.99083 12.1552 8.78048 12.2098 8.56531 12.219C8.35014 12.2283 8.13549 12.192 7.93679 12.1127L7.81869 12.0592L2.58285 9.42142C1.83925 9.04618 1.80717 8.05805 2.48881 7.63139L2.53474 7.65918L7.81796 10.322C8.00846 10.4181 8.21894 10.4727 8.43425 10.482C8.64956 10.4912 8.86434 10.4549 9.06313 10.3755L9.18124 10.322L14.4163 7.6842C14.4486 7.66774 14.4795 7.65012 14.5104 7.63139ZM9.18124 2.16122L14.4163 4.79902C15.1935 5.19024 15.1935 6.25134 14.4163 6.64187L9.18124 9.28036C8.9712 9.38624 8.7372 9.44158 8.4996 9.44158C8.262 9.44158 8.028 9.38624 7.81796 9.28036L2.58285 6.64187C1.80572 6.25065 1.80572 5.19024 2.58285 4.79902L7.81796 2.16122C8.028 2.05535 8.262 2 8.4996 2C8.7372 2 8.9712 2.05535 9.18124 2.16122Z" fill="white"/>
</g>
<defs>
<clipPath id="clip0_6774_9102">
<rect width="17" height="17" fill="white"/>
</clipPath>
</defs>
</svg>
