<svg width="24" height="24" viewBox="0 0 24 24" fill="none" xmlns="http://www.w3.org/2000/svg">
<path d="M9.48 3.46892C7.78641 2.66033 5.41922 2.26423 2.25 2.25017C1.95111 2.24611 1.65809 2.33327 1.41 2.50002C1.20637 2.63765 1.03968 2.82322 0.924597 3.0404C0.809512 3.25757 0.749555 3.4997 0.750002 3.74548V17.1564C0.750002 18.063 1.395 18.7469 2.25 18.7469C5.58141 18.7469 8.92313 19.0581 10.9247 20.95C10.9521 20.976 10.9865 20.9934 11.0237 21C11.0608 21.0066 11.0991 21.0021 11.1338 20.9871C11.1685 20.9722 11.1979 20.9473 11.2186 20.9157C11.2393 20.8841 11.2502 20.8471 11.25 20.8094V5.00736C11.2501 4.90075 11.2272 4.79537 11.1831 4.69833C11.1389 4.6013 11.0745 4.51486 10.9941 4.44486C10.5356 4.05291 10.0263 3.72463 9.48 3.46892ZM22.59 2.49861C22.3418 2.33227 22.0488 2.24561 21.75 2.25017C18.5808 2.26423 16.2136 2.65845 14.52 3.46892C13.9737 3.72416 13.4643 4.05179 13.0055 4.44298C12.9252 4.51309 12.8609 4.59955 12.8168 4.69657C12.7728 4.7936 12.75 4.89893 12.75 5.00548V20.8085C12.75 20.8447 12.7607 20.8802 12.7807 20.9104C12.8008 20.9407 12.8293 20.9643 12.8628 20.9784C12.8962 20.9924 12.9331 20.9963 12.9687 20.9895C13.0044 20.9827 13.0372 20.9656 13.0631 20.9402C14.2664 19.7449 16.3781 18.7455 21.7519 18.746C22.1497 18.746 22.5312 18.5879 22.8125 18.3066C23.0938 18.0253 23.2519 17.6438 23.2519 17.246V3.74595C23.2524 3.49968 23.1923 3.25707 23.0769 3.03953C22.9615 2.82199 22.7942 2.63621 22.59 2.49861Z" fill="white"/>
</svg>
