<svg width="20" height="20" viewBox="0 0 20 20" fill="none" xmlns="http://www.w3.org/2000/svg">
<path d="M6.02417 0.32951C6.77548 0.582792 7.48999 0.934155 8.14915 1.37447C9.08065 1.13628 10.0386 1.01679 11.0001 1.01883C11.9931 1.01883 12.9511 1.1427 13.8491 1.37347C14.508 0.933583 15.2221 0.582559 15.9731 0.32951C16.67 0.0927452 17.663 -0.290874 18.253 0.361479C18.653 0.805039 18.753 1.5483 18.824 2.11574C18.904 2.74911 18.923 3.57429 18.713 4.39348C19.516 5.42945 20 6.66523 20 8.01189C20 10.0519 18.894 11.8231 17.257 13.0499C16.4689 13.6322 15.5952 14.0892 14.6671 14.4046C14.8811 14.8941 15.0001 15.4355 15.0001 16.004V19.001C15.0001 19.2659 14.8947 19.52 14.7072 19.7074C14.5196 19.8947 14.2653 20 14.0001 20H8.00015C7.73494 20 7.48059 19.8947 7.29305 19.7074C7.10552 19.52 7.00016 19.2659 7.00016 19.001V18.011C6.04517 18.1279 5.24418 18.024 4.56319 17.7352C3.8512 17.4335 3.3552 16.966 2.98221 16.5185C2.62821 16.0949 2.24222 15.1398 1.68422 14.954C1.5596 14.9125 1.44437 14.847 1.34511 14.761C1.24586 14.6751 1.16452 14.5705 1.10574 14.4531C0.987029 14.2161 0.967421 13.9417 1.05123 13.6903C1.13504 13.4388 1.31539 13.2309 1.55262 13.1123C1.78986 12.9937 2.06453 12.9742 2.31621 13.0579C2.98221 13.2797 3.4162 13.7592 3.7132 14.1448C4.19319 14.7642 4.58319 15.5734 5.34318 15.8961C5.65618 16.0289 6.11517 16.1159 6.83316 16.0179L7.00016 15.984C7.00246 15.4404 7.11577 14.9029 7.33316 14.4046C6.40504 14.0892 5.53137 13.6322 4.74319 13.0499C3.10621 11.8231 2.00022 10.0529 2.00022 8.01189C2.00022 6.66722 2.48321 5.43245 3.2842 4.39748C3.07421 3.57829 3.09221 2.75111 3.1722 2.11674L3.1772 2.07878C3.2502 1.49735 3.3352 0.813031 3.7432 0.361479C4.33319 -0.290874 5.32718 0.0937444 6.02317 0.33051L6.02417 0.32951Z" fill="#1D90CA"/>
</svg>
