<svg width="24" height="24" viewBox="0 0 24 24" fill="none" xmlns="http://www.w3.org/2000/svg">
<path d="M17.4578 15.6923L15.9906 11.5768C15.9316 11.4098 15.8128 11.2637 15.6516 11.1599C15.4905 11.0561 15.2956 11.0001 15.0953 11H4.90469C4.70443 11.0001 4.50947 11.0561 4.34836 11.1599C4.18724 11.2637 4.06845 11.4098 4.00937 11.5768L2.54219 15.6964C2.51437 15.7745 2.50015 15.8559 2.5 15.9377V19.1818C2.5 19.3988 2.59877 19.6069 2.77459 19.7604C2.9504 19.9138 3.18886 20 3.4375 20H16.5625C16.8111 20 17.0496 19.9138 17.2254 19.7604C17.4012 19.6069 17.5 19.3988 17.5 19.1818V15.9336C17.4998 15.8518 17.4856 15.7704 17.4578 15.6923ZM5.74375 18.3636H4.9V17.1364H5.74375V18.3636ZM8.0875 18.3636H7.24375V17.1364H8.0875V18.3636ZM10.4313 18.3636H9.5875V17.1364H10.4313V18.3636ZM12.775 18.3636H11.9219V17.1364H12.7656L12.775 18.3636ZM15.1187 18.3636H14.2656V17.1364H15.1094L15.1187 18.3636ZM16.0938 16.0727H3.90625V15.5H16.0938V16.0727Z" fill="white"/>
<ellipse cx="11" cy="12" rx="4.5" ry="3" fill="#080B1C"/>
<path d="M10 5H11.5556V9H13.5L10 12M10 5H8.44444V9H6.5L10 12" fill="white"/>
<path d="M10 5H11.5556V9H13.5L10 12L6.5 9H8.44444V5H10Z" stroke="white" stroke-width="3" stroke-linecap="round" stroke-linejoin="round"/>
</svg>
