<svg width="17" height="21" viewBox="0 0 17 21" fill="none" xmlns="http://www.w3.org/2000/svg">
<path d="M8 11C7.16667 11 6.45833 10.7083 5.875 10.125C5.29167 9.54167 5 8.83333 5 8C5 7.16667 5.29167 6.45833 5.875 5.875C6.45833 5.29167 7.16667 5 8 5C8.83333 5 9.54167 5.29167 10.125 5.875C10.7083 6.45833 11 7.16667 11 8C11 8.83333 10.7083 9.54167 10.125 10.125C9.54167 10.7083 8.83333 11 8 11ZM2 21V13.275C1.36667 12.575 0.875 11.775 0.525 10.875C0.175 9.975 0 9.01667 0 8C0 5.76667 0.775 3.875 2.325 2.325C3.875 0.775 5.76667 0 8 0C10.2333 0 12.125 0.775 13.675 2.325C15.225 3.875 16 5.76667 16 8C16 9.01667 15.825 9.975 15.475 10.875C15.125 11.775 14.6333 12.575 14 13.275V21L8 19L2 21ZM8 14C9.66667 14 11.0833 13.4167 12.25 12.25C13.4167 11.0833 14 9.66667 14 8C14 6.33333 13.4167 4.91667 12.25 3.75C11.0833 2.58333 9.66667 2 8 2C6.33333 2 4.91667 2.58333 3.75 3.75C2.58333 4.91667 2 6.33333 2 8C2 9.66667 2.58333 11.0833 3.75 12.25C4.91667 13.4167 6.33333 14 8 14Z" fill="#1D90CA"/>
</svg>
