<svg width="24" height="24" viewBox="0 0 24 24" fill="none" xmlns="http://www.w3.org/2000/svg">
<path d="M11 21V16H13V21H11ZM19.075 18.475L15.525 14.95L16.95 13.525L20.475 17.075L19.075 18.475ZM4.925 18.475L3.525 17.075L7.05 13.525L8.475 14.95L4.925 18.475ZM8.1 8L8.4 9H15.6L15.9 8H8.1ZM8.4 11C7.96667 11 7.575 10.871 7.225 10.613C6.875 10.355 6.63333 10.0173 6.5 9.6L6 8H5C4.45 8 3.97933 7.80433 3.588 7.413C3.19667 7.02167 3.00067 6.55067 3 6V3H21V6C21 6.55 20.8043 7.021 20.413 7.413C20.0217 7.805 19.5507 8.00067 19 8H18L17.35 9.7C17.2 10.0833 16.9583 10.396 16.625 10.638C16.2917 10.88 15.9167 11.0007 15.5 11H8.4Z" fill="white"/>
</svg>
