<svg width="24" height="24" viewBox="0 0 24 24" fill="none" xmlns="http://www.w3.org/2000/svg">
<path d="M5 21L3 9H21L19 21H5ZM10 15H14C14.2833 15 14.521 14.904 14.713 14.712C14.905 14.52 15.0007 14.2827 15 14C14.9993 13.7173 14.9033 13.48 14.712 13.288C14.5207 13.096 14.2833 13 14 13H10C9.71667 13 9.47933 13.096 9.288 13.288C9.09667 13.48 9.00067 13.7173 9 14C8.99933 14.2827 9.09533 14.5203 9.288 14.713C9.48067 14.9057 9.718 15.0013 10 15ZM6 8C5.71667 8 5.47933 7.904 5.288 7.712C5.09667 7.52 5.00067 7.28267 5 7C4.99933 6.71733 5.09533 6.48 5.288 6.288C5.48067 6.096 5.718 6 6 6H18C18.2833 6 18.521 6.096 18.713 6.288C18.905 6.48 19.0007 6.71733 19 7C18.9993 7.28267 18.9033 7.52033 18.712 7.713C18.5207 7.90567 18.2833 8.00133 18 8H6ZM8 5C7.71667 5 7.47933 4.904 7.288 4.712C7.09667 4.52 7.00067 4.28267 7 4C6.99933 3.71733 7.09533 3.48 7.288 3.288C7.48067 3.096 7.718 3 8 3H16C16.2833 3 16.521 3.096 16.713 3.288C16.905 3.48 17.0007 3.71733 17 4C16.9993 4.28267 16.9033 4.52033 16.712 4.713C16.5207 4.90567 16.2833 5.00133 16 5H8Z" fill="white"/>
</svg>
