<svg width="24" height="24" viewBox="0 0 24 24" fill="none" xmlns="http://www.w3.org/2000/svg">
<g clip-path="url(#clip0_6790_10178)">
<path d="M11.2 0V3.2H12.8V0H11.2ZM5.3664 5.8336L2.9664 3.4336L1.8336 4.5664L4.2336 6.9664L5.3664 5.8336ZM19.7664 6.9664L22.1664 4.5664L21.0336 3.4336L18.6336 5.8336L19.7664 6.9664ZM12 4.8C10.4749 4.80008 9.00096 5.35027 7.84883 6.34957C6.6967 7.34886 5.94367 8.7302 5.728 10.24L5.712 10.352C5.59028 11.1932 5.63949 12.0503 5.85667 12.872C6.07386 13.6937 6.45456 14.4632 6.976 15.1344C7.5888 15.9264 8 16.6832 8 17.4416V20C8 20.2122 8.08429 20.4157 8.23431 20.5657C8.38434 20.7157 8.58783 20.8 8.8 20.8H15.2C15.4122 20.8 15.6157 20.7157 15.7657 20.5657C15.9157 20.4157 16 20.2122 16 20V17.4416C16 16.6832 16.4112 15.9264 17.024 15.1344C18.032 13.832 18.5408 12.1344 18.288 10.3504L18.272 10.2384C18.056 8.7289 17.3028 7.34793 16.1507 6.34896C14.9986 5.34999 13.5249 4.80002 12 4.8ZM0 12.8H3.2V11.2H0V12.8ZM20.8 12.8H24V11.2H20.8V12.8ZM9.6 24H14.4V22.4H9.6V24Z" fill="white"/>
</g>
<defs>
<clipPath id="clip0_6790_10178">
<rect width="24" height="24" fill="white"/>
</clipPath>
</defs>
</svg>
