<svg width="24" height="24" viewBox="0 0 24 24" fill="none" xmlns="http://www.w3.org/2000/svg">
<path d="M11.4996 17.404L7.37929 19.85C7.19727 19.9641 7.00698 20.013 6.80841 19.9967C6.60984 19.9804 6.43609 19.9152 6.28717 19.801C6.13824 19.6869 6.02241 19.5444 5.93967 19.3735C5.85694 19.2026 5.84039 19.0108 5.89003 18.7982L6.98216 14.1753L3.33347 11.0689C3.168 10.9221 3.06474 10.7548 3.0237 10.567C2.98267 10.3791 2.99491 10.1958 3.06044 10.0171C3.12597 9.8384 3.22525 9.69164 3.35829 9.57684C3.49133 9.46204 3.67335 9.38866 3.90435 9.3567L8.71963 8.94089L10.5812 4.58704C10.6639 4.39136 10.7923 4.2446 10.9664 4.14676C11.1405 4.04892 11.3182 4 11.4996 4C11.6809 4 11.8587 4.04892 12.0327 4.14676C12.2068 4.2446 12.3352 4.39136 12.418 4.58704L14.2795 8.94089L19.0948 9.3567C19.3265 9.38932 19.5085 9.46269 19.6409 9.57684C19.7732 9.69099 19.8725 9.83775 19.9387 10.0171C20.0049 10.1965 20.0175 10.3801 19.9764 10.568C19.9354 10.7558 19.8318 10.9228 19.6657 11.0689L16.017 14.1753L17.1091 18.7982C17.1588 19.0102 17.1422 19.2019 17.0595 19.3735C16.9767 19.545 16.8609 19.6876 16.712 19.801C16.5631 19.9145 16.3893 19.9798 16.1907 19.9967C15.9922 20.0137 15.8019 19.9648 15.6199 19.85L11.4996 17.404Z" fill="white"/>
</svg>
