<svg width="24" height="24" viewBox="0 0 24 24" fill="none" xmlns="http://www.w3.org/2000/svg">
<path d="M4 19.0075V17.0125H6V10.0299C6 8.65004 6.41667 7.42411 7.25 6.35212C8.08333 5.28013 9.16667 4.57756 10.5 4.24439V2.04988H13.5V4.24439C14.8333 4.57689 15.9167 5.27947 16.75 6.35212C17.5833 7.42477 18 8.65071 18 10.0299V17.0125H20V19.0075H4ZM12 22C11.45 22 10.9793 21.8048 10.588 21.4145C10.1967 21.0241 10.0007 20.5543 10 20.005H14C14 20.5536 13.8043 21.0234 13.413 21.4145C13.0217 21.8055 12.5507 22.0007 12 22ZM2 10.0299C2 8.36741 2.371 6.84223 3.113 5.45436C3.855 4.0665 4.85067 2.91505 6.1 2L7.275 3.59601C6.275 4.32751 5.47933 5.25021 4.888 6.36409C4.29667 7.47797 4.00067 8.69992 4 10.0299H2ZM20 10.0299C20 8.69992 19.704 7.47797 19.112 6.36409C18.52 5.25021 17.7247 4.32751 16.726 3.59601L17.901 2C19.151 2.91438 20.147 4.06584 20.889 5.45436C21.631 6.84289 22.0013 8.36808 22 10.0299H20Z" fill="white"/>
</svg>
