<svg width="24" height="21" viewBox="0 0 24 21" fill="none" xmlns="http://www.w3.org/2000/svg">
<path d="M21.3514 2.00008H18.7265V3.96161C18.7265 4.15051 18.6891 4.33756 18.6166 4.51208C18.544 4.6866 18.4377 4.84517 18.3036 4.97875C18.1695 5.11232 18.0104 5.21828 17.8352 5.29056C17.6601 5.36285 17.4723 5.40006 17.2827 5.40006C17.0931 5.40006 16.9054 5.36285 16.7302 5.29056C16.5551 5.21828 16.3959 5.11232 16.2619 4.97875C16.1278 4.84517 16.0215 4.6866 15.9489 4.51208C15.8763 4.33756 15.839 4.15051 15.839 3.96161V2.00008H8.19381V3.96161C8.19381 4.34311 8.0417 4.70898 7.77095 4.97875C7.5002 5.24851 7.13298 5.40006 6.75008 5.40006C6.36718 5.40006 5.99997 5.24851 5.72922 4.97875C5.45846 4.70898 5.30636 4.34311 5.30636 3.96161V2.00008H2.6814C2.52523 1.9983 2.37029 2.02775 2.22574 2.08668C2.0812 2.14561 1.94998 2.23283 1.83985 2.34316C1.72972 2.4535 1.64291 2.58472 1.58457 2.72907C1.52623 2.87341 1.49753 3.02794 1.50017 3.18353V17.8165C1.49756 17.9694 1.5252 18.1212 1.58151 18.2634C1.63781 18.4056 1.72168 18.5354 1.82833 18.6453C1.93497 18.7552 2.0623 18.8431 2.20304 18.9039C2.34379 18.9648 2.49518 18.9974 2.64859 19H21.3514C21.5048 18.9974 21.6562 18.9648 21.797 18.9039C21.9377 18.8431 22.065 18.7552 22.1717 18.6453C22.2783 18.5354 22.3622 18.4056 22.4185 18.2634C22.4748 18.1212 22.5024 17.9694 22.4998 17.8165V3.18353C22.5024 3.03069 22.4748 2.87883 22.4185 2.73663C22.3622 2.59443 22.2783 2.46468 22.1717 2.35478C22.065 2.24488 21.9377 2.15699 21.797 2.09613C21.6562 2.03527 21.5048 2.00263 21.3514 2.00008ZM6.75008 15.0769H5.43761V13.7693H6.75008V15.0769ZM6.75008 11.8077H5.43761V10.5H6.75008V11.8077ZM6.75008 8.53851H5.43761V7.23082H6.75008V8.53851ZM10.6875 15.0769H9.37504V13.7693H10.6875V15.0769ZM10.6875 11.8077H9.37504V10.5H10.6875V11.8077ZM10.6875 8.53851H9.37504V7.23082H10.6875V8.53851ZM14.625 15.0769H13.3125V13.7693H14.625V15.0769ZM14.625 11.8077H13.3125V10.5H14.625V11.8077ZM14.625 8.53851H13.3125V7.23082H14.625V8.53851ZM18.5624 15.0769H17.2499V13.7693H18.5624V15.0769ZM18.5624 11.8077H17.2499V10.5H18.5624V11.8077ZM18.5624 8.53851H17.2499V7.23082H18.5624V8.53851Z" fill="white"/>
</svg>
