<svg width="24" height="24" viewBox="0 0 24 24" fill="none" xmlns="http://www.w3.org/2000/svg">
<g clip-path="url(#clip0_6790_10118)">
<path d="M7.7802 0.538468C7.8259 0.38297 7.92075 0.246463 8.05054 0.149391C8.18033 0.0523187 8.33808 -9.4774e-05 8.50015 1.2865e-07H14.4998C14.6185 9.02851e-05 14.7356 0.0283873 14.8413 0.0825617C14.947 0.136736 15.0383 0.215239 15.1077 0.311607C15.1771 0.407975 15.2227 0.519453 15.2406 0.636863C15.2585 0.754273 15.2483 0.874259 15.2107 0.986941L12.5409 8.99946H18.2495C18.39 8.99937 18.5276 9.03871 18.6468 9.11301C18.766 9.1873 18.8619 9.29358 18.9236 9.41972C18.9854 9.54586 19.0105 9.68681 18.996 9.8265C18.9816 9.9662 18.9282 10.099 18.842 10.2099L8.34266 23.7091C8.2351 23.848 8.08217 23.9448 7.91054 23.9825C7.73891 24.0202 7.5595 23.9965 7.4036 23.9154C7.2477 23.8343 7.12522 23.7011 7.05753 23.5389C6.98984 23.3768 6.98125 23.196 7.03324 23.0281L9.73457 14.2492H4.75039C4.6338 14.2492 4.51879 14.2221 4.41451 14.17C4.31023 14.1178 4.21954 14.0421 4.14965 13.9487C4.07977 13.8554 4.0326 13.7471 4.01191 13.6323C3.99121 13.5176 3.99756 13.3996 4.03044 13.2877L7.7802 0.538468Z" fill="white"/>
</g>
<defs>
<clipPath id="clip0_6790_10118">
<rect width="24" height="24" fill="white"/>
</clipPath>
</defs>
</svg>
