<svg width="24" height="24" viewBox="0 0 24 24" fill="none" xmlns="http://www.w3.org/2000/svg">
<path d="M22.9203 13.4478C22.7553 11.5536 22.4835 11.1847 22.3808 11.0459C22.1447 10.7253 21.767 10.5158 21.3673 10.2959C21.3447 10.2837 21.3252 10.2663 21.3103 10.245C21.2954 10.2238 21.2855 10.1993 21.2815 10.1735C21.2774 10.1476 21.2793 10.1212 21.287 10.0963C21.2946 10.0713 21.3078 10.0485 21.3256 10.0297C21.3996 9.95292 21.4565 9.86067 21.4923 9.75928C21.5282 9.65789 21.5421 9.54977 21.5332 9.44234C21.516 9.25185 21.4294 9.07494 21.2905 8.94669C21.1517 8.81845 20.9708 8.74825 20.7837 8.75H20.0686C20.038 8.75019 20.0074 8.75222 19.9769 8.75609C19.9561 8.74683 19.9344 8.73946 19.9123 8.73406C19.4888 7.81859 18.9089 6.56516 17.7069 5.95344C15.9242 5.04687 12.6402 5 11.9985 5C11.3567 5 8.07274 5.04687 6.29231 5.95203C5.09038 6.56375 4.5105 7.81719 4.08694 8.73266L4.08327 8.74016C4.06215 8.74319 4.0414 8.74853 4.02139 8.75609C3.99097 8.75222 3.96036 8.75019 3.92971 8.75H3.21323C3.02615 8.74825 2.84526 8.81845 2.70644 8.94669C2.56761 9.07494 2.48098 9.25185 2.46374 9.44234C2.4556 9.54952 2.47019 9.65723 2.5065 9.75811C2.54281 9.859 2.6 9.95067 2.67415 10.0269C2.69189 10.0457 2.70511 10.0685 2.71276 10.0934C2.72041 10.1184 2.72229 10.1448 2.71824 10.1706C2.7142 10.1965 2.70434 10.221 2.68945 10.2422C2.67456 10.2635 2.65504 10.2809 2.63244 10.2931C2.23271 10.5144 1.85315 10.7239 1.61891 11.0431C1.51623 11.1838 1.24486 11.5508 1.07937 13.445C0.987694 14.5109 0.973942 15.6144 1.04591 16.325C1.19672 17.8016 1.47956 18.6941 1.49148 18.7311C1.53488 18.8659 1.61477 18.9853 1.72187 19.0755C1.82898 19.1656 1.9589 19.2229 2.09657 19.2406V19.25C2.09657 19.4489 2.17384 19.6397 2.31139 19.7803C2.44893 19.921 2.63549 20 2.83001 20H5.39705C5.59157 20 5.77813 19.921 5.91567 19.7803C6.05322 19.6397 6.13049 19.4489 6.13049 19.25C6.52518 19.25 6.79976 19.1778 7.09084 19.1009C7.5111 18.9852 7.94066 18.9082 8.37436 18.8708C9.77295 18.7344 11.1637 18.6875 11.9985 18.6875C12.8163 18.6875 14.2685 18.7344 15.6694 18.8708C16.1048 18.9082 16.536 18.9855 16.9579 19.1019C17.2366 19.175 17.5011 19.2425 17.8674 19.2495C17.8674 19.4484 17.9447 19.6392 18.0822 19.7799C18.2198 19.9205 18.4063 19.9995 18.6008 19.9995H21.1679C21.3624 19.9995 21.5489 19.9205 21.6865 19.7799C21.824 19.6392 21.9013 19.4484 21.9013 19.2495V19.2439C22.0393 19.2265 22.1696 19.1694 22.2771 19.0792C22.3845 18.989 22.4647 18.8694 22.5082 18.7344C22.5202 18.6973 22.803 17.8048 22.9538 16.3283C23.0258 15.6172 23.0129 14.5156 22.9203 13.4478ZM5.41264 9.37391C5.77936 8.57703 6.19879 7.67516 6.94553 7.295C8.0246 6.74563 10.2611 6.49812 11.9985 6.49812C13.7358 6.49812 15.9724 6.74375 17.0514 7.295C17.7982 7.67516 18.2158 8.5775 18.5843 9.37391L18.6302 9.47563C18.657 9.53353 18.6688 9.5975 18.6646 9.66142C18.6603 9.72534 18.6402 9.78708 18.606 9.84076C18.5718 9.89445 18.5247 9.93827 18.4692 9.96806C18.4138 9.99785 18.3517 10.0126 18.2891 10.0109C16.7658 9.96875 13.557 9.83375 11.9985 9.83375C10.4399 9.83375 7.23111 9.97203 5.70555 10.0142C5.64292 10.0159 5.58092 10.0011 5.52545 9.97134C5.46998 9.94155 5.4229 9.89773 5.3887 9.84405C5.3545 9.79037 5.33432 9.72862 5.33008 9.6647C5.32585 9.60078 5.3377 9.53681 5.3645 9.47891C5.38055 9.44422 5.39751 9.40906 5.41264 9.37391ZM5.95951 13.1066C5.17097 13.2036 4.37739 13.2515 3.58316 13.25C3.09725 13.25 2.59622 13.1094 2.50317 12.6669C2.43945 12.3692 2.44633 12.2019 2.48071 12.0336C2.50958 11.8906 2.55542 11.7866 2.78463 11.75C3.38055 11.6562 3.7138 11.7739 4.68928 12.0678C5.33608 12.2623 5.80274 12.5216 6.06861 12.7269C6.202 12.8281 6.13095 13.0925 5.95951 13.1066ZM16.1076 16.9503C15.5043 17.0206 14.2978 16.9948 12.0122 16.9948C9.72665 16.9948 8.52059 17.0206 7.91734 16.9503C7.29483 16.8795 6.50134 16.2777 7.04317 15.7414C7.40393 15.388 8.24555 15.1236 9.36634 14.975C10.4871 14.8264 10.9616 14.75 12.0076 14.75C13.0537 14.75 13.48 14.7969 14.649 14.9755C15.8179 15.1541 16.7012 15.4217 16.9721 15.7419C17.4663 16.3156 16.7296 16.8758 16.1076 16.9531V16.9503ZM21.4938 12.6664C21.4021 13.1108 20.8979 13.2495 20.4138 13.2495C19.6044 13.2497 18.7956 13.2018 17.9916 13.1061C17.8513 13.0925 17.7862 12.8408 17.9284 12.7264C18.1901 12.5159 18.6618 12.2619 19.3077 12.0673C20.2832 11.7734 20.8456 11.6558 21.3288 11.7537C21.4466 11.7777 21.5089 11.907 21.5163 11.9881C21.5486 12.2139 21.541 12.4438 21.4938 12.6669V12.6664Z" fill="white"/>
</svg>
