<svg width="24" height="24" viewBox="0 0 24 24" fill="none" xmlns="http://www.w3.org/2000/svg">
<path d="M3.97792 19.997V10.6236L2.17615 11.9984L1 10.4236L12.0108 2L22.9965 10.4236L22.5961 10.9485C21.8454 10.4319 21.0196 10.1237 20.1187 10.0237C19.2178 9.9237 18.342 10.0403 17.4911 10.3736C16.4902 9.99035 15.4598 9.90303 14.4001 10.1117C13.3404 10.3203 12.4105 10.8242 11.6104 11.6234C10.8103 12.4226 10.3054 13.3518 10.0959 14.411C9.88637 15.4701 9.97412 16.4989 10.3592 17.4975C10.1923 17.8974 10.0839 18.3057 10.0338 18.7222C9.9838 19.1388 9.97546 19.5638 10.0088 19.997H3.97792ZM17.4911 22.3716C16.7905 22.8549 16.019 23.0592 15.1769 22.9845C14.3347 22.9099 13.613 22.5723 13.0118 21.9717C12.4105 21.3711 12.0728 20.6506 11.9988 19.8101C11.9247 18.9695 12.1289 18.1987 12.6114 17.4975C12.1276 16.7976 11.9234 16.027 11.9988 15.1858C12.0742 14.3446 12.4118 13.6238 13.0118 13.0232C13.6117 12.4226 14.3334 12.0853 15.1769 12.0114C16.0204 11.9374 16.7918 12.1413 17.4911 12.6233C18.1918 12.14 18.9636 11.936 19.8064 12.0114C20.6492 12.0867 21.3706 12.424 21.9705 13.0232C22.5705 13.6224 22.9085 14.3433 22.9845 15.1858C23.0606 16.0284 22.8561 16.7989 22.3709 17.4975C22.8547 18.1973 23.0593 18.9682 22.9845 19.8101C22.9098 20.6519 22.5718 21.3725 21.9705 21.9717C21.3693 22.5709 20.6479 22.9086 19.8064 22.9845C18.9649 23.0605 18.1932 22.8562 17.4911 22.3716ZM17.4911 18.7472C17.8415 18.7472 18.1378 18.6263 18.38 18.3843C18.6223 18.1423 18.743 17.8467 18.7424 17.4975C18.7417 17.1482 18.6206 16.8522 18.379 16.6096C18.1374 16.367 17.8415 16.2463 17.4911 16.2477C17.1408 16.249 16.8445 16.37 16.6023 16.6106C16.36 16.8512 16.2393 17.1468 16.2399 17.4975C16.2406 17.8481 16.3617 18.144 16.6033 18.3853C16.8449 18.6266 17.1408 18.7472 17.4911 18.7472Z" fill="white"/>
</svg>
