<svg width="24" height="24" viewBox="0 0 24 24" fill="none" xmlns="http://www.w3.org/2000/svg">
<path fill-rule="evenodd" clip-rule="evenodd" d="M11.262 21.7281C11.262 21.7281 4 15.7354 4 9.83872C4 7.75976 4.84285 5.76595 6.34315 4.29591C7.84344 2.82586 9.87827 2 12 2C14.1217 2 16.1566 2.82586 17.6569 4.29591C19.1571 5.76595 20 7.75976 20 9.83872C20 15.7354 12.738 21.7281 12.738 21.7281C12.334 22.0926 11.669 22.0887 11.262 21.7281ZM12 13.2682C12.4596 13.2682 12.9148 13.1795 13.3394 13.0071C13.764 12.8348 14.1499 12.5821 14.4749 12.2637C14.7999 11.9452 15.0577 11.5672 15.2336 11.1511C15.4095 10.735 15.5 10.2891 15.5 9.83872C15.5 9.38836 15.4095 8.94241 15.2336 8.52633C15.0577 8.11025 14.7999 7.73219 14.4749 7.41374C14.1499 7.09529 13.764 6.84267 13.3394 6.67033C12.9148 6.49798 12.4596 6.40928 12 6.40928C11.0717 6.40928 10.1815 6.77059 9.52513 7.41374C8.86875 8.05688 8.5 8.92917 8.5 9.83872C8.5 10.7483 8.86875 11.6206 9.52513 12.2637C10.1815 12.9068 11.0717 13.2682 12 13.2682Z" fill="white"/>
</svg>
