<svg width="24" height="24" viewBox="0 0 24 24" fill="none" xmlns="http://www.w3.org/2000/svg">
<path d="M12 2L12.117 2.007C12.3402 2.03332 12.5481 2.13408 12.707 2.29301C12.8659 2.45194 12.9667 2.65978 12.993 2.883L13 3V7L13.005 7.15C13.0408 7.62617 13.2458 8.07383 13.5829 8.41203C13.92 8.75023 14.3669 8.95667 14.843 8.994L15 9H19L19.117 9.007C19.3402 9.03332 19.5481 9.13408 19.707 9.29301C19.8659 9.45194 19.9667 9.65978 19.993 9.883L20 10V19C20 19.7652 19.7077 20.5015 19.1827 21.0583C18.6578 21.615 17.9399 21.9501 17.176 21.995L17 22H7C6.23479 22 5.49849 21.7077 4.94174 21.1827C4.38499 20.6578 4.04989 19.9399 4.005 19.176L4 19V5C3.99996 4.23479 4.29233 3.49849 4.81728 2.94174C5.34224 2.38499 6.06011 2.04989 6.824 2.005L7 2H12ZM15 16H9C8.73478 16 8.48043 16.1054 8.29289 16.2929C8.10536 16.4804 8 16.7348 8 17C8 17.2652 8.10536 17.5196 8.29289 17.7071C8.48043 17.8946 8.73478 18 9 18H15C15.2652 18 15.5196 17.8946 15.7071 17.7071C15.8946 17.5196 16 17.2652 16 17C16 16.7348 15.8946 16.4804 15.7071 16.2929C15.5196 16.1054 15.2652 16 15 16ZM15 12H9C8.73478 12 8.48043 12.1054 8.29289 12.2929C8.10536 12.4804 8 12.7348 8 13C8 13.2652 8.10536 13.5196 8.29289 13.7071C8.48043 13.8946 8.73478 14 9 14H15C15.2652 14 15.5196 13.8946 15.7071 13.7071C15.8946 13.5196 16 13.2652 16 13C16 12.7348 15.8946 12.4804 15.7071 12.2929C15.5196 12.1054 15.2652 12 15 12ZM10 8H9C8.73478 8 8.48043 8.10536 8.29289 8.29289C8.10536 8.48043 8 8.73478 8 9C8 9.26522 8.10536 9.51957 8.29289 9.70711C8.48043 9.89464 8.73478 10 9 10H10C10.2652 10 10.5196 9.89464 10.7071 9.70711C10.8946 9.51957 11 9.26522 11 9C11 8.73478 10.8946 8.48043 10.7071 8.29289C10.5196 8.10536 10.2652 8 10 8Z" fill="white"/>
<path d="M19 7H15.001L15 3L19 7Z" fill="white"/>
</svg>
