<svg width="24" height="24" viewBox="0 0 24 24" fill="none" xmlns="http://www.w3.org/2000/svg">
<path fill-rule="evenodd" clip-rule="evenodd" d="M8.962 18.4691C6.019 16.2141 2 12.4891 2 8.9671C2 3.0831 7.5 0.886097 12 5.4301C16.5 0.886097 22 3.0831 22 8.9671C22 12.4891 17.98 16.2141 15.038 18.4691C13.706 19.4891 13.04 20.0001 12 20.0001C10.96 20.0001 10.294 19.4901 8.962 18.4691ZM16.5 6.2501C16.6989 6.2501 16.8897 6.32912 17.0303 6.46977C17.171 6.61042 17.25 6.80119 17.25 7.0001V8.2501H18.5C18.6989 8.2501 18.8897 8.32912 19.0303 8.46977C19.171 8.61042 19.25 8.80119 19.25 9.0001C19.25 9.19901 19.171 9.38978 19.0303 9.53043C18.8897 9.67108 18.6989 9.7501 18.5 9.7501H17.25V11.0001C17.25 11.199 17.171 11.3898 17.0303 11.5304C16.8897 11.6711 16.6989 11.7501 16.5 11.7501C16.3011 11.7501 16.1103 11.6711 15.9697 11.5304C15.829 11.3898 15.75 11.199 15.75 11.0001V9.7501H14.5C14.3011 9.7501 14.1103 9.67108 13.9697 9.53043C13.829 9.38978 13.75 9.19901 13.75 9.0001C13.75 8.80119 13.829 8.61042 13.9697 8.46977C14.1103 8.32912 14.3011 8.2501 14.5 8.2501H15.75V7.0001C15.75 6.80119 15.829 6.61042 15.9697 6.46977C16.1103 6.32912 16.3011 6.2501 16.5 6.2501Z" fill="white"/>
</svg>
