<svg width="24" height="24" viewBox="0 0 24 24" fill="none" xmlns="http://www.w3.org/2000/svg">
<path d="M16.635 2C15.7964 1.99982 14.9688 2.19185 14.2143 2.56165C13.4598 2.93144 12.7982 3.46936 12.2793 4.13489C11.7604 4.80042 11.3977 5.57622 11.2185 6.40388C11.0393 7.23154 11.0483 8.08948 11.2448 8.91311L2.8683 17.376C2.59514 17.6465 2.37776 17.969 2.22873 18.3248C2.0797 18.6807 2.00197 19.0629 2.00004 19.4493C1.99811 19.8357 2.07201 20.2186 2.21748 20.576C2.36295 20.9333 2.57709 21.258 2.84753 21.5312C3.11797 21.8045 3.43933 22.0208 3.79305 22.1678C4.14676 22.3148 4.5258 22.3894 4.90826 22.3875C5.29071 22.3855 5.66899 22.307 6.02121 22.1564C6.37344 22.0059 6.69263 21.7862 6.96032 21.5103L11.1078 17.3221C11.1812 16.2563 11.5089 15.2243 12.0629 14.3142C12.6168 13.4042 13.3806 12.6432 14.289 12.0962C15.1973 11.5491 16.2232 11.2324 17.2791 11.173C18.3349 11.1136 19.3893 11.3134 20.3521 11.7551C20.9271 11.2301 21.3867 10.5891 21.7012 9.87346C22.0158 9.15785 22.1784 8.38355 22.1784 7.60054C22.1791 6.99664 22.0831 6.39659 21.8942 5.82364C21.8533 5.70021 21.7819 5.58937 21.6867 5.50166C21.5915 5.41394 21.4757 5.35226 21.3503 5.32248C21.2249 5.29269 21.094 5.29577 20.9701 5.33145C20.8462 5.36712 20.7334 5.4342 20.6424 5.52631L18.1791 8.01498C18.0374 8.158 17.8452 8.23833 17.6449 8.23833C17.4446 8.23833 17.2525 8.158 17.1107 8.01498L16.2248 7.12093C16.0833 6.97774 16.0037 6.78363 16.0037 6.58124C16.0037 6.37886 16.0833 6.18475 16.2248 6.04156L18.6891 3.55186C18.78 3.45981 18.8461 3.34582 18.8812 3.22071C18.9163 3.0956 18.9193 2.96351 18.8897 2.83695C18.8601 2.71039 18.799 2.59356 18.7122 2.49752C18.6255 2.40148 18.5158 2.32943 18.3938 2.28817C17.8267 2.09693 17.2328 1.99962 16.635 2ZM14.3945 14.1949C14.4697 14.4582 14.4915 14.7341 14.4587 15.0061C14.4259 15.2781 14.3391 15.5406 14.2035 15.7779C14.0679 16.0152 13.8863 16.2224 13.6695 16.3872C13.4528 16.5519 13.2054 16.6707 12.9421 16.7366L12.3535 16.8832C12.2586 17.4933 12.2606 18.1148 12.3596 18.7242L12.9038 18.8566C13.1695 18.9213 13.4194 19.0398 13.6383 19.2051C13.8572 19.3703 14.0405 19.5788 14.1772 19.8178C14.3139 20.0569 14.4011 20.3215 14.4334 20.5956C14.4657 20.8698 14.4425 21.1477 14.3653 21.4125L14.1768 22.055C14.6203 22.4481 15.1242 22.7668 15.6735 22.9939L16.1704 22.4654C16.3587 22.2653 16.5853 22.106 16.8364 21.9971C17.0876 21.8882 17.358 21.8321 17.6313 21.8321C17.9046 21.8321 18.175 21.8882 18.4262 21.9971C18.6773 22.106 18.9039 22.2653 19.0922 22.4654L19.5952 23C20.1404 22.7754 20.6451 22.4613 21.0889 22.0703L20.8893 21.3718C20.8141 21.1084 20.7923 20.8325 20.8252 20.5604C20.8581 20.2884 20.945 20.0258 21.0807 19.7885C21.2164 19.5512 21.3981 19.344 21.615 19.1793C21.8318 19.0146 22.0793 18.8959 22.3427 18.8301L22.9303 18.6835C23.0252 18.0734 23.0232 17.4519 22.9242 16.8425L22.38 16.7101C22.1144 16.6453 21.8646 16.5267 21.6458 16.3614C21.4271 16.1961 21.2438 15.9876 21.1072 15.7486C20.9706 15.5095 20.8836 15.2449 20.8513 14.9709C20.819 14.6968 20.8423 14.4189 20.9195 14.1542L21.107 13.5127C20.6633 13.1183 20.1579 12.801 19.6113 12.5738L19.1144 13.1013C18.9261 13.3016 18.6994 13.461 18.4482 13.57C18.197 13.679 17.9264 13.7352 17.653 13.7352C17.3796 13.7352 17.109 13.679 16.8578 13.57C16.6065 13.461 16.3799 13.3016 16.1916 13.1013L15.6896 12.5667C15.1413 12.7907 14.6374 13.1064 14.1949 13.4954L14.3945 14.1949ZM17.6429 19.3108C16.8366 19.3108 16.1815 18.6265 16.1815 17.7833C16.1815 16.9402 16.8366 16.2559 17.6429 16.2559C18.4492 16.2559 19.1043 16.9402 19.1043 17.7833C19.1043 18.6265 18.4492 19.3108 17.6429 19.3108Z" fill="white"/>
</svg>
