<svg width="24" height="24" viewBox="0 0 24 24" fill="none" xmlns="http://www.w3.org/2000/svg">
<path d="M16.625 8H8.375C8.16789 8 8 8.16789 8 8.375V16.625C8 16.8321 8.16789 17 8.375 17H16.625C16.8321 17 17 16.8321 17 16.625V8.375C17 8.16789 16.8321 8 16.625 8Z" fill="white"/>
<path d="M22.25 9.5C22.4489 9.5 22.6397 9.42098 22.7803 9.28033C22.921 9.13968 23 8.94891 23 8.75C23 8.55109 22.921 8.36032 22.7803 8.21967C22.6397 8.07902 22.4489 8 22.25 8H21.5V6.5C21.4991 5.70462 21.1828 4.94206 20.6204 4.37964C20.0579 3.81722 19.2954 3.50087 18.5 3.5H17V2.75C17 2.55109 16.921 2.36032 16.7803 2.21967C16.6397 2.07902 16.4489 2 16.25 2C16.0511 2 15.8603 2.07902 15.7197 2.21967C15.579 2.36032 15.5 2.55109 15.5 2.75V3.5H13.25V2.75C13.25 2.55109 13.171 2.36032 13.0303 2.21967C12.8897 2.07902 12.6989 2 12.5 2C12.3011 2 12.1103 2.07902 11.9697 2.21967C11.829 2.36032 11.75 2.55109 11.75 2.75V3.5H9.5V2.75C9.5 2.55109 9.42098 2.36032 9.28033 2.21967C9.13968 2.07902 8.94891 2 8.75 2C8.55109 2 8.36032 2.07902 8.21967 2.21967C8.07902 2.36032 8 2.55109 8 2.75V3.5H6.5C5.70462 3.50087 4.94206 3.81722 4.37964 4.37964C3.81722 4.94206 3.50087 5.70462 3.5 6.5V8H2.75C2.55109 8 2.36032 8.07902 2.21967 8.21967C2.07902 8.36032 2 8.55109 2 8.75C2 8.94891 2.07902 9.13968 2.21967 9.28033C2.36032 9.42098 2.55109 9.5 2.75 9.5H3.5V11.75H2.75C2.55109 11.75 2.36032 11.829 2.21967 11.9697C2.07902 12.1103 2 12.3011 2 12.5C2 12.6989 2.07902 12.8897 2.21967 13.0303C2.36032 13.171 2.55109 13.25 2.75 13.25H3.5V15.5H2.75C2.55109 15.5 2.36032 15.579 2.21967 15.7197C2.07902 15.8603 2 16.0511 2 16.25C2 16.4489 2.07902 16.6397 2.21967 16.7803C2.36032 16.921 2.55109 17 2.75 17H3.5V18.5C3.50087 19.2954 3.81722 20.0579 4.37964 20.6204C4.94206 21.1828 5.70462 21.4991 6.5 21.5H8V22.25C8 22.4489 8.07902 22.6397 8.21967 22.7803C8.36032 22.921 8.55109 23 8.75 23C8.94891 23 9.13968 22.921 9.28033 22.7803C9.42098 22.6397 9.5 22.4489 9.5 22.25V21.5H11.75V22.25C11.75 22.4489 11.829 22.6397 11.9697 22.7803C12.1103 22.921 12.3011 23 12.5 23C12.6989 23 12.8897 22.921 13.0303 22.7803C13.171 22.6397 13.25 22.4489 13.25 22.25V21.5H15.5V22.25C15.5 22.4489 15.579 22.6397 15.7197 22.7803C15.8603 22.921 16.0511 23 16.25 23C16.4489 23 16.6397 22.921 16.7803 22.7803C16.921 22.6397 17 22.4489 17 22.25V21.5H18.5C19.2954 21.4991 20.0579 21.1828 20.6204 20.6204C21.1828 20.0579 21.4991 19.2954 21.5 18.5V17H22.25C22.4489 17 22.6397 16.921 22.7803 16.7803C22.921 16.6397 23 16.4489 23 16.25C23 16.0511 22.921 15.8603 22.7803 15.7197C22.6397 15.579 22.4489 15.5 22.25 15.5H21.5V13.25H22.25C22.4489 13.25 22.6397 13.171 22.7803 13.0303C22.921 12.8897 23 12.6989 23 12.5C23 12.3011 22.921 12.1103 22.7803 11.9697C22.6397 11.829 22.4489 11.75 22.25 11.75H21.5V9.5H22.25ZM18.5 17C18.5 17.3978 18.342 17.7794 18.0607 18.0607C17.7794 18.342 17.3978 18.5 17 18.5H8C7.60218 18.5 7.22064 18.342 6.93934 18.0607C6.65804 17.7794 6.5 17.3978 6.5 17V8C6.5 7.60218 6.65804 7.22064 6.93934 6.93934C7.22064 6.65804 7.60218 6.5 8 6.5H17C17.3978 6.5 17.7794 6.65804 18.0607 6.93934C18.342 7.22064 18.5 7.60218 18.5 8V17Z" fill="white"/>
</svg>
