<svg width="24" height="24" viewBox="0 0 24 24" fill="none" xmlns="http://www.w3.org/2000/svg">
<path d="M7 7C7.55228 7 8 6.55228 8 6C8 5.44772 7.55228 5 7 5C6.44772 5 6 5.44772 6 6C6 6.55228 6.44772 7 7 7Z" fill="white"/>
<path d="M20.75 17.098V13.9944C20.75 13.5968 20.592 13.2154 20.3107 12.9343C20.0294 12.6531 19.6478 12.4951 19.25 12.4951H13.25V9.49652H20C20.3978 9.49652 20.7793 9.33856 21.0607 9.05739C21.342 8.77621 21.5 8.39486 21.5 7.99722V3.4993C21.5 3.10166 21.342 2.72031 21.0607 2.43914C20.7793 2.15796 20.3978 2 20 2H5.00001C4.60218 2 4.22065 2.15796 3.93935 2.43914C3.65804 2.72031 3.50001 3.10166 3.50001 3.4993V7.99722C3.50001 8.39486 3.65804 8.77621 3.93935 9.05739C4.22065 9.33856 4.60218 9.49652 5.00001 9.49652H11.75V12.4951H5.75C5.35218 12.4951 4.97065 12.6531 4.68934 12.9343C4.40804 13.2154 4.25001 13.5968 4.25001 13.9944V17.098C3.54301 17.2805 2.92686 17.7144 2.51706 18.3184C2.10725 18.9225 1.93191 19.6552 2.02392 20.3792C2.11592 21.1033 2.46895 21.7689 3.01683 22.2514C3.56471 22.7338 4.26983 23 5.00001 23C5.73018 23 6.4353 22.7338 6.98318 22.2514C7.53106 21.7689 7.88409 21.1033 7.97609 20.3792C8.0681 19.6552 7.89276 18.9225 7.48295 18.3184C7.07315 17.7144 6.457 17.2805 5.75 17.098V13.9944H11.75V16.993H9.5V22.9903H15.5V16.993H13.25V13.9944H19.25V17.098C18.543 17.2805 17.9269 17.7144 17.517 18.3184C17.1072 18.9225 16.9319 19.6552 17.0239 20.3792C17.1159 21.1033 17.4689 21.7689 18.0168 22.2514C18.5647 22.7338 19.2698 23 20 23C20.7302 23 21.4353 22.7338 21.9832 22.2514C22.531 21.7689 22.8841 21.1033 22.9761 20.3792C23.0681 19.6552 22.8928 18.9225 22.4829 18.3184C22.0731 17.7144 21.457 17.2805 20.75 17.098ZM6.5 19.9917C6.5 20.2882 6.41203 20.5781 6.24721 20.8246C6.08239 21.0712 5.84812 21.2634 5.57403 21.3768C5.29994 21.4903 4.99834 21.52 4.70737 21.4622C4.4164 21.4043 4.14912 21.2615 3.93935 21.0518C3.72957 20.8421 3.58671 20.575 3.52883 20.2842C3.47095 19.9933 3.50066 19.6919 3.61419 19.4179C3.72772 19.1439 3.91998 18.9098 4.16665 18.745C4.41332 18.5803 4.70333 18.4924 5.00001 18.4924C5.39783 18.4924 5.77936 18.6503 6.06066 18.9315C6.34197 19.2127 6.5 19.594 6.5 19.9917ZM14 18.4924V21.491H11V18.4924H14ZM5.00001 7.99722V3.4993H20V7.99722H5.00001ZM20 21.491C19.7033 21.491 19.4133 21.403 19.1666 21.2383C18.92 21.0735 18.7277 20.8394 18.6142 20.5654C18.5006 20.2915 18.4709 19.99 18.5288 19.6992C18.5867 19.4083 18.7296 19.1412 18.9393 18.9315C19.1491 18.7218 19.4164 18.579 19.7074 18.5212C19.9983 18.4633 20.2999 18.493 20.574 18.6065C20.8481 18.72 21.0824 18.9121 21.2472 19.1587C21.412 19.4052 21.5 19.6951 21.5 19.9917C21.5 20.3893 21.342 20.7707 21.0607 21.0518C20.7793 21.333 20.3978 21.491 20 21.491Z" fill="white"/>
</svg>
