<svg width="24" height="24" viewBox="0 0 24 24" fill="none" xmlns="http://www.w3.org/2000/svg">
<g clip-path="url(#clip0_6790_10170)">
<path d="M4.2 13.6154V24H2V13.6154H4.2ZM24 13.6154V15.9231H21.8V24H19.6V15.9231H17.4V13.6154H24ZM11.9 11.3077C13.4412 11.3165 14.9496 11.7756 16.256 12.6335L17.8477 10.9604C16.1015 9.68735 14.0265 9.00345 11.9 9C9.80195 9.00411 7.75517 9.68044 6.0337 10.9385L7.6276 12.615C8.90734 11.7691 10.3874 11.3163 11.9 11.3077Z" fill="white"/>
<path d="M11.959 7.34192C14.6537 7.3484 17.2754 8.28013 19.4383 10L21 8.32553C18.4149 6.17401 15.2341 5.00404 11.959 5C8.71216 5.00414 5.55944 6.167 3 8.30445L4.56065 9.97892C6.6979 8.27228 9.2921 7.34762 11.959 7.34192Z" fill="white"/>
<path d="M11.9599 2.28569C15.7766 2.28622 19.4787 3.66107 22.4541 6.18284L24 4.54969C20.622 1.61183 16.3812 0.00354992 12.0033 5.86982e-06C7.62536 -0.00353818 3.3823 1.59787 0 4.53027L1.54591 6.16341C4.49629 3.65541 8.17091 2.28715 11.9599 2.28569ZM11.9599 13.7143C10.9957 13.7143 10.0532 14.0159 9.25153 14.581C8.44985 15.1461 7.82501 15.9493 7.45604 16.889C7.08706 17.8288 6.99052 18.8628 7.17862 19.8604C7.36672 20.8581 7.83102 21.7744 8.5128 22.4937C9.19457 23.2129 10.0632 23.7027 11.0089 23.9012C11.9545 24.0996 12.9347 23.9978 13.8255 23.6085C14.7163 23.2193 15.4776 22.5601 16.0133 21.7143C16.549 20.8686 16.8349 19.8743 16.8349 18.8571C16.8349 17.4932 16.3213 16.185 15.407 15.2206C14.4928 14.2561 13.2528 13.7143 11.9599 13.7143ZM11.9599 21.7143C11.4243 21.7143 10.9006 21.5467 10.4553 21.2328C10.0099 20.9188 9.66275 20.4726 9.45776 19.9505C9.25277 19.4284 9.19914 18.854 9.30364 18.2997C9.40814 17.7455 9.66608 17.2364 10.0448 16.8368C10.4236 16.4372 10.9062 16.1651 11.4316 16.0549C11.9569 15.9446 12.5015 16.0012 12.9963 16.2175C13.4912 16.4337 13.9142 16.7999 14.2118 17.2698C14.5094 17.7396 14.6682 18.292 14.6682 18.8571C14.6682 19.6149 14.3829 20.3416 13.875 20.8774C13.3671 21.4132 12.6782 21.7143 11.9599 21.7143Z" fill="white"/>
</g>
<defs>
<clipPath id="clip0_6790_10170">
<rect width="24" height="24" fill="white"/>
</clipPath>
</defs>
</svg>
