<svg width="24" height="24" viewBox="0 0 24 24" fill="none" xmlns="http://www.w3.org/2000/svg">
<path d="M19 8C19.5304 8 20.0391 8.21071 20.4142 8.58579C20.7893 8.96086 21 9.46957 21 10V16.76C21.61 17.31 22 18.11 22 19C22 20.66 20.66 22 19 22C17.34 22 16 20.66 16 19C16 18.11 16.39 17.31 17 16.76V10C17 8.9 17.9 8 19 8ZM19 9C18.45 9 18 9.45 18 10V11H20V10C20 9.45 19.55 9 19 9ZM5 20V12H2L12 3L16.4 6.96C15.9594 7.33423 15.6058 7.80017 15.364 8.32526C15.1222 8.85035 14.9979 9.42191 15 10V16C14.37 16.83 14 17.87 14 19L14.1 20H5Z" fill="white"/>
</svg>
