<svg width="24" height="24" viewBox="0 0 24 24" fill="none" xmlns="http://www.w3.org/2000/svg">
<path fill-rule="evenodd" clip-rule="evenodd" d="M9.25 3C5.246 3 2 6.246 2 10.25C2 19.25 14 21 14 21V17.5H14.75C18.754 17.5 22 14.254 22 10.25C22 6.246 18.754 3 14.75 3H9.25ZM12 11.75C12.3315 11.75 12.6495 11.6183 12.8839 11.3839C13.1183 11.1495 13.25 10.8315 13.25 10.5C13.25 10.1685 13.1183 9.85054 12.8839 9.61612C12.6495 9.3817 12.3315 9.25 12 9.25C11.6685 9.25 11.3505 9.3817 11.1161 9.61612C10.8817 9.85054 10.75 10.1685 10.75 10.5C10.75 10.8315 10.8817 11.1495 11.1161 11.3839C11.3505 11.6183 11.6685 11.75 12 11.75ZM17.25 10.5C17.25 10.8315 17.1183 11.1495 16.8839 11.3839C16.6495 11.6183 16.3315 11.75 16 11.75C15.6685 11.75 15.3505 11.6183 15.1161 11.3839C14.8817 11.1495 14.75 10.8315 14.75 10.5C14.75 10.1685 14.8817 9.85054 15.1161 9.61612C15.3505 9.3817 15.6685 9.25 16 9.25C16.3315 9.25 16.6495 9.3817 16.8839 9.61612C17.1183 9.85054 17.25 10.1685 17.25 10.5ZM8 11.75C8.33152 11.75 8.64946 11.6183 8.88388 11.3839C9.1183 11.1495 9.25 10.8315 9.25 10.5C9.25 10.1685 9.1183 9.85054 8.88388 9.61612C8.64946 9.3817 8.33152 9.25 8 9.25C7.66848 9.25 7.35054 9.3817 7.11612 9.61612C6.8817 9.85054 6.75 10.1685 6.75 10.5C6.75 10.8315 6.8817 11.1495 7.11612 11.3839C7.35054 11.6183 7.66848 11.75 8 11.75Z" fill="white"/>
</svg>
