<svg width="24" height="24" viewBox="0 0 24 24" fill="none" xmlns="http://www.w3.org/2000/svg">
<path fill-rule="evenodd" clip-rule="evenodd" d="M22 12C22 17.5228 17.5228 22 12 22C6.47713 22 2 17.5228 2 12C2 6.47713 6.47713 2 12 2C17.5228 2 22 6.47713 22 12ZM6.96462 16.6047L6.5 17.9816C6.89288 18.1629 7.32541 18.2536 7.79759 18.2536C8.53422 18.2536 9.09142 17.9967 9.4692 17.483C9.59764 17.3092 9.70153 17.0901 9.78088 16.8257C9.86019 16.565 9.9433 16.1589 10.0302 15.6073L10.7838 10.8508H12.6926L13.6479 12.3874L10.7184 15.5153H12.7527L14.4299 13.651L15.5689 15.5153H17.4331L15.5689 12.5007L18.3398 9.57116H16.2942L14.7926 11.2484L13.7556 9.57116H11.897L11.8996 9.57528H10.9858L11.0105 9.41956C11.0634 9.07956 11.1389 8.84158 11.2371 8.70561C11.3354 8.56583 11.4771 8.49594 11.6622 8.49594C11.817 8.49594 12.0191 8.54127 12.2684 8.63192L12.6991 7.22098C12.2836 7.07364 11.8775 6.99997 11.4808 6.99997C10.4797 6.99997 9.82055 7.40795 9.50323 8.22392C9.4352 8.3977 9.35398 8.78681 9.25958 9.39125L9.23037 9.57528H8.24839L8.05456 10.8508H9.02806L8.27361 15.6073C8.2018 16.0682 8.1168 16.3742 8.01861 16.5253C7.92039 16.6802 7.76172 16.7577 7.54259 16.7577C7.37262 16.7577 7.17997 16.7067 6.96462 16.6047Z" fill="white"/>
</svg>
