<svg width="24" height="24" viewBox="0 0 24 24" fill="none" xmlns="http://www.w3.org/2000/svg">
<path d="M13.8 18C14.2684 17.9988 14.7179 17.8093 15.053 17.4717C17.434 15.0828 21 11.4979 21 11.4979L15.056 5.52412C14.8021 5.27023 14.4814 5.09902 14.1339 5.03182C13.7864 4.96462 13.4274 5.00439 13.1017 5.14618C12.7759 5.28797 12.4978 5.52551 12.3019 5.82923C12.106 6.13295 12.001 6.48942 12 6.85426L12 16.1415C12 17.1672 12.806 18 13.8 18ZM4.8 18C5.26837 17.9988 5.71785 17.8093 6.053 17.4717C8.434 15.0828 12 11.4979 12 11.4979L6.056 5.52412C5.8021 5.27023 5.48143 5.09902 5.13392 5.03182C4.78642 4.96462 4.42743 5.00439 4.10167 5.14618C3.77591 5.28797 3.49776 5.52551 3.30187 5.82923C3.10598 6.13295 3.001 6.48942 3 6.85426L3 16.1415C3 17.1672 3.806 18 4.8 18Z" fill="white"/>
</svg>
