<svg width="24" height="24" viewBox="0 0 24 24" fill="none" xmlns="http://www.w3.org/2000/svg">
<path d="M22 14.6V20.4C22 20.7314 21.7314 21 21.4 21H17.6C17.2686 21 17 20.7314 17 20.4V14.6C17 14.2686 17.2686 14 17.6 14H21.4C21.7314 14 22 14.2686 22 14.6Z" fill="white" stroke="white" stroke-width="1.5"/>
<path d="M7 9.6V15.4C7 15.7314 6.73137 16 6.4 16H2.6C2.26863 16 2 15.7314 2 15.4V9.6C2 9.26863 2.26863 9 2.6 9H6.4C6.73137 9 7 9.26863 7 9.6Z" fill="white" stroke="white" stroke-width="1.5"/>
<path d="M22 3.6V9.4C22 9.73137 21.7314 10 21.4 10H17.6C17.2686 10 17 9.73137 17 9.4V3.6C17 3.26863 17.2686 3 17.6 3H21.4C21.7314 3 22 3.26863 22 3.6Z" fill="white" stroke="white" stroke-width="1.5"/>
<path d="M17 18H13.5C12.9696 18 12.4609 17.7893 12.0858 17.4142C11.7107 17.0391 11.5 16.5304 11.5 16V9C11.5 8.46957 11.7107 7.96086 12.0858 7.58579C12.4609 7.21071 12.9696 7 13.5 7H17M11.5 12.5H7" stroke="white" stroke-width="1.5"/>
</svg>
