<svg width="24" height="24" viewBox="0 0 24 24" fill="none" xmlns="http://www.w3.org/2000/svg">
<path d="M14.7 18.9C14.94 18.9 15.15 18.81 15.33 18.63C15.51 18.45 15.6 18.24 15.6 18C15.6 17.76 15.51 17.55 15.33 17.37C15.15 17.19 14.94 17.1 14.7 17.1C14.46 17.1 14.25 17.19 14.07 17.37C13.89 17.55 13.8 17.76 13.8 18C13.8 18.24 13.89 18.45 14.07 18.63C14.25 18.81 14.46 18.9 14.7 18.9ZM18 18.9C18.24 18.9 18.45 18.81 18.63 18.63C18.81 18.45 18.9 18.24 18.9 18C18.9 17.76 18.81 17.55 18.63 17.37C18.45 17.19 18.24 17.1 18 17.1C17.76 17.1 17.55 17.19 17.37 17.37C17.19 17.55 17.1 17.76 17.1 18C17.1 18.24 17.19 18.45 17.37 18.63C17.55 18.81 17.76 18.9 18 18.9ZM21.3 18.9C21.54 18.9 21.75 18.81 21.93 18.63C22.11 18.45 22.2 18.24 22.2 18C22.2 17.76 22.11 17.55 21.93 17.37C21.75 17.19 21.54 17.1 21.3 17.1C21.06 17.1 20.85 17.19 20.67 17.37C20.49 17.55 20.4 17.76 20.4 18C20.4 18.24 20.49 18.45 20.67 18.63C20.85 18.81 21.06 18.9 21.3 18.9ZM2.4 21.6C1.74 21.6 1.1752 21.3652 0.7056 20.8956C0.236 20.426 0.0008 19.8608 0 19.2V2.4C0 1.74 0.2352 1.1752 0.7056 0.7056C1.176 0.236 1.7408 0.0008 2.4 0H19.2C19.86 0 20.4252 0.2352 20.8956 0.7056C21.366 1.176 21.6008 1.7408 21.6 2.4V8.4C21.6 8.74 21.4848 9.0252 21.2544 9.2556C21.024 9.486 20.7392 9.6008 20.4 9.6C20.0608 9.5992 19.776 9.484 19.5456 9.2544C19.3152 9.0248 19.2 8.74 19.2 8.4V2.4H2.4V19.2H8.4C8.74 19.2 9.0252 19.3152 9.2556 19.5456C9.486 19.776 9.6008 20.0608 9.6 20.4C9.5992 20.7392 9.484 21.0244 9.2544 21.2556C9.0248 21.4868 8.74 21.6016 8.4 21.6H2.4ZM2.4 18V19.2V2.4V9.69V9.6V18ZM4.8 15.6C4.8 15.94 4.9152 16.2252 5.1456 16.4556C5.376 16.686 5.6608 16.8008 6 16.8H8.49C8.83 16.8 9.1152 16.6848 9.3456 16.4544C9.576 16.224 9.6908 15.9392 9.69 15.6C9.6892 15.2608 9.5744 14.976 9.3456 14.7456C9.1168 14.5152 8.8316 14.4 8.49 14.4H6C5.66 14.4 5.3752 14.5152 5.1456 14.7456C4.916 14.976 4.8008 15.2608 4.8 15.6ZM4.8 10.8C4.8 11.14 4.9152 11.4252 5.1456 11.6556C5.376 11.886 5.6608 12.0008 6 12H12C12.34 12 12.6252 11.8848 12.8556 11.6544C13.086 11.424 13.2008 11.1392 13.2 10.8C13.1992 10.4608 13.084 10.176 12.8544 9.9456C12.6248 9.7152 12.34 9.6 12 9.6H6C5.66 9.6 5.3752 9.7152 5.1456 9.9456C4.916 10.176 4.8008 10.4608 4.8 10.8ZM4.8 6C4.8 6.34 4.9152 6.6252 5.1456 6.8556C5.376 7.086 5.6608 7.2008 6 7.2H15.6C15.94 7.2 16.2252 7.0848 16.4556 6.8544C16.686 6.624 16.8008 6.3392 16.8 6C16.7992 5.6608 16.684 5.376 16.4544 5.1456C16.2248 4.9152 15.94 4.8 15.6 4.8H6C5.66 4.8 5.3752 4.9152 5.1456 5.1456C4.916 5.376 4.8008 5.6608 4.8 6ZM18 24C16.34 24 14.9252 23.4148 13.7556 22.2444C12.586 21.074 12.0008 19.6592 12 18C11.9992 16.3408 12.5844 14.926 13.7556 13.7556C14.9268 12.5852 16.3416 12 18 12C19.6584 12 21.0736 12.5852 22.2456 13.7556C23.4176 14.926 24.0024 16.3408 24 18C23.9976 19.6592 23.4124 21.0744 22.2444 22.2456C21.0764 23.4168 19.6616 24.0016 18 24Z" fill="white"/>
</svg>
