<svg width="24" height="24" viewBox="0 0 24 24" fill="none" xmlns="http://www.w3.org/2000/svg">
<path d="M4.69676 18.9399V11.3433L3.65942 12.1416C3.41737 12.3133 3.15804 12.382 2.88141 12.3476C2.60479 12.3133 2.38003 12.176 2.20714 11.9356C2.03425 11.6953 1.96959 11.4378 2.01315 11.1631C2.05672 10.8884 2.19054 10.6652 2.41461 10.4936L11.7248 3.41202C11.9149 3.27468 12.1183 3.17167 12.3347 3.103C12.5512 3.03433 12.7714 3 12.9955 3C13.2196 3 13.4402 3.03433 13.6573 3.103C13.8745 3.17167 14.0775 3.27468 14.2663 3.41202L23.6024 10.4936C23.8271 10.6652 23.9568 10.8884 23.9914 11.1631C24.0259 11.4378 23.9568 11.6953 23.7839 11.9356C23.611 12.1588 23.3862 12.2876 23.1096 12.3219C22.833 12.3562 22.5823 12.2876 22.3575 12.1159L21.2943 11.3433V18.9399C21.2943 19.5064 21.0913 19.9916 20.6853 20.3954C20.2794 20.7991 19.7908 21.0007 19.2196 21H6.77145C6.20091 21 5.71267 20.7985 5.30672 20.3954C4.90077 19.9923 4.69745 19.5071 4.69676 18.9399ZM8.84614 14.8197C9.14005 14.8197 9.38659 14.7209 9.58576 14.5231C9.78493 14.3253 9.88417 14.0809 9.88348 13.7897C9.88279 13.4985 9.7832 13.2541 9.58473 13.0563C9.38625 12.8585 9.14005 12.7597 8.84614 12.7597C8.55222 12.7597 8.30603 12.8585 8.10755 13.0563C7.90907 13.2541 7.80948 13.4985 7.80879 13.7897C7.8081 14.0809 7.90769 14.3257 8.10755 14.5241C8.30741 14.7226 8.55361 14.8211 8.84614 14.8197ZM12.9955 14.8197C13.2894 14.8197 13.536 14.7209 13.7351 14.5231C13.9343 14.3253 14.0335 14.0809 14.0329 13.7897C14.0322 13.4985 13.9326 13.2541 13.7341 13.0563C13.5356 12.8585 13.2894 12.7597 12.9955 12.7597C12.7016 12.7597 12.4554 12.8585 12.2569 13.0563C12.0584 13.2541 11.9589 13.4985 11.9582 13.7897C11.9575 14.0809 12.0571 14.3257 12.2569 14.5241C12.4568 14.7226 12.703 14.8211 12.9955 14.8197ZM17.1449 14.8197C17.4388 14.8197 17.6853 14.7209 17.8845 14.5231C18.0837 14.3253 18.1829 14.0809 18.1822 13.7897C18.1815 13.4985 18.082 13.2541 17.8835 13.0563C17.685 12.8585 17.4388 12.7597 17.1449 12.7597C16.851 12.7597 16.6048 12.8585 16.4063 13.0563C16.2078 13.2541 16.1082 13.4985 16.1075 13.7897C16.1069 14.0809 16.2064 14.3257 16.4063 14.5241C16.6062 14.7226 16.8524 14.8211 17.1449 14.8197Z" fill="white"/>
</svg>
