<svg width="24" height="24" viewBox="0 0 24 24" fill="none" xmlns="http://www.w3.org/2000/svg">
<g clip-path="url(#clip0_6790_10254)">
<path d="M13 5C8 5 3.73 8.28278 2 12.9167C3.73 17.5506 8 20.8333 13 20.8333C13.36 20.8333 13.72 20.8333 14.08 20.7806C14.0282 20.4491 14.0014 20.1137 14 19.7778C14 19.1867 14.08 18.5956 14.24 18.0256C13.83 18.1311 13.42 18.1944 13 18.1944C11.6739 18.1944 10.4021 17.6384 9.46447 16.6486C8.52678 15.6588 8 14.3164 8 12.9167C8 11.5169 8.52678 10.1745 9.46447 9.18471C10.4021 8.19494 11.6739 7.63889 13 7.63889C14.3261 7.63889 15.5979 8.19494 16.5355 9.18471C17.4732 10.1745 18 11.5169 18 12.9167C18 13.2228 17.97 13.5394 17.92 13.8456C18.58 13.5817 19.29 13.4444 20 13.4444C21.17 13.4444 22.31 13.8033 23.29 14.5C23.56 13.9722 23.8 13.4444 24 12.9167C22.27 8.28278 18 5 13 5ZM13 9.75C12.2044 9.75 11.4413 10.0836 10.8787 10.6775C10.3161 11.2714 10 12.0768 10 12.9167C10 13.7565 10.3161 14.562 10.8787 15.1558C11.4413 15.7497 12.2044 16.0833 13 16.0833C13.7956 16.0833 14.5587 15.7497 15.1213 15.1558C15.6839 14.562 16 13.7565 16 12.9167C16 12.0768 15.6839 11.2714 15.1213 10.6775C14.5587 10.0836 13.7956 9.75 13 9.75ZM19 15.5556V18.7222H16V20.8333H19V24H21V20.8333H24V18.7222H21V15.5556H19Z" fill="white"/>
</g>
<defs>
<clipPath id="clip0_6790_10254">
<rect width="24" height="24" fill="white"/>
</clipPath>
</defs>
</svg>
