<svg width="24" height="24" viewBox="0 0 24 24" fill="none" xmlns="http://www.w3.org/2000/svg">
<path d="M13 5C8 5 3.73 8.11 2 12.5C3.73 16.89 8 20 13 20C13.36 20 13.72 20 14.08 19.95C14.0282 19.636 14.0014 19.3183 14 19C14 18.44 14.08 17.88 14.24 17.34C13.83 17.44 13.42 17.5 13 17.5C11.6739 17.5 10.4021 16.9732 9.46447 16.0355C8.52678 15.0979 8 13.8261 8 12.5C8 11.1739 8.52678 9.90215 9.46447 8.96447C10.4021 8.02678 11.6739 7.5 13 7.5C14.3261 7.5 15.5979 8.02678 16.5355 8.96447C17.4732 9.90215 18 11.1739 18 12.5C18 12.79 17.97 13.09 17.92 13.38C18.58 13.13 19.29 13 20 13C21.17 13 22.31 13.34 23.29 14C23.56 13.5 23.8 13 24 12.5C22.27 8.11 18 5 13 5ZM13 9.5C12.2044 9.5 11.4413 9.81607 10.8787 10.3787C10.3161 10.9413 10 11.7044 10 12.5C10 13.2956 10.3161 14.0587 10.8787 14.6213C11.4413 15.1839 12.2044 15.5 13 15.5C13.7956 15.5 14.5587 15.1839 15.1213 14.6213C15.6839 14.0587 16 13.2956 16 12.5C16 11.7044 15.6839 10.9413 15.1213 10.3787C14.5587 9.81607 13.7956 9.5 13 9.5Z" fill="white"/>
<path d="M19.9995 20.5C19.4746 20.5 18.9712 20.2893 18.6 19.9142C18.2288 19.5391 18.0203 19.0304 18.0203 18.5C18.0203 17.9696 18.2288 17.4609 18.6 17.0858C18.9712 16.7107 19.4746 16.5 19.9995 16.5M19.9995 20.5C20.5244 20.5 21.0278 20.2893 21.399 19.9142C21.7702 19.5391 21.9787 19.0304 21.9787 18.5C21.9787 17.9696 21.7702 17.4609 21.399 17.0858C21.0278 16.7107 20.5244 16.5 19.9995 16.5M19.9995 20.5V22M19.9995 16.5V15M22.999 16.75L21.7135 17.5M18.2865 19.5L17 20.25M17 16.75L18.2865 17.5M21.7135 19.5L23 20.25" stroke="white" stroke-width="2" stroke-linecap="round" stroke-linejoin="round"/>
</svg>
