<svg width="24" height="24" viewBox="0 0 24 24" fill="none" xmlns="http://www.w3.org/2000/svg">
<path d="M24 17.8571L18.8889 23L15.3111 19.4L16.8444 17.8571L18.8889 19.9143L22.4667 16.3143L24 17.8571ZM12.2444 9.62857C13.0578 9.62857 13.8378 9.95367 14.4129 10.5324C14.988 11.111 15.3111 11.8959 15.3111 12.7143C15.3111 13.5327 14.988 14.3175 14.4129 14.8962C13.8378 15.4749 13.0578 15.8 12.2444 15.8C11.4311 15.8 10.6511 15.4749 10.076 14.8962C9.50087 14.3175 9.17778 13.5327 9.17778 12.7143C9.17778 11.8959 9.50087 11.111 10.076 10.5324C10.6511 9.95367 11.4311 9.62857 12.2444 9.62857ZM12.2444 17.8571C12.7556 17.8571 13.236 17.7851 13.696 17.6411C13.42 18.3714 13.2667 19.112 13.2667 19.9143V20.3771L12.2444 20.4286C7.13333 20.4286 2.76844 17.2297 1 12.7143C2.76844 8.19886 7.13333 5 12.2444 5C17.3556 5 21.7204 8.19886 23.4889 12.7143C23.2333 13.3726 22.9164 14.0103 22.5484 14.6171C21.6284 14.0617 20.5449 13.7429 19.4 13.7429C18.6027 13.7429 17.8667 13.8971 17.1409 14.1749C17.284 13.712 17.3556 13.2286 17.3556 12.7143C17.3556 11.3503 16.8171 10.0422 15.8585 9.07774C14.9 8.11326 13.6 7.57143 12.2444 7.57143C10.8889 7.57143 9.58886 8.11326 8.63034 9.07774C7.67182 10.0422 7.13333 11.3503 7.13333 12.7143C7.13333 14.0783 7.67182 15.3864 8.63034 16.3508C9.58886 17.3153 10.8889 17.8571 12.2444 17.8571Z" fill="white"/>
</svg>
