<svg width="24" height="24" viewBox="0 0 24 24" fill="none" xmlns="http://www.w3.org/2000/svg">
<path d="M12.6735 19.4155C12.7802 19.4114 12.8867 19.4288 12.9864 19.4667C13.0862 19.5047 13.1773 19.5623 13.2543 19.6363C13.3312 19.7102 13.3925 19.7989 13.4343 19.8971C13.4761 19.9952 13.4976 20.1008 13.4976 20.2074C13.4976 20.3141 13.4761 20.4197 13.4343 20.5178C13.3925 20.616 13.3312 20.7047 13.2543 20.7786C13.1773 20.8526 13.0862 20.9102 12.9864 20.9482C12.8867 20.9861 12.7802 21.0035 12.6735 20.9994C12.4631 20.9994 12.2613 20.9159 12.1125 20.7673C11.9637 20.6186 11.8801 20.4171 11.8801 20.2069C11.8801 19.9967 11.9637 19.7951 12.1125 19.6464C12.2613 19.4978 12.4631 19.4155 12.6735 19.4155ZM9.89843 18.6229C10.0051 18.6188 10.1116 18.6362 10.2114 18.6742C10.3111 18.7121 10.4022 18.7698 10.4792 18.8437C10.5561 18.9177 10.6174 19.0064 10.6592 19.1045C10.701 19.2027 10.7225 19.3082 10.7225 19.4149C10.7225 19.5216 10.701 19.6271 10.6592 19.7253C10.6174 19.8234 10.5561 19.9121 10.4792 19.9861C10.4022 20.06 10.3111 20.1177 10.2114 20.1556C10.1116 20.1936 10.0051 20.211 9.89843 20.2069C9.69348 20.1989 9.49957 20.112 9.35737 19.9644C9.21518 19.8167 9.13575 19.6198 9.13575 19.4149C9.13575 19.21 9.21518 19.0131 9.35737 18.8654C9.49957 18.7178 9.69348 18.6309 9.89843 18.6229ZM15.4486 18.6229C15.5553 18.6188 15.6617 18.6362 15.7615 18.6742C15.8613 18.7121 15.9524 18.7698 16.0294 18.8437C16.1063 18.9177 16.1675 19.0064 16.2094 19.1045C16.2512 19.2027 16.2727 19.3082 16.2727 19.4149C16.2727 19.5216 16.2512 19.6271 16.2094 19.7253C16.1675 19.8234 16.1063 19.9121 16.0294 19.9861C15.9524 20.06 15.8613 20.1177 15.7615 20.1556C15.6617 20.1936 15.5553 20.211 15.4486 20.2069C15.2437 20.1989 15.0498 20.112 14.9076 19.9644C14.7654 19.8167 14.6859 19.6198 14.6859 19.4149C14.6859 19.21 14.7654 19.0131 14.9076 18.8654C15.0498 18.7178 15.2437 18.6309 15.4486 18.6229ZM12.6735 6.74055C15.6044 6.74055 17.2685 8.60965 17.51 10.8685H17.5838C19.4703 10.8685 21 12.3383 21 14.1516C21 15.9648 19.4703 17.4347 17.5838 17.4347H7.76328C5.87674 17.4347 4.34705 15.9648 4.34705 14.1516C4.34705 12.3383 5.87674 10.8685 7.76328 10.8685H7.83703C8.07969 8.5942 9.74142 6.74055 12.6735 6.74055ZM4.11272 9.94879C4.15845 10.0805 4.15634 10.2241 4.10676 10.3545C4.05717 10.4848 3.96328 10.5936 3.84151 10.6617L3.74398 10.7045L2.79119 11.0325C2.65058 11.0816 2.49663 11.0763 2.35978 11.0175C2.22293 10.9587 2.11315 10.8507 2.05215 10.715C1.99115 10.5792 1.98337 10.4255 2.03035 10.2843C2.07734 10.1431 2.17566 10.0246 2.30587 9.95236L2.40341 9.90958L3.35739 9.58163C3.50645 9.53053 3.66973 9.54062 3.81135 9.60968C3.95297 9.67875 4.06137 9.80114 4.11272 9.94998M10.1994 4.95819C10.5943 5.15069 10.9428 5.4014 11.2378 5.6949C9.14191 6.12742 7.63363 7.51647 7.02342 9.44498L6.9461 9.71114L6.89138 9.93334L6.69393 9.96899C6.16654 10.0785 5.663 10.2813 5.20706 10.5679C4.74729 9.85244 4.5343 9.00647 4.60056 8.1589C4.66682 7.31132 5.0087 6.50863 5.57408 5.87319C6.13945 5.23775 6.89732 4.8044 7.73216 4.63921C8.56699 4.47401 9.433 4.58603 10.1982 4.95819M3.05764 5.16019L3.15755 5.19822L4.06395 5.63905C4.19757 5.70394 4.30204 5.81643 4.3568 5.9544C4.41156 6.09237 4.41265 6.24581 4.35984 6.38454C4.30704 6.52326 4.20417 6.63722 4.07148 6.70399C3.93879 6.77075 3.78589 6.78549 3.64287 6.7453L3.54176 6.70728L2.63655 6.26644C2.50293 6.20155 2.39846 6.08906 2.3437 5.95109C2.28894 5.81313 2.28786 5.65968 2.34066 5.52096C2.39347 5.38223 2.49633 5.26827 2.62902 5.2015C2.76171 5.13474 2.91462 5.12 3.05764 5.16019ZM11.4709 2.33813C11.5962 2.39917 11.696 2.5022 11.7529 2.62924C11.8099 2.75628 11.8204 2.89926 11.7826 3.03325L11.7445 3.13306L11.3032 4.03849C11.2383 4.17197 11.1257 4.27633 10.9875 4.33104C10.8494 4.38574 10.6958 4.38682 10.557 4.33407C10.4181 4.28133 10.304 4.17857 10.2372 4.04602C10.1703 3.91347 10.1556 3.76073 10.1958 3.61786L10.2339 3.51686L10.6752 2.61142C10.7094 2.5411 10.7572 2.47824 10.8159 2.42642C10.8745 2.3746 10.9428 2.33486 11.0168 2.30947C11.0909 2.28408 11.1692 2.27354 11.2474 2.27846C11.3255 2.28338 11.4007 2.30365 11.4709 2.33813ZM6.96394 2.3001L7.00795 2.39754L7.33626 3.3505C7.38452 3.49078 7.3785 3.64402 7.31939 3.78009C7.26029 3.91617 7.15236 4.02523 7.01684 4.08585C6.88132 4.14646 6.728 4.15424 6.58702 4.10766C6.44605 4.06108 6.32761 3.9635 6.255 3.83412L6.21099 3.73668L5.88388 2.7849C5.83638 2.64496 5.84279 2.49235 5.90186 2.35687C5.96093 2.22139 6.06843 2.11276 6.20336 2.0522C6.3383 1.99163 6.49098 1.98347 6.63162 2.02931C6.77225 2.07514 6.89074 2.17169 6.96394 2.3001Z" fill="white"/>
</svg>
