<svg xmlns="http://www.w3.org/2000/svg" width="128" height="128" viewBox="0 0 1024 1024" shape-rendering="geometricPrecision"
     image-rendering="optimizeQuality" fill-rule="evenodd" fill="#ed5537">
    <path d="M443.5 173.5c122.42-1.356 219.92 46.311 292.5 143 25.811 38.465 43.811 80.465 54 126 7.387 39.879 8.387 79.879 3 120 1.532 2.062 3.532 3.396 6 4 27.095-1.161 54.261-1.328 81.5-.5 14.012 4.007 21.012 13.34 21 28-.238 16.571-8.571 25.904-25 28-95.528.83-191.028.663-286.5-.5-17.535 1.717-27.035 11.384-28.5 29 1.061 12.222 7.061 21.055 18 26.5a236.28 236.28 0 0 0 28 2c8.678 2.678 14.845 8.178 18.5 16.5 4.769 15.363.602 27.53-12.5 36.5l-8 2-42 1c-12.31 2.312-20.144 9.478-23.5 21.5-2.515 16.153 3.652 27.653 18.5 34.5l202 2c12.21 4.721 18.543 13.721 19 27 .06 8.131-2.606 15.131-8 21-2.401 2.062-5.067 3.729-8 5L506 847.5l-251.5-.5c-11.205-1.864-18.371-8.364-21.5-19.5-2.98-19.248 4.853-31.082 23.5-35.5l129-1c16.322-7.361 22.489-19.861 18.5-37.5-4.951-9.885-12.784-16.052-23.5-18.5l-183-1c-9.979-1.575-16.812-7.075-20.5-16.5-5.331-18.687.836-31.52 18.5-38.5a223.12 223.12 0 0 0 26-2c16.974-10.254 21.474-24.421 13.5-42.5-3.15-3.479-6.65-6.646-10.5-9.5-4.479-1.856-9.146-3.022-14-3.5-17.977.654-35.977.987-54 1a892.61 892.61 0 0 1-58-1.5c-16.104-5.876-22.271-17.376-18.5-34.5 2.442-11.661 9.609-18.495 21.5-20.5l22-1 2.5-2.5c-12.677-97.414 10.489-184.748 69.5-262 64.25-77.794 146.916-120.127 248-127zm245 505l74 .5c18.568 7.377 24.735 20.877 18.5 40.5-3.938 8.27-10.438 13.104-19.5 14.5a1259.87 1259.87 0 0 1-71 0c-6.687-.593-12.187-3.426-16.5-8.5-7.332-12.346-7.332-24.679 0-37l5.5-5.5c3.535-.663 6.535-2.163 9-4.5zm161 0l75 .5c12.863 4.69 19.196 13.857 19 27.5a47.79 47.79 0 0 1-2.5 15c-4.547 6.632-10.713 10.798-18.5 12.5a1259.87 1259.87 0 0 1-71 0c-12.13-2.13-19.297-9.297-21.5-21.5-1.39-11.996 2.444-21.829 11.5-29.5 3.133-.86 5.8-2.36 8-4.5z"/>
</svg>