<svg viewBox="0 0 266 266" xmlns="http://www.w3.org/2000/svg" fill="none">
    <path fill-rule="evenodd" clip-rule="evenodd"
          d="m225,120c-11.183,0 -20.58,-7.649 -23.244,-18l-27.508,0c-5.866,0 -10.872,4.241 -11.836,10.027l-0.987,5.919c-0.936,5.619 -3.779,10.509 -7.799,14.054c4.02,3.545 6.863,8.435 7.799,14.054l0.987,5.919c0.964,5.786 5.97,10.027 11.836,10.027l3.508,0c2.664,-10.351 12.061,-18 23.244,-18c13.255,0 24,10.745 24,24c0,13.255 -10.745,24 -24,24c-11.183,0 -20.58,-7.649 -23.244,-18l-3.508,0c-11.732,0 -21.744,-8.482 -23.673,-20.054l-0.987,-5.919c-0.964,-5.786 -5.97,-10.027 -11.836,-10.027l-9.508,0c-2.664,10.351 -12.061,18 -23.244,18c-11.183,0 -20.58,-7.649 -23.244,-18l-13.512,0c-2.664,10.351 -12.061,18 -23.244,18c-13.2548,0 -24,-10.745 -24,-24c0,-13.255 10.7452,-24 24,-24c11.183,0 20.58,7.649 23.244,18l13.512,0c2.664,-10.351 12.061,-18 23.244,-18c11.183,0 20.58,7.649 23.244,18l9.508,0c5.866,0 10.872,-4.241 11.836,-10.027l0.987,-5.919c1.929,-11.572 11.941,-20.054 23.673,-20.054l27.508,0c2.664,-10.351 12.061,-18 23.244,-18c13.255,0 24,10.745 24,24c0,13.255 -10.745,24 -24,24zm0,-12c6.627,0 12,-5.373 12,-12c0,-6.627 -5.373,-12 -12,-12c-6.627,0 -12,5.373 -12,12c0,6.627 5.373,12 12,12zm-180,36c6.627,0 12,-5.373 12,-12c0,-6.627 -5.373,-12 -12,-12c-6.6274,0 -12,5.373 -12,12c0,6.627 5.3726,12 12,12zm72,-12c0,6.627 -5.373,12 -12,12c-6.627,0 -12,-5.373 -12,-12c0,-6.627 5.373,-12 12,-12c6.627,0 12,5.373 12,12zm96,36c0,6.627 -5.373,12 -12,12c-6.627,0 -12,-5.373 -12,-12c0,-6.627 5.373,-12 12,-12c6.627,0 12,5.373 12,12z"
          fill="#EA4B71" />
</svg>