<svg xmlns="http://www.w3.org/2000/svg" width="128" height="128" viewBox="75 75 420 420"><path fill="#0071BC" d="M157.2026 247.2432l-19.919-11.5 50-86.6026c2.0548-3.5576 5.8512-5.75 9.9596-5.75h100v23h-93.3604l-46.6802 80.8526z"/><path fill="#0071BC" d="M119.919 225.7178l-19.919-11.5 62.2832-107.878c2.0547-3.5586 5.851-5.75 9.9595-5.75h125.0005v23H178.8823l-58.9633 102.128zm337.2832 97.1279l-75-129.9043c-2.0547-3.5576-5.8506-5.75-9.959-5.75h-150c-4.1084 0-7.9048 2.1924-9.9595 5.75l-75 129.9043a11.5004 11.5004 0 000 11.5l75 129.9043c2.0542 3.5576 5.851 5.75 9.9595 5.75h150c4.1084 0 7.9043-2.1924 9.959-5.75l13.1103-22.707s.499-.8633-.3682-1.3643c-3.627-2.0928-17.4296-10.0615-18.1835-10.497-.8692-.502-1.3682.3632-1.3682.3632L365.6036 447H228.8827l-68.3603-118.4043 68.3603-118.4043h136.7207l68.3604 118.4043-37.2383 64.5H273.1475l73.1797-126.75a11.5028 11.5028 0 000-11.5c-2.0547-3.5586-5.8516-5.75-9.96-5.75H234.7427c-.5518 0-.999.4473-.9995 1v21c0 .5527.4477 1 1 1h81.705l-73.1782 126.75c-2.0542 3.5586-2.0542 7.9424 0 11.5 2.0547 3.5576 5.8511 5.75 9.9595 5.75h150.1348c4.1094 0 7.9052-2.1924 9.96-5.75l43.8779-76a11.498 11.498 0 000-11.5z"/></svg>
