<svg viewBox="0 0 128 128" xmlns="http://www.w3.org/2000/svg" fill="currentColor">
  <g transform="matrix(.56122 0 0 .56122 28.082 28.081)">
    <path d="m98 24h15v80h-15z"/>
    <path transform="matrix(1.0892 0 0 1.1187 -4.5514 -7.5937)" d="m58.834 29.054 46.333 29.892a6.0144 6.0144 90 0 1 0 10.108l-46.333 29.892a5.0797 5.0797 28.586 0 1-7.8335-4.2684v-61.355a5.0797 5.0797 151.41 0 1 7.8335-4.2684z"/>
    <path transform="matrix(1.0892 0 0 1.1187 -40.551 -7.5937)" d="m58.834 29.054 46.333 29.892a6.0144 6.0144 90 0 1 0 10.108l-46.333 29.892a5.0797 5.0797 28.586 0 1-7.8335-4.2684v-61.355a5.0797 5.0797 151.41 0 1 7.8335-4.2684z"/>
  </g>
</svg>