<svg width="100" height="100" version="1.1" viewBox="0 0 26.458 26.458" xmlns="http://www.w3.org/2000/svg">
 <g stroke="#fffffb">
  <path transform="scale(.26458)" d="m35.473 20.621c-8.2281 0-14.852 6.6235-14.852 14.852v29.055c0 8.2281 6.6235 14.852 14.852 14.852h29.055c8.2281 0 14.852-6.6235 14.852-14.852v-29.055c0-8.2281-6.6235-14.852-14.852-14.852h-4.0195v9.6641c0 0.05754-0.01898 0.1113-0.02344 0.16797 5.108 0.40503 9.1016 4.6456 9.1016 9.8613v19.371c0 5.4854-4.415 9.9004-9.9004 9.9004h-19.371c-5.4854 0-9.9004-4.415-9.9004-9.9004v-19.371c0-5.4854 4.415-9.9004 9.9004-9.9004h0.21094c-0.0026-0.04363-0.01758-0.08477-0.01758-0.12891v-9.6641z" fill="#fff" stroke-linecap="round" stroke-width="1.2412"/>
  <path d="m10.111 9.4128v-5.3598c-0.0082 0.018122-0.0021-0.17387 0.24672-0.34879 0.24874-0.17491 0.65793 0 0.65793 0l4.6078 2.7541s0.1702 0.098349 0.16971 0.29612c-4.97e-4 0.20056-0.1784 0.32361-0.1784 0.32361l-4.5991 2.7487s-0.39816 0.13052-0.65793-0.063572c-0.25976-0.19409-0.24672-0.35035-0.24672-0.35035z" fill="#eaffff" stroke-width=".082242"/>
 </g>
</svg>
