<svg width="21" height="16" viewBox="0 0 21 16" fill="none" xmlns="http://www.w3.org/2000/svg">
<path d="M2.01795 16C1.46302 16 0.988125 15.8043 0.593278 15.413C0.198432 15.0217 0.000672651 14.5507 0 14V2C0 1.45 0.19776 0.979333 0.593278 0.588C0.988797 0.196666 1.46369 0.000666667 2.01795 0H7.23941C7.50847 0 7.76508 0.0500001 8.00926 0.15C8.25343 0.25 8.46767 0.391666 8.65197 0.575L10.0898 2H19.1706C19.4564 2 19.6962 2.096 19.89 2.288C20.0837 2.48 20.1802 2.71733 20.1795 3C20.1789 3.28267 20.082 3.52033 19.8889 3.713C19.6959 3.90567 19.4564 4.00133 19.1706 4H5.90251C4.8599 4 3.95183 4.325 3.17828 4.975C2.40473 5.625 2.01795 6.45 2.01795 7.45V14L4.01068 7.425C4.14521 6.99167 4.39342 6.646 4.75531 6.388C5.11719 6.13 5.51641 6.00067 5.95296 6H18.9688C19.6582 6 20.2007 6.271 20.5962 6.813C20.9918 7.355 21.0967 7.94233 20.911 8.575L19.0949 14.575C18.9604 15.0083 18.7125 15.3543 18.3513 15.613C17.9901 15.8717 17.5905 16.0007 17.1526 16H2.01795Z" fill="white"/>
</svg>
