<svg xmlns="http://www.w3.org/2000/svg" width="512" height="512" viewBox="0 0 512 512">
<g transform="translate(0 24.73) scale(0.47539)">
<path d="M 117.36 480.25 L 114.58 486.00 L 56.05 486.00 L 56.91 483.75 C59.35,477.37 73.24,448.33 81.43,432.50 C141.46,316.46 206.16,234.30 282.71,176.90 C307.75,158.13 343.31,138.26 371.50,127.29 C436.29,102.08 509.37,93.61 580.36,103.08 C636.56,110.58 688.74,129.21 735.98,158.65 C827.05,215.40 922.31,335.14 987.84,475.25 L 992.87 486.00 L 935.42 486.00 L 931.54 478.75 C906.81,432.57 884.62,398.73 853.65,360.00 C817.83,315.18 777.19,275.79 731.24,241.35 C677.15,200.79 617.55,177.42 554.35,171.96 C536.18,170.40 492.84,171.23 477.00,173.46 C440.72,178.55 408.71,188.10 376.19,203.55 C302.67,238.46 221.21,315.34 159.95,407.64 C144.94,430.24 125.52,463.35 117.36,480.25 ZM 552.50 713.49 C541.73,714.96 519.62,715.99 511.50,715.38 C448.76,710.72 397.41,687.57 354.44,644.57 C329.86,619.98 313.87,596.30 301.09,565.59 C286.90,531.50 281.45,492.77 285.48,454.76 C294.41,370.57 349.39,297.29 429.00,263.47 C437.73,259.76 457.80,253.00 460.08,253.00 C461.82,253.00 461.89,254.59 461.57,286.05 C461.39,304.22 461.08,319.21 460.87,319.35 C460.67,319.49 457.26,320.88 453.30,322.44 C428.30,332.28 401.12,352.40 383.85,373.84 C365.38,396.77 353.37,423.84 348.49,453.50 C346.74,464.14 346.52,490.40 348.09,501.66 C354.20,545.59 378.80,586.38 416.15,614.52 C456.89,645.20 507.19,656.76 557.00,646.87 C622.31,633.90 676.85,582.44 692.56,518.95 C705.90,465.04 691.35,407.30 654.14,366.50 C637.10,347.81 611.08,330.04 587.25,320.81 L 583.00 319.16 L 582.99 288.33 C582.98,271.37 582.70,256.49 582.37,255.25 C581.51,252.05 583.66,252.28 597.68,256.89 C658.81,277.01 708.35,319.87 735.97,376.50 C751.17,407.68 758.41,437.24 759.62,473.00 C760.73,506.01 754.52,538.72 741.21,570.00 C726.80,603.84 699.75,639.24 670.50,662.53 C635.69,690.24 595.50,707.59 552.50,713.49 Z" fill="rgb(8,74,123)"/>
<path d="M 117.36 480.25 C120.31,474.15 124.72,465.94 129.87,456.87 C121.65,471.48 115.00,484.31 115.00,485.98 C115.00,488.85 143.35,535.80 160.31,561.00 C194.86,612.37 242.75,667.32 282.50,701.22 C352.88,761.23 420.96,792.86 495.00,799.95 C511.21,801.51 551.47,800.43 567.50,798.02 C585.08,795.37 601.46,791.74 615.07,787.48 C679.06,767.42 739.34,729.08 798.85,670.57 C847.91,622.35 887.32,570.14 927.26,500.50 C929.78,496.10 932.60,490.90 933.52,488.93 L 935.14 485.48 L 935.42 486.00 L 992.87 486.00 L 992.97 486.22 L 978.51 514.87 C947.38,576.54 916.93,625.17 880.13,672.00 C823.15,744.50 768.05,793.47 704.06,828.47 C659.44,852.87 611.18,867.44 558.16,872.52 C544.47,873.83 507.33,874.33 497.00,873.35 C495.08,873.16 488.55,872.53 482.50,871.95 C476.45,871.37 464.98,869.77 457.00,868.41 C396.02,857.97 342.67,834.40 287.50,793.53 C232.96,753.12 176.18,690.47 128.70,618.32 C105.88,583.62 78.61,534.91 62.56,500.15 L 55.93 485.81 L 57.31 482.74 C57.16,483.12 57.02,483.46 56.91,483.75 L 56.05 486.00 L 114.58 486.00 ZM 541.00 621.52 C524.98,624.00 501.45,622.64 488.25,618.48 L 486.00 617.77 L 486.00 338.08 L 489.75 337.07 C505.06,332.95 538.94,332.95 554.25,337.07 L 558.00 338.08 L 558.00 617.91 L 554.25 618.98 C552.19,619.57 546.22,620.71 541.00,621.52 ZM 499.50 310.51 C493.45,311.32 487.94,311.99 487.25,311.99 C486.28,312.00 486.00,304.85 486.00,279.56 L 486.00 247.12 L 490.75 246.31 C497.28,245.20 548.56,245.46 553.50,246.64 L 557.50 247.59 L 557.76 279.79 L 558.03 312.00 L 555.68 312.00 C554.38,312.00 548.86,311.33 543.41,310.51 C530.87,308.62 513.65,308.62 499.50,310.51 ZM 841.15 344.81 C808.12,306.03 771.41,271.46 731.24,241.35 C771.92,271.84 808.45,306.22 841.15,344.81 ZM 157.76 410.96 C158.50,409.83 159.23,408.72 159.95,407.64 C184.82,370.17 213.02,335.24 242.66,304.63 C212.24,336.10 183.31,372.16 157.76,410.96 ZM 88.09 419.81 C90.78,414.71 93.38,409.86 95.77,405.50 C107.00,385.11 118.39,365.84 130.00,347.64 C115.72,370.05 101.78,394.06 88.09,419.81 ZM 130.00 347.64 C176.16,275.23 225.85,219.71 281.88,177.52 C225.85,219.72 176.20,275.22 130.00,347.64 ZM 63.75 468.55 C65.56,464.67 67.61,460.37 69.82,455.84 C67.69,460.25 65.61,464.60 63.75,468.55 ZM 894.32 415.65 C890.94,410.52 887.50,405.46 884.01,400.44 C887.52,405.48 890.95,410.53 894.32,415.65 ZM 929.00 474.03 L 926.49 469.43 C926.00,468.55 925.52,467.67 925.04,466.79 C926.35,469.17 927.67,471.59 929.00,474.03 Z" fill="rgb(18,156,205)"/>
<path d="M 303.59 656.85 C293.36,660.62 282.61,660.05 273.41,655.26 C268.43,652.66 256.22,640.33 247.92,629.50 C233.02,610.07 222.13,590.89 214.71,571.00 C205.98,547.61 200.48,514.04 204.29,507.37 C204.95,506.20 213.38,497.08 223.00,487.10 C233.03,476.70 241.24,467.30 242.24,465.08 C243.20,462.95 244.90,454.97 246.01,447.35 C250.73,415.12 253.42,404.38 264.92,372.08 C268.49,362.07 270.24,355.42 270.67,350.33 C271.07,345.66 271.73,343.00 272.49,343.00 C274.00,343.00 291.00,361.41 291.00,363.05 C291.00,363.72 289.25,367.71 287.11,371.91 C278.23,389.34 269.68,417.55 265.78,442.34 C263.90,454.28 263.55,460.41 263.58,481.50 C263.62,507.00 265.18,522.32 269.35,538.00 C275.25,560.23 276.24,563.20 283.94,581.89 C286.75,588.71 288.85,594.48 288.61,594.72 C286.63,596.71 273.76,582.88 265.29,569.68 C255.87,554.97 248.55,537.82 246.14,524.80 C245.60,521.87 244.83,515.08 244.44,509.71 C244.04,504.34 243.29,499.68 242.76,499.35 C241.77,498.74 229.40,510.37 225.88,515.22 C223.98,517.84 223.96,518.28 225.45,528.72 C227.47,542.89 229.23,550.03 233.61,561.78 C243.03,587.09 262.07,616.81 278.46,631.79 C287.45,640.00 292.65,639.92 302.19,631.41 C305.53,628.43 308.63,626.00 309.09,626.00 C310.31,626.00 321.00,640.73 321.00,642.41 C321.00,644.90 309.00,654.86 303.59,656.85 ZM 779.30 590.96 C775.56,598.36 772.05,604.53 771.50,604.69 C770.29,605.02 756.00,591.74 756.00,590.29 C756.00,589.73 757.99,585.05 760.41,579.88 C768.67,562.32 775.30,540.02 778.50,519.00 C781.03,502.38 781.55,471.22 779.59,454.50 C777.21,434.28 773.58,417.56 767.94,400.83 C762.35,384.25 762.10,382.87 765.11,385.60 C768.37,388.55 783.24,408.77 787.37,415.86 C795.25,429.42 799.81,443.27 800.54,455.91 C801.33,469.63 802.00,474.17 803.16,473.78 C803.72,473.59 808.01,469.63 812.68,464.97 L 821.17 456.50 L 820.61 447.96 C819.98,438.34 815.64,420.01 811.51,409.50 C807.18,398.47 799.47,384.26 792.71,374.86 C782.42,360.54 779.95,357.98 775.80,357.33 C770.24,356.46 767.71,357.50 761.47,363.20 C755.98,368.22 755.72,368.34 754.30,366.45 C752.01,363.40 746.00,351.21 746.00,349.61 C746.00,348.82 748.04,346.37 750.53,344.18 C763.12,333.10 779.58,332.15 792.30,341.76 C804.22,350.77 825.16,385.31 832.97,408.84 C840.00,430.02 844.48,454.98 842.59,462.50 C842.18,464.14 834.61,472.73 823.59,484.07 C813.51,494.44 804.57,504.40 803.71,506.21 C802.85,508.02 801.66,513.10 801.06,517.50 C797.49,543.66 789.40,570.97 779.30,590.96 ZM 813.10 615.75 C806.48,626.07 805.59,626.83 803.62,623.82 C802.78,622.54 801.39,618.80 800.52,615.50 C798.39,607.38 799.29,600.79 804.23,588.50 C812.78,567.19 817.56,549.96 820.53,529.82 C821.44,523.61 822.80,517.41 823.54,516.02 C824.29,514.63 832.58,505.62 841.98,496.00 C863.63,473.82 864.54,472.18 864.39,456.00 C864.27,443.82 861.27,427.09 855.20,404.75 C853.59,398.84 852.61,394.00 853.01,394.00 C854.59,394.00 875.18,422.50 881.31,433.18 C884.76,439.18 885.87,448.87 886.62,479.50 C887.33,508.34 886.07,530.38 883.47,534.55 C876.95,545.04 858.53,572.11 856.93,573.56 C855.09,575.23 855.00,575.22 855.00,573.38 C855.00,572.33 855.88,568.30 856.94,564.44 C860.04,553.29 864.10,527.52 864.73,515.13 C865.29,504.15 865.24,503.80 863.39,504.79 C862.34,505.35 859.52,508.00 857.13,510.66 C854.75,513.32 850.54,517.81 847.79,520.64 L 842.78 525.79 L 840.89 537.39 C835.99,567.57 826.08,595.51 813.10,615.75 ZM 187.63 557.11 C189.76,566.09 189.26,568.21 186.03,563.84 C179.75,555.33 164.97,533.80 162.38,529.40 L 159.50 524.50 L 159.52 487.50 C159.52,467.15 159.89,448.38 160.32,445.80 C160.87,442.52 163.31,437.66 168.35,429.80 C179.21,412.84 187.39,402.13 187.82,404.30 C188.01,405.30 187.24,411.82 186.11,418.80 C182.12,443.49 180.00,467.00 181.77,467.00 C182.19,467.00 187.12,462.39 192.72,456.75 C203.73,445.67 203.91,445.32 205.48,431.50 C206.89,419.15 212.30,396.01 217.16,381.55 C223.24,363.48 226.77,355.93 231.89,350.04 L 235.77 345.58 L 237.90 349.04 C239.07,350.94 240.52,354.30 241.13,356.50 C242.50,361.47 241.68,373.01 239.53,379.00 C236.81,386.57 229.98,412.14 228.99,418.50 C228.47,421.80 227.13,431.02 226.01,439.00 C224.89,446.98 223.70,454.40 223.36,455.50 C223.03,456.60 214.95,465.26 205.40,474.74 C183.24,496.74 181.55,499.61 181.65,515.00 C181.72,525.08 184.23,542.81 187.63,557.11 ZM 711.96 290.75 C708.32,294.19 704.93,297.00 704.42,296.99 C703.91,296.99 700.16,293.91 696.07,290.14 L 688.64 283.30 L 693.96 278.23 L 699.27 273.16 L 696.39 270.46 C685.35,260.13 662.06,244.82 644.64,236.44 C623.66,226.35 593.89,217.45 571.33,214.51 C564.76,213.65 558.45,216.23 554.52,221.38 L 551.77 225.00 L 538.63 224.37 C531.41,224.03 525.06,223.34 524.53,222.85 C523.93,222.30 528.90,216.61 537.53,207.95 L 551.50 193.94 L 557.00 194.56 C609.98,200.58 656.12,217.46 701.00,247.26 C714.55,256.26 733.00,269.97 733.00,271.04 C733.00,271.50 729.76,274.71 725.79,278.19 C721.82,281.66 715.60,287.31 711.96,290.75 ZM 597.53 770.05 C579.99,774.37 578.96,774.05 590.93,768.03 C609.00,758.95 619.62,751.73 635.62,737.67 C652.04,723.23 664.16,708.37 672.96,691.84 C676.62,684.97 678.49,682.89 689.13,673.79 C695.75,668.13 701.64,663.33 702.22,663.12 C703.59,662.63 702.41,675.73 700.52,682.00 C695.14,699.84 682.61,719.99 664.89,739.27 C658.10,746.66 655.63,748.60 649.17,751.64 C633.54,758.98 613.52,766.11 597.53,770.05 ZM 311.20 331.61 C307.52,336.74 303.80,340.95 302.93,340.97 C301.29,341.00 270.00,309.95 270.00,308.29 C270.00,307.11 283.47,294.00 284.68,294.00 C285.16,294.00 288.46,296.92 292.00,300.50 C295.54,304.08 298.75,307.00 299.12,307.00 C299.76,307.00 303.93,296.73 311.02,277.72 C314.70,267.82 315.74,266.75 333.50,254.38 C346.31,245.46 349.07,243.73 349.64,244.30 C349.89,244.56 346.75,251.45 342.65,259.63 C333.03,278.84 329.90,286.64 320.05,315.90 C318.73,319.83 315.32,325.88 311.20,331.61 ZM 459.00 738.92 C447.61,744.08 425.24,737.89 389.70,719.75 L 373.90 711.69 L 370.20 715.15 C362.87,722.00 355.15,728.00 353.67,728.00 C351.33,728.00 336.86,717.94 337.20,716.55 C337.36,715.87 341.77,711.79 347.00,707.48 C352.23,703.17 358.87,697.36 361.77,694.57 C365.38,691.10 367.26,689.16 369.40,688.81 C371.95,688.40 374.88,690.25 381.54,694.48 C381.91,694.72 382.30,694.97 382.70,695.22 C405.11,709.43 427.46,719.09 456.25,727.00 C463.01,728.86 468.00,730.74 468.00,731.44 C468.00,733.31 463.97,736.66 459.00,738.92 ZM 368.67 274.03 C363.47,277.86 358.94,281.00 358.61,281.00 C357.63,281.00 357.85,280.25 360.85,273.20 C369.35,253.26 393.12,221.01 402.99,216.02 C412.71,211.11 441.06,202.28 455.86,199.54 C470.16,196.90 470.61,197.52 458.77,203.48 C444.38,210.72 437.08,215.07 428.60,221.46 C420.41,227.63 400.49,247.74 397.14,253.22 C395.61,255.73 392.15,258.59 386.50,262.00 C381.89,264.79 373.87,270.20 368.67,274.03 ZM 503.13 757.11 C491.93,768.05 482.25,776.95 481.63,776.90 C469.92,775.84 439.35,768.17 421.50,761.82 C405.14,756.00 374.00,741.25 374.00,739.33 C374.00,737.02 376.91,737.85 387.35,743.14 C399.67,749.37 419.23,757.22 429.75,760.15 C435.57,761.77 440.36,762.32 449.00,762.34 C465.74,762.40 468.87,760.96 484.15,746.27 L 496.13 734.75 L 509.32 735.47 C516.57,735.87 522.72,736.43 523.00,736.71 C523.28,736.99 514.33,746.17 503.13,757.11 ZM 542.96 777.98 C540.56,779.33 515.75,780.29 514.00,779.10 C512.79,778.27 515.63,774.95 529.00,761.52 C538.08,752.42 548.47,742.36 552.11,739.17 C558.22,733.80 559.27,733.28 566.11,732.09 C570.17,731.39 577.94,729.71 583.37,728.36 C588.80,727.01 593.50,726.16 593.81,726.48 C594.41,727.08 545.65,776.47 542.96,777.98 ZM 778.38 658.12 C774.62,661.91 771.05,665.00 770.44,665.00 C769.12,665.00 733.00,628.53 733.00,627.21 C733.00,626.51 742.63,612.34 744.64,610.07 C745.15,609.50 782.87,646.99 784.17,649.37 C785.04,650.96 784.14,652.31 778.38,658.12 ZM 321.31 696.82 C318.46,698.02 315.09,698.99 313.81,698.98 C311.81,698.96 295.44,686.14 293.59,683.14 C293.27,682.62 296.40,681.45 300.54,680.52 C310.86,678.23 322.15,672.31 330.27,664.94 C333.84,661.71 335.44,659.94 337.10,659.88 C338.75,659.82 340.45,661.45 344.18,665.00 C344.80,665.59 345.48,666.24 346.23,666.94 C349.40,669.93 352.00,672.81 352.00,673.34 C352.00,675.03 339.73,686.06 333.00,690.43 C329.42,692.75 324.17,695.63 321.31,696.82 ZM 738.75 325.43 C735.66,327.94 732.94,330.00 732.71,330.00 C731.69,330.00 721.00,315.13 721.00,313.72 C721.00,311.30 732.35,301.63 739.26,298.16 C742.69,296.43 748.34,294.31 751.81,293.44 L 758.12 291.85 L 761.81 294.65 C763.84,296.19 768.81,300.84 772.86,304.98 L 780.21 312.50 L 771.36 313.08 C757.75,313.97 748.53,317.46 738.75,325.43 ZM 467.50 229.61 C460.90,231.00 454.66,232.37 453.63,232.67 C452.60,232.97 451.93,232.83 452.14,232.35 C452.34,231.88 461.06,223.11 471.50,212.85 L 490.50 194.20 L 498.00 193.58 C506.39,192.89 514.01,192.62 518.49,192.85 C521.32,192.99 520.59,193.89 505.09,209.41 C489.63,224.89 488.45,225.85 484.10,226.45 C481.57,226.81 474.10,228.23 467.50,229.61 ZM 712.32 714.85 C711.11,715.48 709.91,716.00 709.64,716.00 C709.37,716.00 711.79,710.42 715.03,703.61 C721.39,690.21 725.67,678.13 728.55,665.50 C729.55,661.10 730.53,657.30 730.72,657.05 C731.27,656.34 754.00,679.34 754.00,680.61 C754.00,682.37 718.32,711.68 712.32,714.85 Z" fill="rgb(192,224,237)"/>
</g>
</svg>
