<svg xmlns="http://www.w3.org/2000/svg" width="32" height="32" viewBox="0 0 300 300">
    <path d="M 140 7.291 L 132.500 11.561 132.239 54.281 C 132.096 77.776, 131.862 97, 131.719 97 C 131.577 97, 128.307 96.126, 124.453 95.058 C 115.030 92.447, 105.924 88.232, 97.618 82.636 C 93.832 80.086, 89.883 78, 88.841 78 C 85.850 78, 57 94.939, 57 96.695 C 57 100.065, 76.525 114.789, 89.500 121.204 C 109.979 131.329, 126.786 135.163, 150.500 135.119 C 178.072 135.067, 200.720 128.375, 223.500 113.550 C 232.456 107.722, 243 98.492, 243 96.481 C 243 94.980, 213.944 78, 211.377 78 C 210.455 78, 206.123 80.294, 201.752 83.098 C 192.266 89.183, 185.383 92.333, 175.715 95.012 C 171.769 96.105, 168.423 97, 168.281 97 C 168.138 97, 167.904 77.776, 167.761 54.281 L 167.500 11.561 160 7.291 C 155.875 4.942, 151.375 3.020, 150 3.020 C 148.625 3.020, 144.125 4.942, 140 7.291 M 34 153.879 L 34 172.980 42.856 177.428 C 51.372 181.704, 63.542 190.571, 69.203 196.622 L 71.906 199.511 36.203 220.092 L 0.500 240.673 0.500 252.556 L 0.500 264.438 8 268.709 C 12.125 271.058, 16.339 272.985, 17.365 272.990 C 18.391 272.996, 35.220 263.766, 54.763 252.481 C 74.306 241.195, 90.453 232.119, 90.645 232.312 C 90.838 232.504, 91.970 236.226, 93.161 240.581 C 94.916 246.997, 95.344 251.404, 95.414 263.805 L 95.500 279.110 110.217 287.555 C 118.311 292.200, 125.802 296, 126.863 296 C 131.795 296, 134.308 257.584, 130.617 238.626 C 125.235 210.988, 113.203 188.062, 94.058 168.967 C 83.650 158.587, 75.121 152.128, 63.802 146.056 C 55.211 141.448, 42.846 136.437, 37.667 135.465 L 34 134.777 34 153.879 M 256.500 137.125 C 212.142 152.336, 179.685 189.489, 169.888 236.266 C 165.659 256.459, 167.862 296, 173.217 296 C 174.322 296, 181.930 292.128, 190.124 287.395 L 205.023 278.791 204.395 268.145 C 203.755 257.274, 205.308 244.145, 208.231 235.735 L 209.539 231.969 245.146 252.485 C 264.730 263.768, 281.597 272.992, 282.627 272.982 C 283.657 272.972, 288.002 270.924, 292.281 268.430 L 300.063 263.896 299.781 252.322 L 299.500 240.748 263.768 220.143 L 228.037 199.538 232.268 195.199 C 238.540 188.769, 248.642 181.564, 257.848 176.956 L 266 172.876 266 153.938 C 266 132.292, 266.745 133.611, 256.500 137.125"
          fill="#8c8c8c" />
</svg>