<?xml version="1.0" encoding="UTF-8" standalone="no"?>
<!-- Created with Inkscape (http://www.inkscape.org/) -->

<svg
   width="113mm"
   height="113mm"
   viewBox="0 0 113 113"
   version="1.1"
   id="svg1"
   xml:space="preserve"
   inkscape:version="1.4 (86a8ad7, 2024-10-11)"
   sodipodi:docname="smartm.svg"
   xmlns:inkscape="http://www.inkscape.org/namespaces/inkscape"
   xmlns:sodipodi="http://sodipodi.sourceforge.net/DTD/sodipodi-0.dtd"
   xmlns="http://www.w3.org/2000/svg"
   xmlns:svg="http://www.w3.org/2000/svg"><sodipodi:namedview
     id="namedview1"
     pagecolor="#000000"
     bordercolor="#000000"
     borderopacity="0.25"
     inkscape:showpageshadow="2"
     inkscape:pageopacity="0.0"
     inkscape:pagecheckerboard="true"
     inkscape:deskcolor="#d1d1d1"
     inkscape:document-units="mm"
     inkscape:export-bgcolor="#00000f00"
     inkscape:zoom="2.8548345"
     inkscape:cx="317.70668"
     inkscape:cy="264.28852"
     inkscape:window-width="2560"
     inkscape:window-height="1351"
     inkscape:window-x="3191"
     inkscape:window-y="196"
     inkscape:window-maximized="1"
     inkscape:current-layer="layer1" /><defs
     id="defs1" /><g
     inkscape:label="Ebene 1"
     inkscape:groupmode="layer"
     id="layer1"><g
       id="g8"
       transform="translate(1.2975071,1.8535809)"><path
         style="fill:#73ac89"
         d="m 55.033335,66.894587 c 0,-0.07326 0.277813,-0.351069 0.617362,-0.617361 0.559525,-0.43881 0.572003,-0.426332 0.133193,0.133193 -0.460859,0.587639 -0.750555,0.774516 -0.750555,0.484168 z"
         id="path13" /><path
         style="fill:#53934f"
         d="m 57.855558,63.719587 c 0,-0.07326 0.277812,-0.351069 0.617361,-0.617361 0.559525,-0.43881 0.572003,-0.426332 0.133193,0.133193 -0.460858,0.587639 -0.750554,0.774516 -0.750554,0.484168 z"
         id="path12" /><path
         style="fill:#016801"
         d="m 54.14258,66.410419 1.603392,-3.263194 H 52.74382 c -1.651183,0 -3.002151,-0.05953 -3.002151,-0.132287 0,-0.07276 1.500559,-3.247758 3.334576,-7.055556 l 3.334577,-6.923269 h 2.32094 c 1.877435,0 2.365826,0.116972 2.555838,0.612134 0.154526,0.40269 -0.751925,2.515017 -2.649248,6.173612 l -2.884146,5.561477 h 2.14534 2.14534 l -2.241192,2.494334 c -1.232656,1.371885 -2.921438,3.237197 -3.752849,4.14514 l -1.511657,1.650804 z"
         id="path9" /><path
         style="fill:#000000"
         d="m 51.636838,94.575601 c -2.385189,-0.196865 -2.589365,-0.284696 -3.96875,-1.707251 -2.652804,-2.24729 -1.454197,-6.141232 -1.454197,-9.572622 0,-8.019197 -0.0054,-8.076427 -0.806075,-8.601073 -1.488204,-0.975109 -4.158964,-3.922435 -5.178115,-5.714326 -2.995001,-5.265871 -2.988394,-12.056737 0.01687,-17.34014 2.555492,-4.492681 8.12185,-8.24322 13.287458,-8.952916 5.58097,-0.766762 11.34132,1.160318 15.346512,5.134055 3.195253,3.170159 4.778116,6.506198 5.388671,11.357146 0.14392,1.143466 -0.544362,5.378206 -0.745193,6.109582 -0.977687,3.349375 -2.938773,6.23766 -5.930321,8.734173 l -1.447863,1.208273 -0.176389,4.453501 -0.176389,4.4535 c -1.103283,0.19673 -2.020328,0.03581 -2.94766,0.03152 -0.195149,-9.02e-4 -0.326746,-2.295197 -0.357202,-4.872445 l -0.05538,-4.685906 2.209286,-1.604495 c 2.543652,-1.84733 4.523267,-4.525129 5.593215,-7.565867 0.610407,-1.734747 0.720408,-2.721372 0.609643,-5.468056 -0.115235,-2.857527 -0.299349,-3.701452 -1.249413,-5.726946 -1.419202,-3.025676 -2.909784,-4.872863 -5.211174,-6.457891 -5.011285,-3.451404 -11.926909,-3.451404 -16.938194,0 -2.30139,1.585028 -3.791972,3.432215 -5.211174,6.457891 -0.950064,2.025494 -1.134178,2.869419 -1.249413,5.726946 -0.110765,2.746684 -7.64e-4,3.733309 0.609643,5.468056 0.94889,2.696698 2.943915,5.60002 4.817946,7.011463 0.880738,0.663336 1.909317,1.945483 2.582458,3.219093 l 1.118721,2.116667 -0.01,5.71604 c -0.006,3.437162 0.145172,6.056514 0.379151,6.570042 0.21401,0.469701 1.001295,1.19807 1.749522,1.618597 1.325732,0.745103 1.637321,0.761977 12.222696,0.661903 9.755996,-0.09223 10.996766,-0.169542 12.182713,-0.759069 2.997374,-1.489975 5.769331,-5.491264 6.777608,-9.783401 0.431999,-1.838975 0.494545,-4.002566 0.335593,-11.608835 -0.107449,-5.141736 -0.06104,-10.062986 0.103142,-10.936111 0.254941,-1.355819 0.432959,-1.603215 1.219798,-1.695177 0.658929,-0.07701 1.133876,0.162577 1.667779,0.841325 0.719927,0.915238 0.375337,1.295605 0.363626,10.691011 -0.07534,4.695162 0.112512,7.645776 -0.656397,12.314776 -0.707605,4.296747 -3.371064,8.976334 -7.183326,11.253282 -5.209323,3.11137 -7.589801,2.20007 -13.85907,2.1683 -6.190672,-0.0314 -12.387352,-0.150467 -13.770356,-0.264615 z M 18.697223,74.612503 V 61.030558 h 2.116667 2.116666 V 74.612503 88.194448 H 20.81389 18.697223 Z m -5.40763,-21.399771 c -0.597807,-0.763856 -0.790535,-1.288664 -0.570573,-1.553702 0.182687,-0.220125 5.982457,-4.670644 12.888379,-9.890044 6.905922,-5.2194 16.702242,-12.627415 21.7696,-16.462256 5.067359,-3.83484 9.372566,-6.919375 9.567127,-6.854521 0.194561,0.06485 9.995331,7.568076 21.779489,16.673826 l 21.425745,16.555911 -1.214581,1.228466 c -1.172455,1.185863 -1.246165,1.2093 -2.125403,0.67581 C 96.308423,53.282261 87.033433,46.498513 76.198289,38.511228 65.363145,30.523942 56.318437,23.98889 56.098938,23.98889 c -0.656283,0 -6.018924,3.5718 -5.827548,3.881453 C 50.493626,28.229928 15.755574,54.112689 14.854627,54.2588 14.44398,54.3254 13.849313,53.927922 13.289593,53.212732 Z M 83.041106,29.054865 c -3.471565,-3.034548 -6.367542,-5.66199 -6.435505,-5.838761 -0.06796,-0.17677 0.07778,-0.807505 0.323878,-1.401631 0.425198,-1.026518 0.523685,-1.069781 1.980678,-0.870078 1.373864,0.188309 2.186208,0.798752 7.815313,5.872884 5.827228,5.252722 6.270964,5.738474 6.128545,6.708838 -0.145456,0.991054 -0.241617,1.046107 -1.827254,1.046107 -1.65604,0 -1.740389,-0.05828 -7.985655,-5.517359 z"
         id="path8"
         sodipodi:nodetypes="ssscssssssscccsscsssssssssssccsssssssssssscscccccccccsssssscsssssssssssssss" /></g></g></svg>
