<?xml version="1.0" encoding="UTF-8" standalone="no"?>
<svg width="294.86719" height="86.765625" viewBox="0 0 293.8843 86.765625" version="1.1" id="svg2" xmlns="http://www.w3.org/2000/svg" xmlns:svg="http://www.w3.org/2000/svg">
  <defs id="defs2" />
  <g id="surface1" style="stroke:white;stroke-opacity:1" transform="translate(-2.566406,-2.117188)">
    <path style="fill:#052342;fill-opacity:1;fill-rule:nonzero;stroke:white;stroke-opacity:1" d="m 226.58984,2.617188 v 52.144531 c 0,4.820312 1.08594,8.316406 3.26563,10.503906 2.17187,2.183594 5.77344,3.269531 10.77344,3.269531 2.05468,0 3.80078,-0.121094 5.24218,-0.378906 1.44141,-0.257812 2.92969,-0.675781 4.47266,-1.257812 v -10.5 c -1.35156,0.449218 -2.88281,0.671874 -4.61719,0.671874 -1.27344,0 -2.20312,-0.269531 -2.78515,-0.816406 -0.57032,-0.550781 -0.85938,-1.558594 -0.85938,-3.039062 V 2.617188 Z M 2.566406,5.507812 v 62.0625 H 48.242188 V 55.625 H 18.046875 V 42.613281 H 44.695312 V 30.464844 H 18.054688 V 17.457031 H 48.25 V 5.507812 Z m 84.535156,15.421876 c -3.019531,0 -5.949218,0.46875 -8.800781,1.402343 -2.851562,0.929688 -5.269531,2.105469 -7.257812,3.519531 L 70.5625,21.890625 H 56.113281 V 67.582031 H 71.601562 V 36.449219 c 1.152344,-1.152344 2.59375,-2.117188 4.328126,-2.890625 1.734374,-0.773438 3.433593,-1.152344 5.097656,-1.152344 2.753906,0 4.699218,0.546875 5.816406,1.632812 1.128906,1.089844 1.691406,2.925782 1.691406,5.492188 V 67.570312 H 104.02344 V 38.277344 c 0,-5.917969 -1.35547,-10.289063 -4.082034,-13.113282 -2.730468,-2.824218 -7,-4.234374 -12.839844,-4.234374 z m 55.300778,0 c -5.5664,0 -10.35547,1.648437 -14.32422,4.921874 l -0.77343,-3.960937 h -13.47656 v 66.492187 h 15.49218 V 65.542969 c 3.39844,1.996093 7.50391,2.992187 12.3125,2.992187 6.85547,0 12.21094,-2.09375 16.0586,-6.308594 3.84765,-4.214843 5.76953,-10.367187 5.76953,-18.460937 0,-15.226563 -7.01172,-22.835937 -21.0586,-22.835937 z m 51.45703,0.01172 c -3.46875,0 -6.83203,0.277344 -10.09765,0.863282 -3.26563,0.582031 -6.0625,1.320312 -8.36719,2.21875 v 10.015624 c 5,-1.601562 10.09766,-2.410156 15.28906,-2.410156 4.17188,0 7.03125,0.484375 8.60938,1.449219 1.57812,0.964844 2.35937,2.632813 2.35937,5.007813 v 1.054687 h -12.6914 c -6.23047,0 -10.96094,1.320313 -14.19141,3.957031 -3.23437,2.632813 -4.85547,6.332032 -4.85547,11.082032 0,4.617187 1.51953,8.171874 4.5625,10.648437 3.04297,2.476563 6.90235,3.707031 11.58985,3.730469 7.17968,0 12.53515,-1.601563 16.05859,-4.820313 l 0.76953,3.855469 h 13.56641 V 39.0625 c 0,-6.164062 -1.95703,-10.722656 -5.8711,-13.683594 -3.90234,-2.957031 -9.48437,-4.4375 -16.73047,-4.4375 z m -55.88281,11.351563 c 3.46485,0 5.94922,0.804687 7.45703,2.410156 1.51172,1.613281 2.26172,4.539063 2.26172,8.773437 0,4.503907 -0.85156,7.914063 -2.55078,10.222657 -1.70312,2.308593 -4.18359,3.472656 -7.46094,3.460937 -1.78906,0 -3.3125,-0.234375 -4.5625,-0.71875 -1.2539,-0.492187 -2.51562,-1.207031 -3.80078,-2.171875 V 35.765625 c 2.50391,-2.316406 5.39063,-3.472656 8.65625,-3.472656 z m 52.70703,15.8125 h 10.96094 V 54.5625 C 199.14844,57.519531 195.58203,59 190.97266,59 c -4.74219,0 -7.11329,-1.804688 -7.11329,-5.402344 0,-1.859375 0.5586,-3.25 1.67969,-4.148437 1.11719,-0.894531 2.83985,-1.34375 5.14453,-1.34375 z m 0,0" id="path1" />
    <path style="fill:#ffb000;fill-opacity:1;fill-rule:nonzero;stroke:white;stroke-opacity:1" d="m 296.43359,58.695312 c 0,-6.472656 -5.23828,-11.722656 -11.69922,-11.722656 -6.46093,0 -11.69921,5.25 -11.69921,11.722656 0,6.476563 5.23828,11.722657 11.69921,11.722657 6.46094,0 11.69922,-5.246094 11.69922,-11.722657 z m 0,0" id="path2" />
  </g>
</svg>
